solid OpenSCAD_Model
  facet normal 0 -1 0
    outer loop
      vertex -37.5 -60 20
      vertex -37.5 -60 0
      vertex 32.5 -60 0
    endloop
  endfacet
  facet normal 0 -1 0
    outer loop
      vertex 32.5 -60 20
      vertex -37.5 -60 20
      vertex 32.5 -60 0
    endloop
  endfacet
  facet normal 0 0 -1
    outer loop
      vertex -35 52.5 0
      vertex -37.5 55 0
      vertex -37.119 56.913 0
    endloop
  endfacet
  facet normal 0 0 -1
    outer loop
      vertex -34.619 54.413 0
      vertex -37.119 56.913 0
      vertex -36.036 58.536 0
    endloop
  endfacet
  facet normal 0 0 -1
    outer loop
      vertex -33.536 56.036 0
      vertex -36.036 58.536 0
      vertex -34.413 59.619 0
    endloop
  endfacet
  facet normal 0 0 -1
    outer loop
      vertex -31.913 57.119 0
      vertex -34.413 59.619 0
      vertex -32.5 60 0
    endloop
  endfacet
  facet normal 0 0 -1
    outer loop
      vertex 30 57.5 0
      vertex -32.5 60 0
      vertex 37.5 60 0
    endloop
  endfacet
  facet normal 0 0 -1
    outer loop
      vertex -31.913 57.119 0
      vertex -32.5 60 0
      vertex -30 57.5 0
    endloop
  endfacet
  facet normal 0 0 -1
    outer loop
      vertex -30 57.5 0
      vertex -32.5 60 0
      vertex 30 57.5 0
    endloop
  endfacet
  facet normal 0 0 -1
    outer loop
      vertex 35 50.0825 0
      vertex 35 52.5 0
      vertex 37.5 60 0
    endloop
  endfacet
  facet normal 0 0 -1
    outer loop
      vertex 35 52.5 0
      vertex 34.619 54.413 0
      vertex 37.5 60 0
    endloop
  endfacet
  facet normal 0 0 -1
    outer loop
      vertex 34.619 54.413 0
      vertex 33.536 56.036 0
      vertex 37.5 60 0
    endloop
  endfacet
  facet normal 0 0 -1
    outer loop
      vertex 33.536 56.036 0
      vertex 31.913 57.119 0
      vertex 37.5 60 0
    endloop
  endfacet
  facet normal 0 0 -1
    outer loop
      vertex 31.913 57.119 0
      vertex 30 57.5 0
      vertex 37.5 60 0
    endloop
  endfacet
  facet normal 0 0 -1
    outer loop
      vertex -33.536 56.036 0
      vertex -34.413 59.619 0
      vertex -31.913 57.119 0
    endloop
  endfacet
  facet normal 0 0 -1
    outer loop
      vertex -34.619 54.413 0
      vertex -36.036 58.536 0
      vertex -33.536 56.036 0
    endloop
  endfacet
  facet normal 0 0 -1
    outer loop
      vertex -35 52.5 0
      vertex -37.119 56.913 0
      vertex -34.619 54.413 0
    endloop
  endfacet
  facet normal 0 0 -1
    outer loop
      vertex -35 -52.5 0
      vertex -37.5 55 0
      vertex -35 52.5 0
    endloop
  endfacet
  facet normal 0 0 -1
    outer loop
      vertex -37.5 -60 0
      vertex -37.5 55 0
      vertex -35 -52.5 0
    endloop
  endfacet
  facet normal 0 0 -1
    outer loop
      vertex -37.5 -60 0
      vertex -35 -52.5 0
      vertex -34.619 -54.413 0
    endloop
  endfacet
  facet normal 0 0 -1
    outer loop
      vertex -37.5 -60 0
      vertex -34.619 -54.413 0
      vertex -33.536 -56.036 0
    endloop
  endfacet
  facet normal 0 0 -1
    outer loop
      vertex -37.5 -60 0
      vertex -33.536 -56.036 0
      vertex -31.913 -57.119 0
    endloop
  endfacet
  facet normal 0 0 -1
    outer loop
      vertex -37.5 -60 0
      vertex -31.913 -57.119 0
      vertex -30 -57.5 0
    endloop
  endfacet
  facet normal 0 0 -1
    outer loop
      vertex -37.5 -60 0
      vertex -30 -57.5 0
      vertex 32.5 -60 0
    endloop
  endfacet
  facet normal 0 0 -1
    outer loop
      vertex 30 -57.5 0
      vertex 32.5 -60 0
      vertex -30 -57.5 0
    endloop
  endfacet
  facet normal 0 0 -1
    outer loop
      vertex 31.913 -57.119 0
      vertex 32.5 -60 0
      vertex 30 -57.5 0
    endloop
  endfacet
  facet normal 0 0 -1
    outer loop
      vertex 33.536 -56.036 0
      vertex 32.5 -60 0
      vertex 31.913 -57.119 0
    endloop
  endfacet
  facet normal 0 0 -1
    outer loop
      vertex 37.5 -48.789 0
      vertex 35 -52.5 0
      vertex 35 -48.764 0
    endloop
  endfacet
  facet normal 0 0 -1
    outer loop
      vertex 32.5 -60 0
      vertex 33.536 -56.036 0
      vertex 34.619 -54.413 0
    endloop
  endfacet
  facet normal 0 0 -1
    outer loop
      vertex 34.619 -54.413 0
      vertex 37.5 -48.789 0
      vertex 32.5 -60 0
    endloop
  endfacet
  facet normal 0 0 -1
    outer loop
      vertex 35 -52.5 0
      vertex 37.5 -48.789 0
      vertex 34.619 -54.413 0
    endloop
  endfacet
  facet normal 0 0 -1
    outer loop
      vertex 32.5 -60 0
      vertex 37.5 -48.789 0
      vertex 37.5 -55 0
    endloop
  endfacet
  facet normal 0 0 -1
    outer loop
      vertex 32.5 -60 0
      vertex 37.5 -55 0
      vertex 37.119 -56.913 0
    endloop
  endfacet
  facet normal 0 0 -1
    outer loop
      vertex 32.5 -60 0
      vertex 37.119 -56.913 0
      vertex 36.036 -58.536 0
    endloop
  endfacet
  facet normal 0 0 -1
    outer loop
      vertex 32.5 -60 0
      vertex 36.036 -58.536 0
      vertex 34.413 -59.619 0
    endloop
  endfacet
  facet normal 0 0 -1
    outer loop
      vertex 35 50.0825 0
      vertex 37.5 60 0
      vertex 37.5 50.0575 0
    endloop
  endfacet
  facet normal -1 0 0
    outer loop
      vertex -37.5 -60 0
      vertex -37.5 -60 20
      vertex -37.5 55 0
    endloop
  endfacet
  facet normal -1 0 0
    outer loop
      vertex -37.5 55 0
      vertex -37.5 -60 20
      vertex -37.5 55 20
    endloop
  endfacet
  facet normal 0 0 1
    outer loop
      vertex -25 -52.5 20
      vertex -37.5 -60 20
      vertex 32.5 -60 20
    endloop
  endfacet
  facet normal 0 0 1
    outer loop
      vertex 30 47.5 20
      vertex 37.119 -56.913 20
      vertex 37.5 -55 20
    endloop
  endfacet
  facet normal 0 0 1
    outer loop
      vertex -32.5 60 20
      vertex -37.5 55 20
      vertex 37.5 60 20
    endloop
  endfacet
  facet normal 0 0 1
    outer loop
      vertex -34.413 59.619 20
      vertex -37.5 55 20
      vertex -32.5 60 20
    endloop
  endfacet
  facet normal 0 0 1
    outer loop
      vertex -36.036 58.536 20
      vertex -37.5 55 20
      vertex -34.413 59.619 20
    endloop
  endfacet
  facet normal 0 0 1
    outer loop
      vertex -37.119 56.913 20
      vertex -37.5 55 20
      vertex -36.036 58.536 20
    endloop
  endfacet
  facet normal 0 0 1
    outer loop
      vertex -37.5 55 20
      vertex -37.5 -60 20
      vertex -30 -47.5 20
    endloop
  endfacet
  facet normal 0 0 1
    outer loop
      vertex -29.619 49.413 20
      vertex -37.5 55 20
      vertex -30 47.5 20
    endloop
  endfacet
  facet normal 0 0 1
    outer loop
      vertex -28.536 51.036 20
      vertex -37.5 55 20
      vertex -29.619 49.413 20
    endloop
  endfacet
  facet normal 0 0 1
    outer loop
      vertex -26.913 52.119 20
      vertex -37.5 55 20
      vertex -28.536 51.036 20
    endloop
  endfacet
  facet normal 0 0 1
    outer loop
      vertex -25 52.5 20
      vertex -37.5 55 20
      vertex -26.913 52.119 20
    endloop
  endfacet
  facet normal 0 0 1
    outer loop
      vertex 37.5 60 20
      vertex -37.5 55 20
      vertex -25 52.5 20
    endloop
  endfacet
  facet normal 0 0 1
    outer loop
      vertex 37.5 60 20
      vertex 25 52.5 20
      vertex 26.913 52.119 20
    endloop
  endfacet
  facet normal 0 0 1
    outer loop
      vertex 37.5 60 20
      vertex 26.913 52.119 20
      vertex 28.536 51.036 20
    endloop
  endfacet
  facet normal 0 0 1
    outer loop
      vertex 37.5 60 20
      vertex 28.536 51.036 20
      vertex 29.619 49.413 20
    endloop
  endfacet
  facet normal 0 0 1
    outer loop
      vertex 37.5 60 20
      vertex 30 47.5 20
      vertex 37.5 -55 20
    endloop
  endfacet
  facet normal 0 0 1
    outer loop
      vertex 37.5 60 20
      vertex 29.619 49.413 20
      vertex 30 47.5 20
    endloop
  endfacet
  facet normal 0 0 1
    outer loop
      vertex 37.119 -56.913 20
      vertex 30 -47.5 20
      vertex 36.036 -58.536 20
    endloop
  endfacet
  facet normal 0 0 1
    outer loop
      vertex 36.036 -58.536 20
      vertex 29.619 -49.413 20
      vertex 34.413 -59.619 20
    endloop
  endfacet
  facet normal 0 0 1
    outer loop
      vertex -25 52.5 20
      vertex 25 52.5 20
      vertex 37.5 60 20
    endloop
  endfacet
  facet normal 0 0 1
    outer loop
      vertex 34.413 -59.619 20
      vertex 28.536 -51.036 20
      vertex 32.5 -60 20
    endloop
  endfacet
  facet normal 0 0 1
    outer loop
      vertex 30 47.5 20
      vertex 30 -47.5 20
      vertex 37.119 -56.913 20
    endloop
  endfacet
  facet normal 0 0 1
    outer loop
      vertex 26.913 -52.119 20
      vertex 25 -52.5 20
      vertex 32.5 -60 20
    endloop
  endfacet
  facet normal 0 0 1
    outer loop
      vertex -26.913 -52.119 20
      vertex -37.5 -60 20
      vertex -25 -52.5 20
    endloop
  endfacet
  facet normal 0 0 1
    outer loop
      vertex -28.536 -51.036 20
      vertex -37.5 -60 20
      vertex -26.913 -52.119 20
    endloop
  endfacet
  facet normal 0 0 1
    outer loop
      vertex -29.619 -49.413 20
      vertex -37.5 -60 20
      vertex -28.536 -51.036 20
    endloop
  endfacet
  facet normal 0 0 1
    outer loop
      vertex -30 -47.5 20
      vertex -37.5 -60 20
      vertex -29.619 -49.413 20
    endloop
  endfacet
  facet normal 0 0 1
    outer loop
      vertex 30 -47.5 20
      vertex 29.619 -49.413 20
      vertex 36.036 -58.536 20
    endloop
  endfacet
  facet normal 0 0 1
    outer loop
      vertex 29.619 -49.413 20
      vertex 28.536 -51.036 20
      vertex 34.413 -59.619 20
    endloop
  endfacet
  facet normal 0 0 1
    outer loop
      vertex 28.536 -51.036 20
      vertex 26.913 -52.119 20
      vertex 32.5 -60 20
    endloop
  endfacet
  facet normal 0 0 1
    outer loop
      vertex 25 -52.5 20
      vertex -25 -52.5 20
      vertex 32.5 -60 20
    endloop
  endfacet
  facet normal 0 0 1
    outer loop
      vertex -30 -47.5 20
      vertex -30 47.5 20
      vertex -37.5 55 20
    endloop
  endfacet
  facet normal 0.195327 -0.980738 0
    outer loop
      vertex 32.5 -60 20
      vertex 32.5 -60 0
      vertex 34.413 -59.619 0
    endloop
  endfacet
  facet normal 0.195327 -0.980738 0
    outer loop
      vertex 34.413 -59.619 20
      vertex 32.5 -60 20
      vertex 34.413 -59.619 0
    endloop
  endfacet
  facet normal 0.555055 -0.831814 0
    outer loop
      vertex 34.413 -59.619 20
      vertex 34.413 -59.619 0
      vertex 36.036 -58.536 0
    endloop
  endfacet
  facet normal 0.555055 -0.831814 0
    outer loop
      vertex 36.036 -58.536 20
      vertex 34.413 -59.619 20
      vertex 36.036 -58.536 0
    endloop
  endfacet
  facet normal 0.831814 -0.555055 0
    outer loop
      vertex 36.036 -58.536 20
      vertex 36.036 -58.536 0
      vertex 37.119 -56.913 0
    endloop
  endfacet
  facet normal 0.831814 -0.555055 0
    outer loop
      vertex 37.119 -56.913 20
      vertex 36.036 -58.536 20
      vertex 37.119 -56.913 0
    endloop
  endfacet
  facet normal 0.980738 -0.195327 0
    outer loop
      vertex 37.119 -56.913 20
      vertex 37.119 -56.913 0
      vertex 37.5 -55 0
    endloop
  endfacet
  facet normal 0.980738 -0.195327 0
    outer loop
      vertex 37.5 -55 20
      vertex 37.119 -56.913 20
      vertex 37.5 -55 0
    endloop
  endfacet
  facet normal 1 0 0
    outer loop
      vertex 37.5 -55 20
      vertex 37.5 -55 0
      vertex 37.5 -48.789 0
    endloop
  endfacet
  facet normal 1 0 0
    outer loop
      vertex 37.5 -48.0367 2.77357
      vertex 37.5 -55 20
      vertex 37.5 -48.7265 0.962968
    endloop
  endfacet
  facet normal 1 0 0
    outer loop
      vertex 37.5 -48.7265 0.962968
      vertex 37.5 -55 20
      vertex 37.5 -48.789 0
    endloop
  endfacet
  facet normal 1 0 0
    outer loop
      vertex 37.5 -46.8438 4.30041
      vertex 37.5 -55 20
      vertex 37.5 -48.0367 2.77357
    endloop
  endfacet
  facet normal 1 0 0
    outer loop
      vertex 37.5 -45.2538 5.40783
      vertex 37.5 -55 20
      vertex 37.5 -46.8438 4.30041
    endloop
  endfacet
  facet normal 1 0 0
    outer loop
      vertex 37.5 -43.408 5.99741
      vertex 37.5 -55 20
      vertex 37.5 -45.2538 5.40783
    endloop
  endfacet
  facet normal 1 0 0
    outer loop
      vertex 37.5 -41.4705 6.01679
      vertex 37.5 -55 20
      vertex 37.5 -43.408 5.99741
    endloop
  endfacet
  facet normal 1 0 0
    outer loop
      vertex 37.5 -39.6133 5.46423
      vertex 37.5 -55 20
      vertex 37.5 -41.4705 6.01679
    endloop
  endfacet
  facet normal 1 0 0
    outer loop
      vertex 37.5 -38.0015 4.38883
      vertex 37.5 -55 20
      vertex 37.5 -39.6133 5.46423
    endloop
  endfacet
  facet normal 1 0 0
    outer loop
      vertex 37.5 33.1911 0
      vertex 37.5 -55 20
      vertex 37.5 -38.0015 4.38883
    endloop
  endfacet
  facet normal 1 0 0
    outer loop
      vertex 37.5 33.1911 0
      vertex 37.5 -38.0015 4.38883
      vertex 37.5 -36.7783 2.88615
    endloop
  endfacet
  facet normal 1 0 0
    outer loop
      vertex 37.5 33.1911 0
      vertex 37.5 -36.7783 2.88615
      vertex 37.5 -36.0524 1.0897
    endloop
  endfacet
  facet normal 1 0 0
    outer loop
      vertex 37.5 33.1911 0
      vertex 37.5 -36.0524 1.0897
      vertex 37.5 -35.9598 0
    endloop
  endfacet
  facet normal 1 0 0
    outer loop
      vertex 37.5 33.1344 0.829333
      vertex 37.5 -55 20
      vertex 37.5 33.1911 0
    endloop
  endfacet
  facet normal 1 0 0
    outer loop
      vertex 37.5 33.4577 2.77626
      vertex 37.5 -55 20
      vertex 37.5 33.1344 0.829333
    endloop
  endfacet
  facet normal 1 0 0
    outer loop
      vertex 37.5 34.2213 4.59616
      vertex 37.5 -55 20
      vertex 37.5 33.4577 2.77626
    endloop
  endfacet
  facet normal 1 0 0
    outer loop
      vertex 37.5 35.384 6.19092
      vertex 37.5 -55 20
      vertex 37.5 34.2213 4.59616
    endloop
  endfacet
  facet normal 1 0 0
    outer loop
      vertex 37.5 36.8832 7.47456
      vertex 37.5 -55 20
      vertex 37.5 35.384 6.19092
    endloop
  endfacet
  facet normal 1 0 0
    outer loop
      vertex 37.5 38.638 8.3779
      vertex 37.5 -55 20
      vertex 37.5 36.8832 7.47456
    endloop
  endfacet
  facet normal 1 0 0
    outer loop
      vertex 37.5 40.5538 8.85222
      vertex 37.5 -55 20
      vertex 37.5 38.638 8.3779
    endloop
  endfacet
  facet normal 1 0 0
    outer loop
      vertex 37.5 42.5274 8.87195
      vertex 37.5 -55 20
      vertex 37.5 40.5538 8.85222
    endloop
  endfacet
  facet normal 1 0 0
    outer loop
      vertex 37.5 60 20
      vertex 37.5 -55 20
      vertex 37.5 42.5274 8.87195
    endloop
  endfacet
  facet normal 1 0 0
    outer loop
      vertex 37.5 60 20
      vertex 37.5 42.5274 8.87195
      vertex 37.5 44.4523 8.43604
    endloop
  endfacet
  facet normal 1 0 0
    outer loop
      vertex 37.5 60 20
      vertex 37.5 44.4523 8.43604
      vertex 37.5 46.2248 7.56798
    endloop
  endfacet
  facet normal 1 0 0
    outer loop
      vertex 37.5 60 0
      vertex 37.5 46.2248 7.56798
      vertex 37.5 47.7493 6.31457
    endloop
  endfacet
  facet normal 1 0 0
    outer loop
      vertex 37.5 60 0
      vertex 37.5 47.7493 6.31457
      vertex 37.5 48.9437 4.74337
    endloop
  endfacet
  facet normal 1 0 0
    outer loop
      vertex 37.5 60 0
      vertex 37.5 48.9437 4.74337
      vertex 37.5 49.7435 2.93911
    endloop
  endfacet
  facet normal 1 0 0
    outer loop
      vertex 37.5 60 0
      vertex 37.5 49.7435 2.93911
      vertex 37.5 50.1057 0.999037
    endloop
  endfacet
  facet normal 1 0 0
    outer loop
      vertex 37.5 60 0
      vertex 37.5 50.1057 0.999037
      vertex 37.5 50.0575 0
    endloop
  endfacet
  facet normal 1 0 0
    outer loop
      vertex 37.5 60 20
      vertex 37.5 46.2248 7.56798
      vertex 37.5 60 0
    endloop
  endfacet
  facet normal 0.00997851 0.997851 -0.0647552
    outer loop
      vertex 37.5 -48.7265 0.962968
      vertex 37.5 -48.789 0
      vertex 35 -48.7015 0.962968
    endloop
  endfacet
  facet normal 0.00997851 0.997851 -0.0647552
    outer loop
      vertex 35 -48.7015 0.962968
      vertex 37.5 -48.789 0
      vertex 35 -48.764 0
    endloop
  endfacet
  facet normal -1 0 0
    outer loop
      vertex 35 38.663 8.3779
      vertex 35 -52.5 18
      vertex 35 40.5788 8.85222
    endloop
  endfacet
  facet normal -1 0 0
    outer loop
      vertex 35 52.5 18
      vertex 35 52.5 0
      vertex 35 50.1307 0.999037
    endloop
  endfacet
  facet normal -1 0 0
    outer loop
      vertex 35 52.5 18
      vertex 35 50.1307 0.999037
      vertex 35 49.7685 2.93911
    endloop
  endfacet
  facet normal -1 0 0
    outer loop
      vertex 35 52.5 18
      vertex 35 49.7685 2.93911
      vertex 35 48.9687 4.74337
    endloop
  endfacet
  facet normal -1 0 0
    outer loop
      vertex 35 52.5 18
      vertex 35 48.9687 4.74337
      vertex 35 47.7743 6.31457
    endloop
  endfacet
  facet normal -1 0 0
    outer loop
      vertex 35 52.5 18
      vertex 35 47.7743 6.31457
      vertex 35 46.2498 7.56798
    endloop
  endfacet
  facet normal -1 0 0
    outer loop
      vertex 35 52.5 18
      vertex 35 46.2498 7.56798
      vertex 35 44.4773 8.43604
    endloop
  endfacet
  facet normal -1 0 0
    outer loop
      vertex 35 52.5 18
      vertex 35 44.4773 8.43604
      vertex 35 42.5524 8.87195
    endloop
  endfacet
  facet normal -1 0 0
    outer loop
      vertex 35 52.5 18
      vertex 35 42.5524 8.87195
      vertex 35 -52.5 18
    endloop
  endfacet
  facet normal -1 0 0
    outer loop
      vertex 35 42.5524 8.87195
      vertex 35 40.5788 8.85222
      vertex 35 -52.5 18
    endloop
  endfacet
  facet normal -1 0 0
    outer loop
      vertex 35 36.9082 7.47456
      vertex 35 -52.5 18
      vertex 35 38.663 8.3779
    endloop
  endfacet
  facet normal -1 0 0
    outer loop
      vertex 35 35.409 6.19092
      vertex 35 -52.5 18
      vertex 35 36.9082 7.47456
    endloop
  endfacet
  facet normal -1 0 0
    outer loop
      vertex 35 34.2463 4.59616
      vertex 35 -52.5 18
      vertex 35 35.409 6.19092
    endloop
  endfacet
  facet normal -1 0 0
    outer loop
      vertex 35 33.4827 2.77626
      vertex 35 -52.5 18
      vertex 35 34.2463 4.59616
    endloop
  endfacet
  facet normal -1 0 0
    outer loop
      vertex 35 -39.5883 5.46423
      vertex 35 -52.5 18
      vertex 35 -37.9765 4.38883
    endloop
  endfacet
  facet normal -1 0 0
    outer loop
      vertex 35 -52.5 18
      vertex 35 33.4827 2.77626
      vertex 35 33.1594 0.829333
    endloop
  endfacet
  facet normal -1 0 0
    outer loop
      vertex 35 33.1594 0.829333
      vertex 35 33.2161 0
      vertex 35 -52.5 18
    endloop
  endfacet
  facet normal -1 0 0
    outer loop
      vertex 35 -36.0274 1.0897
      vertex 35 33.2161 0
      vertex 35 -35.9348 0
    endloop
  endfacet
  facet normal -1 0 0
    outer loop
      vertex 35 -36.7533 2.88615
      vertex 35 33.2161 0
      vertex 35 -36.0274 1.0897
    endloop
  endfacet
  facet normal -1 0 0
    outer loop
      vertex 35 -37.9765 4.38883
      vertex 35 33.2161 0
      vertex 35 -36.7533 2.88615
    endloop
  endfacet
  facet normal -1 0 0
    outer loop
      vertex 35 -52.5 18
      vertex 35 33.2161 0
      vertex 35 -37.9765 4.38883
    endloop
  endfacet
  facet normal -1 0 0
    outer loop
      vertex 35 -41.4455 6.01679
      vertex 35 -52.5 18
      vertex 35 -39.5883 5.46423
    endloop
  endfacet
  facet normal -1 0 0
    outer loop
      vertex 35 -43.383 5.99741
      vertex 35 -52.5 18
      vertex 35 -41.4455 6.01679
    endloop
  endfacet
  facet normal -1 0 0
    outer loop
      vertex 35 -52.5 18
      vertex 35 -43.383 5.99741
      vertex 35 -45.2288 5.40783
    endloop
  endfacet
  facet normal -1 0 0
    outer loop
      vertex 35 -45.2288 5.40783
      vertex 35 -46.8188 4.30041
      vertex 35 -52.5 18
    endloop
  endfacet
  facet normal -1 0 0
    outer loop
      vertex 35 -46.8188 4.30041
      vertex 35 -48.0117 2.77357
      vertex 35 -52.5 18
    endloop
  endfacet
  facet normal -1 0 0
    outer loop
      vertex 35 -48.0117 2.77357
      vertex 35 -48.7015 0.962968
      vertex 35 -52.5 18
    endloop
  endfacet
  facet normal -1 0 0
    outer loop
      vertex 35 -48.7015 0.962968
      vertex 35 -48.764 0
      vertex 35 -52.5 18
    endloop
  endfacet
  facet normal -1 0 0
    outer loop
      vertex 35 -52.5 18
      vertex 35 -48.764 0
      vertex 35 -52.5 0
    endloop
  endfacet
  facet normal -1 0 0
    outer loop
      vertex 35 50.1307 0.999037
      vertex 35 52.5 0
      vertex 35 50.0825 0
    endloop
  endfacet
  facet normal -0.980738 0.195327 0
    outer loop
      vertex 35 -52.5 18
      vertex 35 -52.5 0
      vertex 34.619 -54.413 18
    endloop
  endfacet
  facet normal -0.980738 0.195327 0
    outer loop
      vertex 34.619 -54.413 18
      vertex 35 -52.5 0
      vertex 34.619 -54.413 0
    endloop
  endfacet
  facet normal -0.831814 0.555055 0
    outer loop
      vertex 34.619 -54.413 18
      vertex 34.619 -54.413 0
      vertex 33.536 -56.036 18
    endloop
  endfacet
  facet normal -0.831814 0.555055 0
    outer loop
      vertex 33.536 -56.036 18
      vertex 34.619 -54.413 0
      vertex 33.536 -56.036 0
    endloop
  endfacet
  facet normal -0.555055 0.831814 0
    outer loop
      vertex 33.536 -56.036 18
      vertex 33.536 -56.036 0
      vertex 31.913 -57.119 18
    endloop
  endfacet
  facet normal -0.555055 0.831814 0
    outer loop
      vertex 31.913 -57.119 18
      vertex 33.536 -56.036 0
      vertex 31.913 -57.119 0
    endloop
  endfacet
  facet normal -0.195327 0.980738 0
    outer loop
      vertex 31.913 -57.119 18
      vertex 31.913 -57.119 0
      vertex 30 -57.5 18
    endloop
  endfacet
  facet normal -0.195327 0.980738 0
    outer loop
      vertex 30 -57.5 18
      vertex 31.913 -57.119 0
      vertex 30 -57.5 0
    endloop
  endfacet
  facet normal 0 1 0
    outer loop
      vertex 30 -57.5 18
      vertex 30 -57.5 0
      vertex -30 -57.5 18
    endloop
  endfacet
  facet normal 0 1 0
    outer loop
      vertex -30 -57.5 18
      vertex 30 -57.5 0
      vertex -30 -57.5 0
    endloop
  endfacet
  facet normal 0.195327 0.980738 0
    outer loop
      vertex -30 -57.5 18
      vertex -30 -57.5 0
      vertex -31.913 -57.119 18
    endloop
  endfacet
  facet normal 0.195327 0.980738 0
    outer loop
      vertex -31.913 -57.119 18
      vertex -30 -57.5 0
      vertex -31.913 -57.119 0
    endloop
  endfacet
  facet normal 0.555055 0.831814 0
    outer loop
      vertex -31.913 -57.119 18
      vertex -31.913 -57.119 0
      vertex -33.536 -56.036 18
    endloop
  endfacet
  facet normal 0.555055 0.831814 0
    outer loop
      vertex -33.536 -56.036 18
      vertex -31.913 -57.119 0
      vertex -33.536 -56.036 0
    endloop
  endfacet
  facet normal 0.831814 0.555055 0
    outer loop
      vertex -34.619 -54.413 18
      vertex -33.536 -56.036 18
      vertex -33.536 -56.036 0
    endloop
  endfacet
  facet normal 0.831814 0.555055 0
    outer loop
      vertex -34.619 -54.413 0
      vertex -34.619 -54.413 18
      vertex -33.536 -56.036 0
    endloop
  endfacet
  facet normal 0.980738 0.195327 0
    outer loop
      vertex -35 -52.5 18
      vertex -34.619 -54.413 18
      vertex -34.619 -54.413 0
    endloop
  endfacet
  facet normal 0.980738 0.195327 0
    outer loop
      vertex -35 -52.5 0
      vertex -35 -52.5 18
      vertex -34.619 -54.413 0
    endloop
  endfacet
  facet normal 1 0 0
    outer loop
      vertex -35 52.5 0
      vertex -35 52.5 18
      vertex -35 -52.5 18
    endloop
  endfacet
  facet normal 1 0 0
    outer loop
      vertex -35 -52.5 0
      vertex -35 52.5 0
      vertex -35 -52.5 18
    endloop
  endfacet
  facet normal 0.980738 -0.195327 0
    outer loop
      vertex -34.619 54.413 0
      vertex -34.619 54.413 18
      vertex -35 52.5 18
    endloop
  endfacet
  facet normal 0.980738 -0.195327 0
    outer loop
      vertex -35 52.5 0
      vertex -34.619 54.413 0
      vertex -35 52.5 18
    endloop
  endfacet
  facet normal 0.831814 -0.555055 0
    outer loop
      vertex -33.536 56.036 0
      vertex -33.536 56.036 18
      vertex -34.619 54.413 18
    endloop
  endfacet
  facet normal 0.831814 -0.555055 0
    outer loop
      vertex -34.619 54.413 0
      vertex -33.536 56.036 0
      vertex -34.619 54.413 18
    endloop
  endfacet
  facet normal 0.555055 -0.831814 0
    outer loop
      vertex -31.913 57.119 0
      vertex -31.913 57.119 18
      vertex -33.536 56.036 18
    endloop
  endfacet
  facet normal 0.555055 -0.831814 0
    outer loop
      vertex -33.536 56.036 0
      vertex -31.913 57.119 0
      vertex -33.536 56.036 18
    endloop
  endfacet
  facet normal 0.195327 -0.980738 0
    outer loop
      vertex -30 57.5 0
      vertex -30 57.5 18
      vertex -31.913 57.119 18
    endloop
  endfacet
  facet normal 0.195327 -0.980738 0
    outer loop
      vertex -31.913 57.119 0
      vertex -30 57.5 0
      vertex -31.913 57.119 18
    endloop
  endfacet
  facet normal 0 -1 0
    outer loop
      vertex 30 57.5 0
      vertex 30 57.5 18
      vertex -30 57.5 18
    endloop
  endfacet
  facet normal 0 -1 0
    outer loop
      vertex -30 57.5 0
      vertex 30 57.5 0
      vertex -30 57.5 18
    endloop
  endfacet
  facet normal -0.195327 -0.980738 0
    outer loop
      vertex 31.913 57.119 0
      vertex 31.913 57.119 18
      vertex 30 57.5 18
    endloop
  endfacet
  facet normal -0.195327 -0.980738 0
    outer loop
      vertex 30 57.5 0
      vertex 31.913 57.119 0
      vertex 30 57.5 18
    endloop
  endfacet
  facet normal -0.555055 -0.831814 0
    outer loop
      vertex 33.536 56.036 0
      vertex 33.536 56.036 18
      vertex 31.913 57.119 18
    endloop
  endfacet
  facet normal -0.555055 -0.831814 0
    outer loop
      vertex 31.913 57.119 0
      vertex 33.536 56.036 0
      vertex 31.913 57.119 18
    endloop
  endfacet
  facet normal -0.831814 -0.555055 0
    outer loop
      vertex 34.619 54.413 18
      vertex 33.536 56.036 18
      vertex 34.619 54.413 0
    endloop
  endfacet
  facet normal -0.831814 -0.555055 0
    outer loop
      vertex 34.619 54.413 0
      vertex 33.536 56.036 18
      vertex 33.536 56.036 0
    endloop
  endfacet
  facet normal -0.980738 -0.195327 0
    outer loop
      vertex 35 52.5 18
      vertex 34.619 54.413 18
      vertex 35 52.5 0
    endloop
  endfacet
  facet normal -0.980738 -0.195327 0
    outer loop
      vertex 35 52.5 0
      vertex 34.619 54.413 18
      vertex 34.619 54.413 0
    endloop
  endfacet
  facet normal -0.0099879 -0.99879 0.0481591
    outer loop
      vertex 37.5 50.0575 0
      vertex 37.5 50.1057 0.999037
      vertex 35 50.1307 0.999037
    endloop
  endfacet
  facet normal -0.0099879 -0.99879 0.0481591
    outer loop
      vertex 35 50.0825 0
      vertex 37.5 50.0575 0
      vertex 35 50.1307 0.999037
    endloop
  endfacet
  facet normal 0 1 0
    outer loop
      vertex -32.5 60 0
      vertex -32.5 60 20
      vertex 37.5 60 0
    endloop
  endfacet
  facet normal 0 1 0
    outer loop
      vertex 37.5 60 0
      vertex -32.5 60 20
      vertex 37.5 60 20
    endloop
  endfacet
  facet normal -0.195327 0.980738 0
    outer loop
      vertex -34.413 59.619 0
      vertex -34.413 59.619 20
      vertex -32.5 60 0
    endloop
  endfacet
  facet normal -0.195327 0.980738 0
    outer loop
      vertex -32.5 60 0
      vertex -34.413 59.619 20
      vertex -32.5 60 20
    endloop
  endfacet
  facet normal -0.555055 0.831814 0
    outer loop
      vertex -36.036 58.536 0
      vertex -36.036 58.536 20
      vertex -34.413 59.619 0
    endloop
  endfacet
  facet normal -0.555055 0.831814 0
    outer loop
      vertex -34.413 59.619 0
      vertex -36.036 58.536 20
      vertex -34.413 59.619 20
    endloop
  endfacet
  facet normal -0.831814 0.555055 0
    outer loop
      vertex -37.119 56.913 0
      vertex -37.119 56.913 20
      vertex -36.036 58.536 0
    endloop
  endfacet
  facet normal -0.831814 0.555055 0
    outer loop
      vertex -36.036 58.536 0
      vertex -37.119 56.913 20
      vertex -36.036 58.536 20
    endloop
  endfacet
  facet normal -0.980738 0.195327 0
    outer loop
      vertex -37.5 55 0
      vertex -37.5 55 20
      vertex -37.119 56.913 0
    endloop
  endfacet
  facet normal -0.980738 0.195327 0
    outer loop
      vertex -37.119 56.913 0
      vertex -37.5 55 20
      vertex -37.119 56.913 20
    endloop
  endfacet
  facet normal 0.980738 0.195327 0
    outer loop
      vertex -30 -47.5 20
      vertex -29.619 -49.413 20
      vertex -29.619 -49.413 18
    endloop
  endfacet
  facet normal 0.980738 0.195327 0
    outer loop
      vertex -30 -47.5 18
      vertex -30 -47.5 20
      vertex -29.619 -49.413 18
    endloop
  endfacet
  facet normal 1 0 0
    outer loop
      vertex -30 47.5 18
      vertex -30 47.5 20
      vertex -30 -47.5 20
    endloop
  endfacet
  facet normal 1 0 0
    outer loop
      vertex -30 -47.5 18
      vertex -30 47.5 18
      vertex -30 -47.5 20
    endloop
  endfacet
  facet normal 0.831814 0.555055 0
    outer loop
      vertex -29.619 -49.413 20
      vertex -28.536 -51.036 20
      vertex -28.536 -51.036 18
    endloop
  endfacet
  facet normal 0.831814 0.555055 0
    outer loop
      vertex -29.619 -49.413 18
      vertex -29.619 -49.413 20
      vertex -28.536 -51.036 18
    endloop
  endfacet
  facet normal 0.555055 0.831814 0
    outer loop
      vertex -26.913 -52.119 20
      vertex -26.913 -52.119 18
      vertex -28.536 -51.036 20
    endloop
  endfacet
  facet normal 0.555055 0.831814 0
    outer loop
      vertex -28.536 -51.036 20
      vertex -26.913 -52.119 18
      vertex -28.536 -51.036 18
    endloop
  endfacet
  facet normal 0.195327 0.980738 0
    outer loop
      vertex -25 -52.5 20
      vertex -25 -52.5 18
      vertex -26.913 -52.119 20
    endloop
  endfacet
  facet normal 0.195327 0.980738 0
    outer loop
      vertex -26.913 -52.119 20
      vertex -25 -52.5 18
      vertex -26.913 -52.119 18
    endloop
  endfacet
  facet normal 0 1 0
    outer loop
      vertex 25 -52.5 20
      vertex 25 -52.5 18
      vertex -25 -52.5 20
    endloop
  endfacet
  facet normal 0 1 0
    outer loop
      vertex -25 -52.5 20
      vertex 25 -52.5 18
      vertex -25 -52.5 18
    endloop
  endfacet
  facet normal -0.195327 0.980738 0
    outer loop
      vertex 26.913 -52.119 20
      vertex 26.913 -52.119 18
      vertex 25 -52.5 20
    endloop
  endfacet
  facet normal -0.195327 0.980738 0
    outer loop
      vertex 25 -52.5 20
      vertex 26.913 -52.119 18
      vertex 25 -52.5 18
    endloop
  endfacet
  facet normal -0.555055 0.831814 0
    outer loop
      vertex 28.536 -51.036 20
      vertex 28.536 -51.036 18
      vertex 26.913 -52.119 20
    endloop
  endfacet
  facet normal -0.555055 0.831814 0
    outer loop
      vertex 26.913 -52.119 20
      vertex 28.536 -51.036 18
      vertex 26.913 -52.119 18
    endloop
  endfacet
  facet normal -0.831814 0.555055 0
    outer loop
      vertex 29.619 -49.413 20
      vertex 29.619 -49.413 18
      vertex 28.536 -51.036 20
    endloop
  endfacet
  facet normal -0.831814 0.555055 0
    outer loop
      vertex 28.536 -51.036 20
      vertex 29.619 -49.413 18
      vertex 28.536 -51.036 18
    endloop
  endfacet
  facet normal -0.980738 0.195327 0
    outer loop
      vertex 30 -47.5 20
      vertex 30 -47.5 18
      vertex 29.619 -49.413 20
    endloop
  endfacet
  facet normal -0.980738 0.195327 0
    outer loop
      vertex 29.619 -49.413 20
      vertex 30 -47.5 18
      vertex 29.619 -49.413 18
    endloop
  endfacet
  facet normal -1 0 0
    outer loop
      vertex 30 47.5 20
      vertex 30 47.5 18
      vertex 30 -47.5 20
    endloop
  endfacet
  facet normal -1 0 0
    outer loop
      vertex 30 -47.5 20
      vertex 30 47.5 18
      vertex 30 -47.5 18
    endloop
  endfacet
  facet normal -0.980738 -0.195327 0
    outer loop
      vertex 30 47.5 20
      vertex 29.619 49.413 20
      vertex 30 47.5 18
    endloop
  endfacet
  facet normal -0.980738 -0.195327 0
    outer loop
      vertex 30 47.5 18
      vertex 29.619 49.413 20
      vertex 29.619 49.413 18
    endloop
  endfacet
  facet normal -0.831814 -0.555055 0
    outer loop
      vertex 29.619 49.413 20
      vertex 28.536 51.036 20
      vertex 29.619 49.413 18
    endloop
  endfacet
  facet normal -0.831814 -0.555055 0
    outer loop
      vertex 29.619 49.413 18
      vertex 28.536 51.036 20
      vertex 28.536 51.036 18
    endloop
  endfacet
  facet normal -0.555055 -0.831814 0
    outer loop
      vertex 28.536 51.036 18
      vertex 28.536 51.036 20
      vertex 26.913 52.119 20
    endloop
  endfacet
  facet normal -0.555055 -0.831814 0
    outer loop
      vertex 26.913 52.119 18
      vertex 28.536 51.036 18
      vertex 26.913 52.119 20
    endloop
  endfacet
  facet normal -0.195327 -0.980738 0
    outer loop
      vertex 26.913 52.119 18
      vertex 26.913 52.119 20
      vertex 25 52.5 20
    endloop
  endfacet
  facet normal -0.195327 -0.980738 0
    outer loop
      vertex 25 52.5 18
      vertex 26.913 52.119 18
      vertex 25 52.5 20
    endloop
  endfacet
  facet normal 0 -1 0
    outer loop
      vertex 25 52.5 18
      vertex 25 52.5 20
      vertex -25 52.5 20
    endloop
  endfacet
  facet normal 0 -1 0
    outer loop
      vertex -25 52.5 18
      vertex 25 52.5 18
      vertex -25 52.5 20
    endloop
  endfacet
  facet normal 0.195327 -0.980738 0
    outer loop
      vertex -25 52.5 18
      vertex -25 52.5 20
      vertex -26.913 52.119 20
    endloop
  endfacet
  facet normal 0.195327 -0.980738 0
    outer loop
      vertex -26.913 52.119 18
      vertex -25 52.5 18
      vertex -26.913 52.119 20
    endloop
  endfacet
  facet normal 0.555055 -0.831814 0
    outer loop
      vertex -26.913 52.119 18
      vertex -26.913 52.119 20
      vertex -28.536 51.036 20
    endloop
  endfacet
  facet normal 0.555055 -0.831814 0
    outer loop
      vertex -28.536 51.036 18
      vertex -26.913 52.119 18
      vertex -28.536 51.036 20
    endloop
  endfacet
  facet normal 0.831814 -0.555055 0
    outer loop
      vertex -28.536 51.036 18
      vertex -28.536 51.036 20
      vertex -29.619 49.413 20
    endloop
  endfacet
  facet normal 0.831814 -0.555055 0
    outer loop
      vertex -29.619 49.413 18
      vertex -28.536 51.036 18
      vertex -29.619 49.413 20
    endloop
  endfacet
  facet normal 0.980738 -0.195327 0
    outer loop
      vertex -29.619 49.413 18
      vertex -29.619 49.413 20
      vertex -30 47.5 20
    endloop
  endfacet
  facet normal 0.980738 -0.195327 0
    outer loop
      vertex -30 47.5 18
      vertex -29.619 49.413 18
      vertex -30 47.5 20
    endloop
  endfacet
  facet normal -0.00982973 -0.982973 -0.183487
    outer loop
      vertex 35 50.1307 0.999037
      vertex 37.5 50.1057 0.999037
      vertex 37.5 49.7435 2.93911
    endloop
  endfacet
  facet normal -0.00982973 -0.982973 -0.183487
    outer loop
      vertex 35 49.7685 2.93911
      vertex 35 50.1307 0.999037
      vertex 37.5 49.7435 2.93911
    endloop
  endfacet
  facet normal -0.00914164 -0.914164 -0.405242
    outer loop
      vertex 35 49.7685 2.93911
      vertex 37.5 49.7435 2.93911
      vertex 37.5 48.9437 4.74337
    endloop
  endfacet
  facet normal -0.00914164 -0.914164 -0.405242
    outer loop
      vertex 35 48.9687 4.74337
      vertex 35 49.7685 2.93911
      vertex 37.5 48.9437 4.74337
    endloop
  endfacet
  facet normal -0.00796072 -0.796072 -0.60515
    outer loop
      vertex 35 48.9687 4.74337
      vertex 37.5 48.9437 4.74337
      vertex 37.5 47.7493 6.31457
    endloop
  endfacet
  facet normal -0.00796072 -0.796072 -0.60515
    outer loop
      vertex 35 47.7743 6.31457
      vertex 35 48.9687 4.74337
      vertex 37.5 47.7493 6.31457
    endloop
  endfacet
  facet normal -0.00635063 -0.635063 -0.772434
    outer loop
      vertex 37.5 47.7493 6.31457
      vertex 37.5 46.2248 7.56798
      vertex 35 47.7743 6.31457
    endloop
  endfacet
  facet normal -0.00635063 -0.635063 -0.772434
    outer loop
      vertex 35 47.7743 6.31457
      vertex 37.5 46.2248 7.56798
      vertex 35 46.2498 7.56798
    endloop
  endfacet
  facet normal -0.00439819 -0.439819 -0.898076
    outer loop
      vertex 37.5 46.2248 7.56798
      vertex 37.5 44.4523 8.43604
      vertex 35 46.2498 7.56798
    endloop
  endfacet
  facet normal -0.00439819 -0.439819 -0.898076
    outer loop
      vertex 35 46.2498 7.56798
      vertex 37.5 44.4523 8.43604
      vertex 35 44.4773 8.43604
    endloop
  endfacet
  facet normal -0.00220864 -0.220864 -0.975302
    outer loop
      vertex 37.5 44.4523 8.43604
      vertex 37.5 42.5274 8.87195
      vertex 35 44.4773 8.43604
    endloop
  endfacet
  facet normal -0.00220864 -0.220864 -0.975302
    outer loop
      vertex 35 44.4773 8.43604
      vertex 37.5 42.5274 8.87195
      vertex 35 42.5524 8.87195
    endloop
  endfacet
  facet normal 9.999e-05 0.009999 -0.99995
    outer loop
      vertex 37.5 42.5274 8.87195
      vertex 37.5 40.5538 8.85222
      vertex 35 42.5524 8.87195
    endloop
  endfacet
  facet normal 9.999e-05 0.009999 -0.99995
    outer loop
      vertex 35 42.5524 8.87195
      vertex 37.5 40.5538 8.85222
      vertex 35 40.5788 8.85222
    endloop
  endfacet
  facet normal 0.00240322 0.240322 -0.97069
    outer loop
      vertex 37.5 40.5538 8.85222
      vertex 37.5 38.638 8.3779
      vertex 35 40.5788 8.85222
    endloop
  endfacet
  facet normal 0.00240322 0.240322 -0.97069
    outer loop
      vertex 35 40.5788 8.85222
      vertex 37.5 38.638 8.3779
      vertex 35 38.663 8.3779
    endloop
  endfacet
  facet normal 0.0045769 0.45769 -0.8891
    outer loop
      vertex 37.5 38.638 8.3779
      vertex 37.5 36.8832 7.47456
      vertex 35 38.663 8.3779
    endloop
  endfacet
  facet normal 0.0045769 0.45769 -0.8891
    outer loop
      vertex 35 38.663 8.3779
      vertex 37.5 36.8832 7.47456
      vertex 35 36.9082 7.47456
    endloop
  endfacet
  facet normal 0.00650383 0.650383 -0.759579
    outer loop
      vertex 37.5 36.8832 7.47456
      vertex 37.5 35.384 6.19092
      vertex 35 36.9082 7.47456
    endloop
  endfacet
  facet normal 0.00650383 0.650383 -0.759579
    outer loop
      vertex 35 36.9082 7.47456
      vertex 37.5 35.384 6.19092
      vertex 35 35.409 6.19092
    endloop
  endfacet
  facet normal 0.00808014 0.808014 -0.589108
    outer loop
      vertex 37.5 35.384 6.19092
      vertex 37.5 34.2213 4.59616
      vertex 35 35.409 6.19092
    endloop
  endfacet
  facet normal 0.00808014 0.808014 -0.589108
    outer loop
      vertex 35 35.409 6.19092
      vertex 37.5 34.2213 4.59616
      vertex 35 34.2463 4.59616
    endloop
  endfacet
  facet normal 0.00922085 0.922085 -0.386878
    outer loop
      vertex 37.5 34.2213 4.59616
      vertex 37.5 33.4577 2.77626
      vertex 35 34.2463 4.59616
    endloop
  endfacet
  facet normal 0.00922085 0.922085 -0.386878
    outer loop
      vertex 35 34.2463 4.59616
      vertex 37.5 33.4577 2.77626
      vertex 35 33.4827 2.77626
    endloop
  endfacet
  facet normal 0.00986446 0.986446 -0.163792
    outer loop
      vertex 37.5 33.4577 2.77626
      vertex 37.5 33.1344 0.829333
      vertex 35 33.4827 2.77626
    endloop
  endfacet
  facet normal 0.00986446 0.986446 -0.163792
    outer loop
      vertex 35 33.4827 2.77626
      vertex 37.5 33.1344 0.829333
      vertex 35 33.1594 0.829333
    endloop
  endfacet
  facet normal 0.00997627 0.997627 0.0681243
    outer loop
      vertex 37.5 33.1911 0
      vertex 35 33.2161 0
      vertex 37.5 33.1344 0.829333
    endloop
  endfacet
  facet normal 0.00997627 0.997627 0.0681243
    outer loop
      vertex 37.5 33.1344 0.829333
      vertex 35 33.2161 0
      vertex 35 33.1594 0.829333
    endloop
  endfacet
  facet normal 0 0 -1
    outer loop
      vertex 35 -35.9348 0
      vertex 35 33.2161 0
      vertex 37.5 -35.9598 0
    endloop
  endfacet
  facet normal 0 0 -1
    outer loop
      vertex 37.5 -35.9598 0
      vertex 35 33.2161 0
      vertex 37.5 33.1911 0
    endloop
  endfacet
  facet normal -0.00996357 -0.996357 -0.0846983
    outer loop
      vertex 35 -35.9348 0
      vertex 37.5 -35.9598 0
      vertex 37.5 -36.0524 1.0897
    endloop
  endfacet
  facet normal -0.00996357 -0.996357 -0.0846983
    outer loop
      vertex 35 -36.0274 1.0897
      vertex 35 -35.9348 0
      vertex 37.5 -36.0524 1.0897
    endloop
  endfacet
  facet normal -0.00927128 -0.927128 -0.374631
    outer loop
      vertex 35 -36.0274 1.0897
      vertex 37.5 -36.0524 1.0897
      vertex 37.5 -36.7783 2.88615
    endloop
  endfacet
  facet normal -0.00927128 -0.927128 -0.374631
    outer loop
      vertex 35 -36.7533 2.88615
      vertex 35 -36.0274 1.0897
      vertex 37.5 -36.7783 2.88615
    endloop
  endfacet
  facet normal -0.00775519 -0.775519 -0.631276
    outer loop
      vertex 35 -36.7533 2.88615
      vertex 37.5 -36.7783 2.88615
      vertex 37.5 -38.0015 4.38883
    endloop
  endfacet
  facet normal -0.00775519 -0.775519 -0.631276
    outer loop
      vertex 35 -37.9765 4.38883
      vertex 35 -36.7533 2.88615
      vertex 37.5 -38.0015 4.38883
    endloop
  endfacet
  facet normal -0.00555002 -0.555002 -0.83183
    outer loop
      vertex 37.5 -38.0015 4.38883
      vertex 37.5 -39.6133 5.46423
      vertex 35 -37.9765 4.38883
    endloop
  endfacet
  facet normal -0.00555002 -0.555002 -0.83183
    outer loop
      vertex 35 -37.9765 4.38883
      vertex 37.5 -39.6133 5.46423
      vertex 35 -39.5883 5.46423
    endloop
  endfacet
  facet normal -0.00285171 -0.285171 -0.958473
    outer loop
      vertex 37.5 -39.6133 5.46423
      vertex 37.5 -41.4705 6.01679
      vertex 35 -39.5883 5.46423
    endloop
  endfacet
  facet normal -0.00285171 -0.285171 -0.958473
    outer loop
      vertex 35 -39.5883 5.46423
      vertex 37.5 -41.4705 6.01679
      vertex 35 -41.4455 6.01679
    endloop
  endfacet
  facet normal 9.999e-05 0.009999 -0.99995
    outer loop
      vertex 37.5 -41.4705 6.01679
      vertex 37.5 -43.408 5.99741
      vertex 35 -41.4455 6.01679
    endloop
  endfacet
  facet normal 9.999e-05 0.009999 -0.99995
    outer loop
      vertex 35 -41.4455 6.01679
      vertex 37.5 -43.408 5.99741
      vertex 35 -43.383 5.99741
    endloop
  endfacet
  facet normal 0.0030428 0.30428 -0.952578
    outer loop
      vertex 37.5 -43.408 5.99741
      vertex 37.5 -45.2538 5.40783
      vertex 35 -43.383 5.99741
    endloop
  endfacet
  facet normal 0.0030428 0.30428 -0.952578
    outer loop
      vertex 35 -43.383 5.99741
      vertex 37.5 -45.2538 5.40783
      vertex 35 -45.2288 5.40783
    endloop
  endfacet
  facet normal 0.00571525 0.571525 -0.820565
    outer loop
      vertex 37.5 -45.2538 5.40783
      vertex 37.5 -46.8438 4.30041
      vertex 35 -45.2288 5.40783
    endloop
  endfacet
  facet normal 0.00571525 0.571525 -0.820565
    outer loop
      vertex 35 -45.2288 5.40783
      vertex 37.5 -46.8438 4.30041
      vertex 35 -46.8188 4.30041
    endloop
  endfacet
  facet normal 0.00787988 0.787988 -0.615641
    outer loop
      vertex 37.5 -46.8438 4.30041
      vertex 37.5 -48.0367 2.77357
      vertex 35 -46.8188 4.30041
    endloop
  endfacet
  facet normal 0.00787988 0.787988 -0.615641
    outer loop
      vertex 35 -46.8188 4.30041
      vertex 37.5 -48.0367 2.77357
      vertex 35 -48.0117 2.77357
    endloop
  endfacet
  facet normal 0.00934434 0.934434 -0.356014
    outer loop
      vertex 37.5 -48.0367 2.77357
      vertex 37.5 -48.7265 0.962968
      vertex 35 -48.0117 2.77357
    endloop
  endfacet
  facet normal 0.00934434 0.934434 -0.356014
    outer loop
      vertex 35 -48.0117 2.77357
      vertex 37.5 -48.7265 0.962968
      vertex 35 -48.7015 0.962968
    endloop
  endfacet
  facet normal 0 0 -1
    outer loop
      vertex -34.619 54.413 18
      vertex -33.536 56.036 18
      vertex -35 52.5 18
    endloop
  endfacet
  facet normal 0 0 -1
    outer loop
      vertex -35 52.5 18
      vertex -33.536 56.036 18
      vertex -31.913 57.119 18
    endloop
  endfacet
  facet normal 0 0 -1
    outer loop
      vertex -35 52.5 18
      vertex -31.913 57.119 18
      vertex -30 57.5 18
    endloop
  endfacet
  facet normal 0 0 -1
    outer loop
      vertex -35 52.5 18
      vertex -30 57.5 18
      vertex 30 57.5 18
    endloop
  endfacet
  facet normal 0 0 -1
    outer loop
      vertex -35 52.5 18
      vertex 30 57.5 18
      vertex 31.913 57.119 18
    endloop
  endfacet
  facet normal 0 0 -1
    outer loop
      vertex -35 52.5 18
      vertex 31.913 57.119 18
      vertex 33.536 56.036 18
    endloop
  endfacet
  facet normal 0 0 -1
    outer loop
      vertex -35 52.5 18
      vertex 33.536 56.036 18
      vertex 34.619 54.413 18
    endloop
  endfacet
  facet normal 0 0 -1
    outer loop
      vertex -35 52.5 18
      vertex 34.619 54.413 18
      vertex -25 52.5 18
    endloop
  endfacet
  facet normal 0 0 -1
    outer loop
      vertex 30 47.5 18
      vertex 35 52.5 18
      vertex 35 -52.5 18
    endloop
  endfacet
  facet normal 0 0 -1
    outer loop
      vertex 29.619 -49.413 18
      vertex 34.619 -54.413 18
      vertex 33.536 -56.036 18
    endloop
  endfacet
  facet normal 0 0 -1
    outer loop
      vertex 28.536 -51.036 18
      vertex 33.536 -56.036 18
      vertex 31.913 -57.119 18
    endloop
  endfacet
  facet normal 0 0 -1
    outer loop
      vertex 26.913 -52.119 18
      vertex 31.913 -57.119 18
      vertex 30 -57.5 18
    endloop
  endfacet
  facet normal 0 0 -1
    outer loop
      vertex -25 -52.5 18
      vertex 30 -57.5 18
      vertex -30 -57.5 18
    endloop
  endfacet
  facet normal 0 0 -1
    outer loop
      vertex -35 52.5 18
      vertex -30 -57.5 18
      vertex -31.913 -57.119 18
    endloop
  endfacet
  facet normal 0 0 -1
    outer loop
      vertex -35 52.5 18
      vertex -31.913 -57.119 18
      vertex -33.536 -56.036 18
    endloop
  endfacet
  facet normal 0 0 -1
    outer loop
      vertex -35 52.5 18
      vertex -33.536 -56.036 18
      vertex -34.619 -54.413 18
    endloop
  endfacet
  facet normal 0 0 -1
    outer loop
      vertex -35 52.5 18
      vertex -34.619 -54.413 18
      vertex -35 -52.5 18
    endloop
  endfacet
  facet normal 0 0 -1
    outer loop
      vertex 28.536 -51.036 18
      vertex 31.913 -57.119 18
      vertex 26.913 -52.119 18
    endloop
  endfacet
  facet normal 0 0 -1
    outer loop
      vertex -35 52.5 18
      vertex -30 -47.5 18
      vertex -30 -57.5 18
    endloop
  endfacet
  facet normal 0 0 -1
    outer loop
      vertex -30 -47.5 18
      vertex -29.619 -49.413 18
      vertex -30 -57.5 18
    endloop
  endfacet
  facet normal 0 0 -1
    outer loop
      vertex -29.619 -49.413 18
      vertex -28.536 -51.036 18
      vertex -30 -57.5 18
    endloop
  endfacet
  facet normal 0 0 -1
    outer loop
      vertex -28.536 -51.036 18
      vertex -26.913 -52.119 18
      vertex -30 -57.5 18
    endloop
  endfacet
  facet normal 0 0 -1
    outer loop
      vertex -26.913 -52.119 18
      vertex -25 -52.5 18
      vertex -30 -57.5 18
    endloop
  endfacet
  facet normal 0 0 -1
    outer loop
      vertex 25 -52.5 18
      vertex 30 -57.5 18
      vertex -25 -52.5 18
    endloop
  endfacet
  facet normal 0 0 -1
    outer loop
      vertex 30 -47.5 18
      vertex 34.619 -54.413 18
      vertex 29.619 -49.413 18
    endloop
  endfacet
  facet normal 0 0 -1
    outer loop
      vertex 29.619 49.413 18
      vertex 35 52.5 18
      vertex 30 47.5 18
    endloop
  endfacet
  facet normal 0 0 -1
    outer loop
      vertex -26.913 52.119 18
      vertex -35 52.5 18
      vertex -25 52.5 18
    endloop
  endfacet
  facet normal 0 0 -1
    outer loop
      vertex 28.536 51.036 18
      vertex 35 52.5 18
      vertex 29.619 49.413 18
    endloop
  endfacet
  facet normal 0 0 -1
    outer loop
      vertex 26.913 52.119 18
      vertex 35 52.5 18
      vertex 28.536 51.036 18
    endloop
  endfacet
  facet normal 0 0 -1
    outer loop
      vertex 25 52.5 18
      vertex 35 52.5 18
      vertex 26.913 52.119 18
    endloop
  endfacet
  facet normal 0 0 -1
    outer loop
      vertex 34.619 54.413 18
      vertex 35 52.5 18
      vertex 25 52.5 18
    endloop
  endfacet
  facet normal 0 0 -1
    outer loop
      vertex 34.619 54.413 18
      vertex 25 52.5 18
      vertex -25 52.5 18
    endloop
  endfacet
  facet normal 0 0 -1
    outer loop
      vertex -28.536 51.036 18
      vertex -35 52.5 18
      vertex -26.913 52.119 18
    endloop
  endfacet
  facet normal 0 0 -1
    outer loop
      vertex -35 52.5 18
      vertex -28.536 51.036 18
      vertex -29.619 49.413 18
    endloop
  endfacet
  facet normal 0 0 -1
    outer loop
      vertex -35 52.5 18
      vertex -29.619 49.413 18
      vertex -30 47.5 18
    endloop
  endfacet
  facet normal 0 0 -1
    outer loop
      vertex -30 -47.5 18
      vertex -35 52.5 18
      vertex -30 47.5 18
    endloop
  endfacet
  facet normal 0 0 -1
    outer loop
      vertex 30 47.5 18
      vertex 35 -52.5 18
      vertex 34.619 -54.413 18
    endloop
  endfacet
  facet normal 0 0 -1
    outer loop
      vertex 30 47.5 18
      vertex 34.619 -54.413 18
      vertex 30 -47.5 18
    endloop
  endfacet
  facet normal 0 0 -1
    outer loop
      vertex 29.619 -49.413 18
      vertex 33.536 -56.036 18
      vertex 28.536 -51.036 18
    endloop
  endfacet
  facet normal 0 0 -1
    outer loop
      vertex 26.913 -52.119 18
      vertex 30 -57.5 18
      vertex 25 -52.5 18
    endloop
  endfacet
endsolid OpenSCAD_Model
