solid OpenSCAD_Model
  facet normal -0.980738 -0.195327 0
    outer loop
      vertex -37.5 -60 0
      vertex -37.119 -61.913 0
      vertex -37.5 -60 20
    endloop
  endfacet
  facet normal -0.980738 -0.195327 0
    outer loop
      vertex -37.5 -60 20
      vertex -37.119 -61.913 0
      vertex -37.119 -61.913 20
    endloop
  endfacet
  facet normal 0 0 -1
    outer loop
      vertex -37.5 -60 0
      vertex -37.5 60 0
      vertex -37.119 -61.913 0
    endloop
  endfacet
  facet normal 0 0 -1
    outer loop
      vertex -37.119 -61.913 0
      vertex -37.5 60 0
      vertex -37.119 61.913 0
    endloop
  endfacet
  facet normal 0 0 -1
    outer loop
      vertex -37.119 -61.913 0
      vertex -37.119 61.913 0
      vertex -36.036 63.536 0
    endloop
  endfacet
  facet normal 0 0 -1
    outer loop
      vertex -34.619 59.413 0
      vertex -36.036 63.536 0
      vertex -34.413 64.619 0
    endloop
  endfacet
  facet normal 0 0 -1
    outer loop
      vertex -33.536 61.036 0
      vertex -34.413 64.619 0
      vertex -32.5 65 0
    endloop
  endfacet
  facet normal 0 0 -1
    outer loop
      vertex 30 62.5 0
      vertex -32.5 65 0
      vertex 32.5 65 0
    endloop
  endfacet
  facet normal 0 0 -1
    outer loop
      vertex 31.913 62.119 0
      vertex 32.5 65 0
      vertex 34.413 64.619 0
    endloop
  endfacet
  facet normal 0 0 -1
    outer loop
      vertex 33.536 61.036 0
      vertex 34.413 64.619 0
      vertex 36.036 63.536 0
    endloop
  endfacet
  facet normal 0 0 -1
    outer loop
      vertex 34.619 59.413 0
      vertex 36.036 63.536 0
      vertex 37.119 61.913 0
    endloop
  endfacet
  facet normal 0 0 -1
    outer loop
      vertex 35 57.5 0
      vertex 37.119 61.913 0
      vertex 37.5 60 0
    endloop
  endfacet
  facet normal 0 0 -1
    outer loop
      vertex 35 49.5967 0
      vertex 37.5 60 0
      vertex 37.5 49.5717 0
    endloop
  endfacet
  facet normal 0 0 -1
    outer loop
      vertex 34.619 59.413 0
      vertex 37.119 61.913 0
      vertex 35 57.5 0
    endloop
  endfacet
  facet normal 0 0 -1
    outer loop
      vertex 33.536 61.036 0
      vertex 36.036 63.536 0
      vertex 34.619 59.413 0
    endloop
  endfacet
  facet normal 0 0 -1
    outer loop
      vertex 31.913 62.119 0
      vertex 34.413 64.619 0
      vertex 33.536 61.036 0
    endloop
  endfacet
  facet normal 0 0 -1
    outer loop
      vertex 30 62.5 0
      vertex 32.5 65 0
      vertex 31.913 62.119 0
    endloop
  endfacet
  facet normal 0 0 -1
    outer loop
      vertex -30 62.5 0
      vertex -32.5 65 0
      vertex 30 62.5 0
    endloop
  endfacet
  facet normal 0 0 -1
    outer loop
      vertex -33.536 61.036 0
      vertex -32.5 65 0
      vertex -31.913 62.119 0
    endloop
  endfacet
  facet normal 0 0 -1
    outer loop
      vertex -31.913 62.119 0
      vertex -32.5 65 0
      vertex -30 62.5 0
    endloop
  endfacet
  facet normal 0 0 -1
    outer loop
      vertex -34.619 59.413 0
      vertex -34.413 64.619 0
      vertex -33.536 61.036 0
    endloop
  endfacet
  facet normal 0 0 -1
    outer loop
      vertex -35 57.5 0
      vertex -36.036 63.536 0
      vertex -34.619 59.413 0
    endloop
  endfacet
  facet normal 0 0 -1
    outer loop
      vertex -35 -57.5 0
      vertex -37.119 -61.913 0
      vertex -35 57.5 0
    endloop
  endfacet
  facet normal 0 0 -1
    outer loop
      vertex -37.119 -61.913 0
      vertex -36.036 63.536 0
      vertex -35 57.5 0
    endloop
  endfacet
  facet normal 0 0 -1
    outer loop
      vertex -34.619 -59.413 0
      vertex -37.119 -61.913 0
      vertex -35 -57.5 0
    endloop
  endfacet
  facet normal 0 0 -1
    outer loop
      vertex -37.119 -61.913 0
      vertex -34.619 -59.413 0
      vertex -33.536 -61.036 0
    endloop
  endfacet
  facet normal 0 0 -1
    outer loop
      vertex -33.536 -61.036 0
      vertex -31.913 -62.119 0
      vertex -37.119 -61.913 0
    endloop
  endfacet
  facet normal 0 0 -1
    outer loop
      vertex -31.913 -62.119 0
      vertex -30 -62.5 0
      vertex -37.119 -61.913 0
    endloop
  endfacet
  facet normal 0 0 -1
    outer loop
      vertex 37.5 33.6867 0
      vertex 35 -57.5 0
      vertex 35 33.7117 0
    endloop
  endfacet
  facet normal 0 0 -1
    outer loop
      vertex 33.536 -61.036 0
      vertex 37.5 -60 0
      vertex 31.913 -62.119 0
    endloop
  endfacet
  facet normal 0 0 -1
    outer loop
      vertex 34.619 -59.413 0
      vertex 37.5 -60 0
      vertex 33.536 -61.036 0
    endloop
  endfacet
  facet normal 0 0 -1
    outer loop
      vertex 35 -57.5 0
      vertex 37.5 33.6867 0
      vertex 37.5 -60 0
    endloop
  endfacet
  facet normal 0 0 -1
    outer loop
      vertex 35 -57.5 0
      vertex 37.5 -60 0
      vertex 34.619 -59.413 0
    endloop
  endfacet
  facet normal 0 0 -1
    outer loop
      vertex 31.913 -62.119 0
      vertex 37.5 -60 0
      vertex 37.119 -61.913 0
    endloop
  endfacet
  facet normal 0 0 -1
    outer loop
      vertex 31.913 -62.119 0
      vertex 37.119 -61.913 0
      vertex 30 -62.5 0
    endloop
  endfacet
  facet normal 0 0 -1
    outer loop
      vertex 30 -62.5 0
      vertex 37.119 -61.913 0
      vertex 36.036 -63.536 0
    endloop
  endfacet
  facet normal 0 0 -1
    outer loop
      vertex 30 -62.5 0
      vertex 36.036 -63.536 0
      vertex -30 -62.5 0
    endloop
  endfacet
  facet normal 0 0 -1
    outer loop
      vertex -30 -62.5 0
      vertex 36.036 -63.536 0
      vertex 34.413 -64.619 0
    endloop
  endfacet
  facet normal 0 0 -1
    outer loop
      vertex -30 -62.5 0
      vertex 34.413 -64.619 0
      vertex 32.5 -65 0
    endloop
  endfacet
  facet normal 0 0 -1
    outer loop
      vertex -30 -62.5 0
      vertex 32.5 -65 0
      vertex -32.5 -65 0
    endloop
  endfacet
  facet normal 0 0 -1
    outer loop
      vertex -30 -62.5 0
      vertex -32.5 -65 0
      vertex -37.119 -61.913 0
    endloop
  endfacet
  facet normal 0 0 -1
    outer loop
      vertex -37.119 -61.913 0
      vertex -32.5 -65 0
      vertex -34.413 -64.619 0
    endloop
  endfacet
  facet normal 0 0 -1
    outer loop
      vertex -37.119 -61.913 0
      vertex -34.413 -64.619 0
      vertex -36.036 -63.536 0
    endloop
  endfacet
  facet normal 0 0 -1
    outer loop
      vertex 35 57.5 0
      vertex 37.5 60 0
      vertex 35 49.5967 0
    endloop
  endfacet
  facet normal -1 0 0
    outer loop
      vertex -37.5 -60 0
      vertex -37.5 -60 20
      vertex -37.5 60 0
    endloop
  endfacet
  facet normal -1 0 0
    outer loop
      vertex -37.5 60 0
      vertex -37.5 -60 20
      vertex -37.5 60 20
    endloop
  endfacet
  facet normal 0 0 1
    outer loop
      vertex -37.5 60 20
      vertex -37.5 -60 20
      vertex -37.119 -61.913 20
    endloop
  endfacet
  facet normal 0 0 1
    outer loop
      vertex -34.413 -64.619 20
      vertex -37.5 60 20
      vertex -36.036 -63.536 20
    endloop
  endfacet
  facet normal 0 0 1
    outer loop
      vertex -36.036 -63.536 20
      vertex -37.5 60 20
      vertex -37.119 -61.913 20
    endloop
  endfacet
  facet normal 0 0 1
    outer loop
      vertex -32.5 -65 20
      vertex -37.5 60 20
      vertex -34.413 -64.619 20
    endloop
  endfacet
  facet normal 0 0 1
    outer loop
      vertex -30 -52.5 20
      vertex -37.5 60 20
      vertex -32.5 -65 20
    endloop
  endfacet
  facet normal 0 0 1
    outer loop
      vertex 30 52.5 20
      vertex 37.119 -61.913 20
      vertex 37.5 -60 20
    endloop
  endfacet
  facet normal 0 0 1
    outer loop
      vertex 37.119 61.913 20
      vertex -37.5 60 20
      vertex 37.5 60 20
    endloop
  endfacet
  facet normal 0 0 1
    outer loop
      vertex 36.036 63.536 20
      vertex -37.5 60 20
      vertex 37.119 61.913 20
    endloop
  endfacet
  facet normal 0 0 1
    outer loop
      vertex 34.413 64.619 20
      vertex -37.5 60 20
      vertex 36.036 63.536 20
    endloop
  endfacet
  facet normal 0 0 1
    outer loop
      vertex 32.5 65 20
      vertex -37.5 60 20
      vertex 34.413 64.619 20
    endloop
  endfacet
  facet normal 0 0 1
    outer loop
      vertex -32.5 65 20
      vertex -37.5 60 20
      vertex 32.5 65 20
    endloop
  endfacet
  facet normal 0 0 1
    outer loop
      vertex -34.413 64.619 20
      vertex -37.5 60 20
      vertex -32.5 65 20
    endloop
  endfacet
  facet normal 0 0 1
    outer loop
      vertex -36.036 63.536 20
      vertex -37.5 60 20
      vertex -34.413 64.619 20
    endloop
  endfacet
  facet normal 0 0 1
    outer loop
      vertex -37.119 61.913 20
      vertex -37.5 60 20
      vertex -36.036 63.536 20
    endloop
  endfacet
  facet normal 0 0 1
    outer loop
      vertex -29.619 -54.413 20
      vertex -30 -52.5 20
      vertex -32.5 -65 20
    endloop
  endfacet
  facet normal 0 0 1
    outer loop
      vertex -29.619 54.413 20
      vertex -37.5 60 20
      vertex -30 52.5 20
    endloop
  endfacet
  facet normal 0 0 1
    outer loop
      vertex -28.536 56.036 20
      vertex -37.5 60 20
      vertex -29.619 54.413 20
    endloop
  endfacet
  facet normal 0 0 1
    outer loop
      vertex -26.913 57.119 20
      vertex -37.5 60 20
      vertex -28.536 56.036 20
    endloop
  endfacet
  facet normal 0 0 1
    outer loop
      vertex -25 57.5 20
      vertex -37.5 60 20
      vertex -26.913 57.119 20
    endloop
  endfacet
  facet normal 0 0 1
    outer loop
      vertex 37.5 60 20
      vertex -37.5 60 20
      vertex -25 57.5 20
    endloop
  endfacet
  facet normal 0 0 1
    outer loop
      vertex 37.5 60 20
      vertex 25 57.5 20
      vertex 26.913 57.119 20
    endloop
  endfacet
  facet normal 0 0 1
    outer loop
      vertex 37.5 60 20
      vertex 26.913 57.119 20
      vertex 28.536 56.036 20
    endloop
  endfacet
  facet normal 0 0 1
    outer loop
      vertex 37.5 60 20
      vertex 28.536 56.036 20
      vertex 29.619 54.413 20
    endloop
  endfacet
  facet normal 0 0 1
    outer loop
      vertex 37.5 60 20
      vertex 30 52.5 20
      vertex 37.5 -60 20
    endloop
  endfacet
  facet normal 0 0 1
    outer loop
      vertex 37.5 60 20
      vertex 29.619 54.413 20
      vertex 30 52.5 20
    endloop
  endfacet
  facet normal 0 0 1
    outer loop
      vertex 37.119 -61.913 20
      vertex 30 -52.5 20
      vertex 36.036 -63.536 20
    endloop
  endfacet
  facet normal 0 0 1
    outer loop
      vertex 36.036 -63.536 20
      vertex 29.619 -54.413 20
      vertex 34.413 -64.619 20
    endloop
  endfacet
  facet normal 0 0 1
    outer loop
      vertex -25 57.5 20
      vertex 25 57.5 20
      vertex 37.5 60 20
    endloop
  endfacet
  facet normal 0 0 1
    outer loop
      vertex 34.413 -64.619 20
      vertex 28.536 -56.036 20
      vertex 32.5 -65 20
    endloop
  endfacet
  facet normal 0 0 1
    outer loop
      vertex 30 52.5 20
      vertex 30 -52.5 20
      vertex 37.119 -61.913 20
    endloop
  endfacet
  facet normal 0 0 1
    outer loop
      vertex 32.5 -65 20
      vertex 26.913 -57.119 20
      vertex 25 -57.5 20
    endloop
  endfacet
  facet normal 0 0 1
    outer loop
      vertex 32.5 -65 20
      vertex -25 -57.5 20
      vertex -32.5 -65 20
    endloop
  endfacet
  facet normal 0 0 1
    outer loop
      vertex -25 -57.5 20
      vertex -26.913 -57.119 20
      vertex -32.5 -65 20
    endloop
  endfacet
  facet normal 0 0 1
    outer loop
      vertex -26.913 -57.119 20
      vertex -28.536 -56.036 20
      vertex -32.5 -65 20
    endloop
  endfacet
  facet normal 0 0 1
    outer loop
      vertex -28.536 -56.036 20
      vertex -29.619 -54.413 20
      vertex -32.5 -65 20
    endloop
  endfacet
  facet normal 0 0 1
    outer loop
      vertex 30 -52.5 20
      vertex 29.619 -54.413 20
      vertex 36.036 -63.536 20
    endloop
  endfacet
  facet normal 0 0 1
    outer loop
      vertex 29.619 -54.413 20
      vertex 28.536 -56.036 20
      vertex 34.413 -64.619 20
    endloop
  endfacet
  facet normal 0 0 1
    outer loop
      vertex 28.536 -56.036 20
      vertex 26.913 -57.119 20
      vertex 32.5 -65 20
    endloop
  endfacet
  facet normal 0 0 1
    outer loop
      vertex 25 -57.5 20
      vertex -25 -57.5 20
      vertex 32.5 -65 20
    endloop
  endfacet
  facet normal 0 0 1
    outer loop
      vertex -30 -52.5 20
      vertex -30 52.5 20
      vertex -37.5 60 20
    endloop
  endfacet
  facet normal -0.831814 -0.555055 0
    outer loop
      vertex -37.119 -61.913 0
      vertex -36.036 -63.536 0
      vertex -37.119 -61.913 20
    endloop
  endfacet
  facet normal -0.831814 -0.555055 0
    outer loop
      vertex -37.119 -61.913 20
      vertex -36.036 -63.536 0
      vertex -36.036 -63.536 20
    endloop
  endfacet
  facet normal -0.555055 -0.831814 0
    outer loop
      vertex -36.036 -63.536 20
      vertex -36.036 -63.536 0
      vertex -34.413 -64.619 0
    endloop
  endfacet
  facet normal -0.555055 -0.831814 0
    outer loop
      vertex -34.413 -64.619 20
      vertex -36.036 -63.536 20
      vertex -34.413 -64.619 0
    endloop
  endfacet
  facet normal -0.195327 -0.980738 0
    outer loop
      vertex -34.413 -64.619 20
      vertex -34.413 -64.619 0
      vertex -32.5 -65 0
    endloop
  endfacet
  facet normal -0.195327 -0.980738 0
    outer loop
      vertex -32.5 -65 20
      vertex -34.413 -64.619 20
      vertex -32.5 -65 0
    endloop
  endfacet
  facet normal 0 -1 0
    outer loop
      vertex -32.5 -65 20
      vertex -32.5 -65 0
      vertex 32.5 -65 0
    endloop
  endfacet
  facet normal 0 -1 0
    outer loop
      vertex 32.5 -65 20
      vertex -32.5 -65 20
      vertex 32.5 -65 0
    endloop
  endfacet
  facet normal 0.195327 -0.980738 0
    outer loop
      vertex 32.5 -65 20
      vertex 32.5 -65 0
      vertex 34.413 -64.619 0
    endloop
  endfacet
  facet normal 0.195327 -0.980738 0
    outer loop
      vertex 34.413 -64.619 20
      vertex 32.5 -65 20
      vertex 34.413 -64.619 0
    endloop
  endfacet
  facet normal 0.555055 -0.831814 0
    outer loop
      vertex 34.413 -64.619 20
      vertex 34.413 -64.619 0
      vertex 36.036 -63.536 0
    endloop
  endfacet
  facet normal 0.555055 -0.831814 0
    outer loop
      vertex 36.036 -63.536 20
      vertex 34.413 -64.619 20
      vertex 36.036 -63.536 0
    endloop
  endfacet
  facet normal 0.831814 -0.555055 0
    outer loop
      vertex 36.036 -63.536 20
      vertex 36.036 -63.536 0
      vertex 37.119 -61.913 0
    endloop
  endfacet
  facet normal 0.831814 -0.555055 0
    outer loop
      vertex 37.119 -61.913 20
      vertex 36.036 -63.536 20
      vertex 37.119 -61.913 0
    endloop
  endfacet
  facet normal 0.980738 -0.195327 0
    outer loop
      vertex 37.119 -61.913 20
      vertex 37.119 -61.913 0
      vertex 37.5 -60 0
    endloop
  endfacet
  facet normal 0.980738 -0.195327 0
    outer loop
      vertex 37.5 -60 20
      vertex 37.119 -61.913 20
      vertex 37.5 -60 0
    endloop
  endfacet
  facet normal 1 0 0
    outer loop
      vertex 37.5 -60 20
      vertex 37.5 -60 0
      vertex 37.5 33.6867 0
    endloop
  endfacet
  facet normal 1 0 0
    outer loop
      vertex 37.5 34.1165 3.18188
      vertex 37.5 -60 20
      vertex 37.5 33.6737 1.30481
    endloop
  endfacet
  facet normal 1 0 0
    outer loop
      vertex 37.5 33.6737 1.30481
      vertex 37.5 -60 20
      vertex 37.5 33.6867 0
    endloop
  endfacet
  facet normal 1 0 0
    outer loop
      vertex 37.5 34.9957 4.89843
      vertex 37.5 -60 20
      vertex 37.5 34.1165 3.18188
    endloop
  endfacet
  facet normal 1 0 0
    outer loop
      vertex 37.5 36.2601 6.35472
      vertex 37.5 -60 20
      vertex 37.5 34.9957 4.89843
    endloop
  endfacet
  facet normal 1 0 0
    outer loop
      vertex 37.5 37.8364 7.4661
      vertex 37.5 -60 20
      vertex 37.5 36.2601 6.35472
    endloop
  endfacet
  facet normal 1 0 0
    outer loop
      vertex 37.5 39.6328 8.16798
      vertex 37.5 -60 20
      vertex 37.5 37.8364 7.4661
    endloop
  endfacet
  facet normal 1 0 0
    outer loop
      vertex 37.5 41.545 8.41958
      vertex 37.5 -60 20
      vertex 37.5 39.6328 8.16798
    endloop
  endfacet
  facet normal 1 0 0
    outer loop
      vertex 37.5 43.4618 8.20627
      vertex 37.5 -60 20
      vertex 37.5 41.545 8.41958
    endloop
  endfacet
  facet normal 1 0 0
    outer loop
      vertex 37.5 60 20
      vertex 37.5 -60 20
      vertex 37.5 43.4618 8.20627
    endloop
  endfacet
  facet normal 1 0 0
    outer loop
      vertex 37.5 60 20
      vertex 37.5 43.4618 8.20627
      vertex 37.5 45.2719 7.54045
    endloop
  endfacet
  facet normal 1 0 0
    outer loop
      vertex 37.5 60 0
      vertex 37.5 45.2719 7.54045
      vertex 37.5 46.8701 6.46081
    endloop
  endfacet
  facet normal 1 0 0
    outer loop
      vertex 37.5 60 0
      vertex 37.5 46.8701 6.46081
      vertex 37.5 48.1634 5.03011
    endloop
  endfacet
  facet normal 1 0 0
    outer loop
      vertex 37.5 60 0
      vertex 37.5 48.1634 5.03011
      vertex 37.5 49.0768 3.33147
    endloop
  endfacet
  facet normal 1 0 0
    outer loop
      vertex 37.5 60 0
      vertex 37.5 49.0768 3.33147
      vertex 37.5 49.557 1.46364
    endloop
  endfacet
  facet normal 1 0 0
    outer loop
      vertex 37.5 60 0
      vertex 37.5 49.557 1.46364
      vertex 37.5 49.5717 0
    endloop
  endfacet
  facet normal 1 0 0
    outer loop
      vertex 37.5 60 20
      vertex 37.5 45.2719 7.54045
      vertex 37.5 60 0
    endloop
  endfacet
  facet normal 0.009999 0.9999 0.0099995
    outer loop
      vertex 37.5 33.6867 0
      vertex 35 33.7117 0
      vertex 37.5 33.6737 1.30481
    endloop
  endfacet
  facet normal 0.009999 0.9999 0.0099995
    outer loop
      vertex 37.5 33.6737 1.30481
      vertex 35 33.7117 0
      vertex 35 33.6987 1.30481
    endloop
  endfacet
  facet normal -1 0 0
    outer loop
      vertex 35 39.6578 8.16798
      vertex 35 -57.5 18
      vertex 35 41.57 8.41958
    endloop
  endfacet
  facet normal -1 0 0
    outer loop
      vertex 35 57.5 18
      vertex 35 57.5 0
      vertex 35 49.582 1.46364
    endloop
  endfacet
  facet normal -1 0 0
    outer loop
      vertex 35 57.5 18
      vertex 35 49.582 1.46364
      vertex 35 49.1018 3.33147
    endloop
  endfacet
  facet normal -1 0 0
    outer loop
      vertex 35 57.5 18
      vertex 35 49.1018 3.33147
      vertex 35 48.1884 5.03011
    endloop
  endfacet
  facet normal -1 0 0
    outer loop
      vertex 35 57.5 18
      vertex 35 48.1884 5.03011
      vertex 35 46.8951 6.46081
    endloop
  endfacet
  facet normal -1 0 0
    outer loop
      vertex 35 57.5 18
      vertex 35 46.8951 6.46081
      vertex 35 45.2969 7.54045
    endloop
  endfacet
  facet normal -1 0 0
    outer loop
      vertex 35 57.5 18
      vertex 35 45.2969 7.54045
      vertex 35 43.4868 8.20627
    endloop
  endfacet
  facet normal -1 0 0
    outer loop
      vertex 35 57.5 18
      vertex 35 43.4868 8.20627
      vertex 35 41.57 8.41958
    endloop
  endfacet
  facet normal -1 0 0
    outer loop
      vertex 35 57.5 18
      vertex 35 41.57 8.41958
      vertex 35 -57.5 18
    endloop
  endfacet
  facet normal -1 0 0
    outer loop
      vertex 35 37.8614 7.4661
      vertex 35 -57.5 18
      vertex 35 39.6578 8.16798
    endloop
  endfacet
  facet normal -1 0 0
    outer loop
      vertex 35 36.2851 6.35472
      vertex 35 -57.5 18
      vertex 35 37.8614 7.4661
    endloop
  endfacet
  facet normal -1 0 0
    outer loop
      vertex 35 35.0207 4.89843
      vertex 35 -57.5 18
      vertex 35 36.2851 6.35472
    endloop
  endfacet
  facet normal -1 0 0
    outer loop
      vertex 35 34.1415 3.18188
      vertex 35 -57.5 18
      vertex 35 35.0207 4.89843
    endloop
  endfacet
  facet normal -1 0 0
    outer loop
      vertex 35 -57.5 18
      vertex 35 33.6987 1.30481
      vertex 35 33.7117 0
    endloop
  endfacet
  facet normal -1 0 0
    outer loop
      vertex 35 -57.5 18
      vertex 35 33.7117 0
      vertex 35 -57.5 0
    endloop
  endfacet
  facet normal -1 0 0
    outer loop
      vertex 35 49.582 1.46364
      vertex 35 57.5 0
      vertex 35 49.5967 0
    endloop
  endfacet
  facet normal -1 0 0
    outer loop
      vertex 35 33.6987 1.30481
      vertex 35 -57.5 18
      vertex 35 34.1415 3.18188
    endloop
  endfacet
  facet normal -0.980738 0.195327 0
    outer loop
      vertex 35 -57.5 18
      vertex 35 -57.5 0
      vertex 34.619 -59.413 18
    endloop
  endfacet
  facet normal -0.980738 0.195327 0
    outer loop
      vertex 34.619 -59.413 18
      vertex 35 -57.5 0
      vertex 34.619 -59.413 0
    endloop
  endfacet
  facet normal -0.831814 0.555055 0
    outer loop
      vertex 34.619 -59.413 18
      vertex 34.619 -59.413 0
      vertex 33.536 -61.036 18
    endloop
  endfacet
  facet normal -0.831814 0.555055 0
    outer loop
      vertex 33.536 -61.036 18
      vertex 34.619 -59.413 0
      vertex 33.536 -61.036 0
    endloop
  endfacet
  facet normal -0.555055 0.831814 0
    outer loop
      vertex 33.536 -61.036 18
      vertex 33.536 -61.036 0
      vertex 31.913 -62.119 18
    endloop
  endfacet
  facet normal -0.555055 0.831814 0
    outer loop
      vertex 31.913 -62.119 18
      vertex 33.536 -61.036 0
      vertex 31.913 -62.119 0
    endloop
  endfacet
  facet normal -0.195327 0.980738 0
    outer loop
      vertex 31.913 -62.119 18
      vertex 31.913 -62.119 0
      vertex 30 -62.5 18
    endloop
  endfacet
  facet normal -0.195327 0.980738 0
    outer loop
      vertex 30 -62.5 18
      vertex 31.913 -62.119 0
      vertex 30 -62.5 0
    endloop
  endfacet
  facet normal 0 1 0
    outer loop
      vertex 30 -62.5 18
      vertex 30 -62.5 0
      vertex -30 -62.5 18
    endloop
  endfacet
  facet normal 0 1 0
    outer loop
      vertex -30 -62.5 18
      vertex 30 -62.5 0
      vertex -30 -62.5 0
    endloop
  endfacet
  facet normal 0.195327 0.980738 0
    outer loop
      vertex -30 -62.5 18
      vertex -30 -62.5 0
      vertex -31.913 -62.119 18
    endloop
  endfacet
  facet normal 0.195327 0.980738 0
    outer loop
      vertex -31.913 -62.119 18
      vertex -30 -62.5 0
      vertex -31.913 -62.119 0
    endloop
  endfacet
  facet normal 0.555055 0.831814 0
    outer loop
      vertex -31.913 -62.119 18
      vertex -31.913 -62.119 0
      vertex -33.536 -61.036 18
    endloop
  endfacet
  facet normal 0.555055 0.831814 0
    outer loop
      vertex -33.536 -61.036 18
      vertex -31.913 -62.119 0
      vertex -33.536 -61.036 0
    endloop
  endfacet
  facet normal 0.831814 0.555055 0
    outer loop
      vertex -34.619 -59.413 18
      vertex -33.536 -61.036 18
      vertex -33.536 -61.036 0
    endloop
  endfacet
  facet normal 0.831814 0.555055 0
    outer loop
      vertex -34.619 -59.413 0
      vertex -34.619 -59.413 18
      vertex -33.536 -61.036 0
    endloop
  endfacet
  facet normal 0.980738 0.195327 0
    outer loop
      vertex -35 -57.5 18
      vertex -34.619 -59.413 18
      vertex -34.619 -59.413 0
    endloop
  endfacet
  facet normal 0.980738 0.195327 0
    outer loop
      vertex -35 -57.5 0
      vertex -35 -57.5 18
      vertex -34.619 -59.413 0
    endloop
  endfacet
  facet normal 1 0 0
    outer loop
      vertex -35 57.5 0
      vertex -35 57.5 18
      vertex -35 -57.5 18
    endloop
  endfacet
  facet normal 1 0 0
    outer loop
      vertex -35 -57.5 0
      vertex -35 57.5 0
      vertex -35 -57.5 18
    endloop
  endfacet
  facet normal 0.980738 -0.195327 0
    outer loop
      vertex -34.619 59.413 0
      vertex -34.619 59.413 18
      vertex -35 57.5 18
    endloop
  endfacet
  facet normal 0.980738 -0.195327 0
    outer loop
      vertex -35 57.5 0
      vertex -34.619 59.413 0
      vertex -35 57.5 18
    endloop
  endfacet
  facet normal 0.831814 -0.555055 0
    outer loop
      vertex -33.536 61.036 0
      vertex -33.536 61.036 18
      vertex -34.619 59.413 18
    endloop
  endfacet
  facet normal 0.831814 -0.555055 0
    outer loop
      vertex -34.619 59.413 0
      vertex -33.536 61.036 0
      vertex -34.619 59.413 18
    endloop
  endfacet
  facet normal 0.555055 -0.831814 0
    outer loop
      vertex -31.913 62.119 0
      vertex -31.913 62.119 18
      vertex -33.536 61.036 18
    endloop
  endfacet
  facet normal 0.555055 -0.831814 0
    outer loop
      vertex -33.536 61.036 0
      vertex -31.913 62.119 0
      vertex -33.536 61.036 18
    endloop
  endfacet
  facet normal 0.195327 -0.980738 0
    outer loop
      vertex -30 62.5 0
      vertex -30 62.5 18
      vertex -31.913 62.119 18
    endloop
  endfacet
  facet normal 0.195327 -0.980738 0
    outer loop
      vertex -31.913 62.119 0
      vertex -30 62.5 0
      vertex -31.913 62.119 18
    endloop
  endfacet
  facet normal 0 -1 0
    outer loop
      vertex 30 62.5 0
      vertex 30 62.5 18
      vertex -30 62.5 18
    endloop
  endfacet
  facet normal 0 -1 0
    outer loop
      vertex -30 62.5 0
      vertex 30 62.5 0
      vertex -30 62.5 18
    endloop
  endfacet
  facet normal -0.195327 -0.980738 0
    outer loop
      vertex 31.913 62.119 0
      vertex 31.913 62.119 18
      vertex 30 62.5 18
    endloop
  endfacet
  facet normal -0.195327 -0.980738 0
    outer loop
      vertex 30 62.5 0
      vertex 31.913 62.119 0
      vertex 30 62.5 18
    endloop
  endfacet
  facet normal -0.555055 -0.831814 0
    outer loop
      vertex 33.536 61.036 0
      vertex 33.536 61.036 18
      vertex 31.913 62.119 18
    endloop
  endfacet
  facet normal -0.555055 -0.831814 0
    outer loop
      vertex 31.913 62.119 0
      vertex 33.536 61.036 0
      vertex 31.913 62.119 18
    endloop
  endfacet
  facet normal -0.831814 -0.555055 0
    outer loop
      vertex 34.619 59.413 18
      vertex 33.536 61.036 18
      vertex 34.619 59.413 0
    endloop
  endfacet
  facet normal -0.831814 -0.555055 0
    outer loop
      vertex 34.619 59.413 0
      vertex 33.536 61.036 18
      vertex 33.536 61.036 0
    endloop
  endfacet
  facet normal -0.980738 -0.195327 0
    outer loop
      vertex 35 57.5 18
      vertex 34.619 59.413 18
      vertex 35 57.5 0
    endloop
  endfacet
  facet normal -0.980738 -0.195327 0
    outer loop
      vertex 35 57.5 0
      vertex 34.619 59.413 18
      vertex 34.619 59.413 0
    endloop
  endfacet
  facet normal -0.009999 -0.9999 -0.0099995
    outer loop
      vertex 35 49.5967 0
      vertex 37.5 49.5717 0
      vertex 37.5 49.557 1.46364
    endloop
  endfacet
  facet normal -0.009999 -0.9999 -0.0099995
    outer loop
      vertex 35 49.582 1.46364
      vertex 35 49.5967 0
      vertex 37.5 49.557 1.46364
    endloop
  endfacet
  facet normal 0.980738 0.195327 0
    outer loop
      vertex 37.5 60 0
      vertex 37.119 61.913 0
      vertex 37.119 61.913 20
    endloop
  endfacet
  facet normal 0.980738 0.195327 0
    outer loop
      vertex 37.5 60 20
      vertex 37.5 60 0
      vertex 37.119 61.913 20
    endloop
  endfacet
  facet normal 0.831814 0.555055 0
    outer loop
      vertex 37.119 61.913 0
      vertex 36.036 63.536 0
      vertex 36.036 63.536 20
    endloop
  endfacet
  facet normal 0.831814 0.555055 0
    outer loop
      vertex 37.119 61.913 20
      vertex 37.119 61.913 0
      vertex 36.036 63.536 20
    endloop
  endfacet
  facet normal 0.555055 0.831814 0
    outer loop
      vertex 34.413 64.619 0
      vertex 34.413 64.619 20
      vertex 36.036 63.536 0
    endloop
  endfacet
  facet normal 0.555055 0.831814 0
    outer loop
      vertex 36.036 63.536 0
      vertex 34.413 64.619 20
      vertex 36.036 63.536 20
    endloop
  endfacet
  facet normal 0.195327 0.980738 0
    outer loop
      vertex 32.5 65 0
      vertex 32.5 65 20
      vertex 34.413 64.619 0
    endloop
  endfacet
  facet normal 0.195327 0.980738 0
    outer loop
      vertex 34.413 64.619 0
      vertex 32.5 65 20
      vertex 34.413 64.619 20
    endloop
  endfacet
  facet normal 0 1 0
    outer loop
      vertex -32.5 65 0
      vertex -32.5 65 20
      vertex 32.5 65 0
    endloop
  endfacet
  facet normal 0 1 0
    outer loop
      vertex 32.5 65 0
      vertex -32.5 65 20
      vertex 32.5 65 20
    endloop
  endfacet
  facet normal -0.195327 0.980738 0
    outer loop
      vertex -34.413 64.619 0
      vertex -34.413 64.619 20
      vertex -32.5 65 0
    endloop
  endfacet
  facet normal -0.195327 0.980738 0
    outer loop
      vertex -32.5 65 0
      vertex -34.413 64.619 20
      vertex -32.5 65 20
    endloop
  endfacet
  facet normal -0.555055 0.831814 0
    outer loop
      vertex -36.036 63.536 0
      vertex -36.036 63.536 20
      vertex -34.413 64.619 0
    endloop
  endfacet
  facet normal -0.555055 0.831814 0
    outer loop
      vertex -34.413 64.619 0
      vertex -36.036 63.536 20
      vertex -34.413 64.619 20
    endloop
  endfacet
  facet normal -0.831814 0.555055 0
    outer loop
      vertex -37.119 61.913 0
      vertex -37.119 61.913 20
      vertex -36.036 63.536 0
    endloop
  endfacet
  facet normal -0.831814 0.555055 0
    outer loop
      vertex -36.036 63.536 0
      vertex -37.119 61.913 20
      vertex -36.036 63.536 20
    endloop
  endfacet
  facet normal -0.980738 0.195327 0
    outer loop
      vertex -37.5 60 0
      vertex -37.5 60 20
      vertex -37.119 61.913 0
    endloop
  endfacet
  facet normal -0.980738 0.195327 0
    outer loop
      vertex -37.119 61.913 0
      vertex -37.5 60 20
      vertex -37.119 61.913 20
    endloop
  endfacet
  facet normal 0.980738 0.195327 0
    outer loop
      vertex -30 -52.5 20
      vertex -29.619 -54.413 20
      vertex -29.619 -54.413 18
    endloop
  endfacet
  facet normal 0.980738 0.195327 0
    outer loop
      vertex -30 -52.5 18
      vertex -30 -52.5 20
      vertex -29.619 -54.413 18
    endloop
  endfacet
  facet normal 1 0 0
    outer loop
      vertex -30 52.5 18
      vertex -30 52.5 20
      vertex -30 -52.5 20
    endloop
  endfacet
  facet normal 1 0 0
    outer loop
      vertex -30 -52.5 18
      vertex -30 52.5 18
      vertex -30 -52.5 20
    endloop
  endfacet
  facet normal 0.831814 0.555055 0
    outer loop
      vertex -29.619 -54.413 20
      vertex -28.536 -56.036 20
      vertex -28.536 -56.036 18
    endloop
  endfacet
  facet normal 0.831814 0.555055 0
    outer loop
      vertex -29.619 -54.413 18
      vertex -29.619 -54.413 20
      vertex -28.536 -56.036 18
    endloop
  endfacet
  facet normal 0.555055 0.831814 0
    outer loop
      vertex -26.913 -57.119 20
      vertex -26.913 -57.119 18
      vertex -28.536 -56.036 20
    endloop
  endfacet
  facet normal 0.555055 0.831814 0
    outer loop
      vertex -28.536 -56.036 20
      vertex -26.913 -57.119 18
      vertex -28.536 -56.036 18
    endloop
  endfacet
  facet normal 0.195327 0.980738 0
    outer loop
      vertex -25 -57.5 20
      vertex -25 -57.5 18
      vertex -26.913 -57.119 20
    endloop
  endfacet
  facet normal 0.195327 0.980738 0
    outer loop
      vertex -26.913 -57.119 20
      vertex -25 -57.5 18
      vertex -26.913 -57.119 18
    endloop
  endfacet
  facet normal 0 1 0
    outer loop
      vertex 25 -57.5 20
      vertex 25 -57.5 18
      vertex -25 -57.5 20
    endloop
  endfacet
  facet normal 0 1 0
    outer loop
      vertex -25 -57.5 20
      vertex 25 -57.5 18
      vertex -25 -57.5 18
    endloop
  endfacet
  facet normal -0.195327 0.980738 0
    outer loop
      vertex 26.913 -57.119 20
      vertex 26.913 -57.119 18
      vertex 25 -57.5 20
    endloop
  endfacet
  facet normal -0.195327 0.980738 0
    outer loop
      vertex 25 -57.5 20
      vertex 26.913 -57.119 18
      vertex 25 -57.5 18
    endloop
  endfacet
  facet normal -0.555055 0.831814 0
    outer loop
      vertex 28.536 -56.036 20
      vertex 28.536 -56.036 18
      vertex 26.913 -57.119 20
    endloop
  endfacet
  facet normal -0.555055 0.831814 0
    outer loop
      vertex 26.913 -57.119 20
      vertex 28.536 -56.036 18
      vertex 26.913 -57.119 18
    endloop
  endfacet
  facet normal -0.831814 0.555055 0
    outer loop
      vertex 29.619 -54.413 20
      vertex 29.619 -54.413 18
      vertex 28.536 -56.036 20
    endloop
  endfacet
  facet normal -0.831814 0.555055 0
    outer loop
      vertex 28.536 -56.036 20
      vertex 29.619 -54.413 18
      vertex 28.536 -56.036 18
    endloop
  endfacet
  facet normal -0.980738 0.195327 0
    outer loop
      vertex 30 -52.5 20
      vertex 30 -52.5 18
      vertex 29.619 -54.413 20
    endloop
  endfacet
  facet normal -0.980738 0.195327 0
    outer loop
      vertex 29.619 -54.413 20
      vertex 30 -52.5 18
      vertex 29.619 -54.413 18
    endloop
  endfacet
  facet normal -1 0 0
    outer loop
      vertex 30 52.5 20
      vertex 30 52.5 18
      vertex 30 -52.5 20
    endloop
  endfacet
  facet normal -1 0 0
    outer loop
      vertex 30 -52.5 20
      vertex 30 52.5 18
      vertex 30 -52.5 18
    endloop
  endfacet
  facet normal -0.980738 -0.195327 0
    outer loop
      vertex 30 52.5 20
      vertex 29.619 54.413 20
      vertex 30 52.5 18
    endloop
  endfacet
  facet normal -0.980738 -0.195327 0
    outer loop
      vertex 30 52.5 18
      vertex 29.619 54.413 20
      vertex 29.619 54.413 18
    endloop
  endfacet
  facet normal -0.831814 -0.555055 0
    outer loop
      vertex 29.619 54.413 20
      vertex 28.536 56.036 20
      vertex 29.619 54.413 18
    endloop
  endfacet
  facet normal -0.831814 -0.555055 0
    outer loop
      vertex 29.619 54.413 18
      vertex 28.536 56.036 20
      vertex 28.536 56.036 18
    endloop
  endfacet
  facet normal -0.555055 -0.831814 0
    outer loop
      vertex 28.536 56.036 18
      vertex 28.536 56.036 20
      vertex 26.913 57.119 20
    endloop
  endfacet
  facet normal -0.555055 -0.831814 0
    outer loop
      vertex 26.913 57.119 18
      vertex 28.536 56.036 18
      vertex 26.913 57.119 20
    endloop
  endfacet
  facet normal -0.195327 -0.980738 0
    outer loop
      vertex 26.913 57.119 18
      vertex 26.913 57.119 20
      vertex 25 57.5 20
    endloop
  endfacet
  facet normal -0.195327 -0.980738 0
    outer loop
      vertex 25 57.5 18
      vertex 26.913 57.119 18
      vertex 25 57.5 20
    endloop
  endfacet
  facet normal 0 -1 0
    outer loop
      vertex 25 57.5 18
      vertex 25 57.5 20
      vertex -25 57.5 20
    endloop
  endfacet
  facet normal 0 -1 0
    outer loop
      vertex -25 57.5 18
      vertex 25 57.5 18
      vertex -25 57.5 20
    endloop
  endfacet
  facet normal 0.195327 -0.980738 0
    outer loop
      vertex -25 57.5 18
      vertex -25 57.5 20
      vertex -26.913 57.119 20
    endloop
  endfacet
  facet normal 0.195327 -0.980738 0
    outer loop
      vertex -26.913 57.119 18
      vertex -25 57.5 18
      vertex -26.913 57.119 20
    endloop
  endfacet
  facet normal 0.555055 -0.831814 0
    outer loop
      vertex -26.913 57.119 18
      vertex -26.913 57.119 20
      vertex -28.536 56.036 20
    endloop
  endfacet
  facet normal 0.555055 -0.831814 0
    outer loop
      vertex -28.536 56.036 18
      vertex -26.913 57.119 18
      vertex -28.536 56.036 20
    endloop
  endfacet
  facet normal 0.831814 -0.555055 0
    outer loop
      vertex -28.536 56.036 18
      vertex -28.536 56.036 20
      vertex -29.619 54.413 20
    endloop
  endfacet
  facet normal 0.831814 -0.555055 0
    outer loop
      vertex -29.619 54.413 18
      vertex -28.536 56.036 18
      vertex -29.619 54.413 20
    endloop
  endfacet
  facet normal 0.980738 -0.195327 0
    outer loop
      vertex -29.619 54.413 18
      vertex -29.619 54.413 20
      vertex -30 52.5 20
    endloop
  endfacet
  facet normal 0.980738 -0.195327 0
    outer loop
      vertex -30 52.5 18
      vertex -29.619 54.413 18
      vertex -30 52.5 20
    endloop
  endfacet
  facet normal -0.00968452 -0.968452 -0.249013
    outer loop
      vertex 35 49.582 1.46364
      vertex 37.5 49.557 1.46364
      vertex 37.5 49.0768 3.33147
    endloop
  endfacet
  facet normal -0.00968452 -0.968452 -0.249013
    outer loop
      vertex 35 49.1018 3.33147
      vertex 35 49.582 1.46364
      vertex 37.5 49.0768 3.33147
    endloop
  endfacet
  facet normal -0.00880721 -0.880721 -0.473554
    outer loop
      vertex 35 49.1018 3.33147
      vertex 37.5 49.0768 3.33147
      vertex 37.5 48.1634 5.03011
    endloop
  endfacet
  facet normal -0.00880721 -0.880721 -0.473554
    outer loop
      vertex 35 48.1884 5.03011
      vertex 35 49.1018 3.33147
      vertex 37.5 48.1634 5.03011
    endloop
  endfacet
  facet normal -0.00741805 -0.741805 -0.670574
    outer loop
      vertex 35 48.1884 5.03011
      vertex 37.5 48.1634 5.03011
      vertex 37.5 46.8701 6.46081
    endloop
  endfacet
  facet normal -0.00741805 -0.741805 -0.670574
    outer loop
      vertex 35 46.8951 6.46081
      vertex 35 48.1884 5.03011
      vertex 37.5 46.8701 6.46081
    endloop
  endfacet
  facet normal -0.00559779 -0.559779 -0.828623
    outer loop
      vertex 37.5 46.8701 6.46081
      vertex 37.5 45.2719 7.54045
      vertex 35 46.8951 6.46081
    endloop
  endfacet
  facet normal -0.00559779 -0.559779 -0.828623
    outer loop
      vertex 35 46.8951 6.46081
      vertex 37.5 45.2719 7.54045
      vertex 35 45.2969 7.54045
    endloop
  endfacet
  facet normal -0.00345221 -0.345221 -0.938515
    outer loop
      vertex 37.5 45.2719 7.54045
      vertex 37.5 43.4618 8.20627
      vertex 35 45.2969 7.54045
    endloop
  endfacet
  facet normal -0.00345221 -0.345221 -0.938515
    outer loop
      vertex 35 45.2969 7.54045
      vertex 37.5 43.4618 8.20627
      vertex 35 43.4868 8.20627
    endloop
  endfacet
  facet normal -0.00110598 -0.110598 -0.993865
    outer loop
      vertex 37.5 43.4618 8.20627
      vertex 37.5 41.545 8.41958
      vertex 35 43.4868 8.20627
    endloop
  endfacet
  facet normal -0.00110598 -0.110598 -0.993865
    outer loop
      vertex 35 43.4868 8.20627
      vertex 37.5 41.545 8.41958
      vertex 35 41.57 8.41958
    endloop
  endfacet
  facet normal 0.00130451 0.130451 -0.991454
    outer loop
      vertex 37.5 41.545 8.41958
      vertex 37.5 39.6328 8.16798
      vertex 35 41.57 8.41958
    endloop
  endfacet
  facet normal 0.00130451 0.130451 -0.991454
    outer loop
      vertex 35 41.57 8.41958
      vertex 37.5 39.6328 8.16798
      vertex 35 39.6578 8.16798
    endloop
  endfacet
  facet normal 0.00363919 0.363919 -0.931424
    outer loop
      vertex 37.5 39.6328 8.16798
      vertex 37.5 37.8364 7.4661
      vertex 35 39.6578 8.16798
    endloop
  endfacet
  facet normal 0.00363919 0.363919 -0.931424
    outer loop
      vertex 35 39.6578 8.16798
      vertex 37.5 37.8364 7.4661
      vertex 35 37.8614 7.4661
    endloop
  endfacet
  facet normal 0.00576237 0.576237 -0.817262
    outer loop
      vertex 37.5 37.8364 7.4661
      vertex 37.5 36.2601 6.35472
      vertex 35 37.8614 7.4661
    endloop
  endfacet
  facet normal 0.00576237 0.576237 -0.817262
    outer loop
      vertex 35 37.8614 7.4661
      vertex 37.5 36.2601 6.35472
      vertex 35 36.2851 6.35472
    endloop
  endfacet
  facet normal 0.00755066 0.755066 -0.655605
    outer loop
      vertex 37.5 36.2601 6.35472
      vertex 37.5 34.9957 4.89843
      vertex 35 36.2851 6.35472
    endloop
  endfacet
  facet normal 0.00755066 0.755066 -0.655605
    outer loop
      vertex 35 36.2851 6.35472
      vertex 37.5 34.9957 4.89843
      vertex 35 35.0207 4.89843
    endloop
  endfacet
  facet normal 0.00890014 0.890014 -0.455846
    outer loop
      vertex 37.5 34.9957 4.89843
      vertex 37.5 34.1165 3.18188
      vertex 35 35.0207 4.89843
    endloop
  endfacet
  facet normal 0.00890014 0.890014 -0.455846
    outer loop
      vertex 35 35.0207 4.89843
      vertex 37.5 34.1165 3.18188
      vertex 35 34.1415 3.18188
    endloop
  endfacet
  facet normal 0.00973238 0.973238 -0.229595
    outer loop
      vertex 37.5 34.1165 3.18188
      vertex 37.5 33.6737 1.30481
      vertex 35 34.1415 3.18188
    endloop
  endfacet
  facet normal 0.00973238 0.973238 -0.229595
    outer loop
      vertex 35 34.1415 3.18188
      vertex 37.5 33.6737 1.30481
      vertex 35 33.6987 1.30481
    endloop
  endfacet
  facet normal 0 0 -1
    outer loop
      vertex -34.619 59.413 18
      vertex -33.536 61.036 18
      vertex -35 57.5 18
    endloop
  endfacet
  facet normal 0 0 -1
    outer loop
      vertex -35 57.5 18
      vertex -33.536 61.036 18
      vertex -31.913 62.119 18
    endloop
  endfacet
  facet normal 0 0 -1
    outer loop
      vertex -35 57.5 18
      vertex -31.913 62.119 18
      vertex -30 62.5 18
    endloop
  endfacet
  facet normal 0 0 -1
    outer loop
      vertex -35 57.5 18
      vertex -30 62.5 18
      vertex 30 62.5 18
    endloop
  endfacet
  facet normal 0 0 -1
    outer loop
      vertex -35 57.5 18
      vertex 30 62.5 18
      vertex 31.913 62.119 18
    endloop
  endfacet
  facet normal 0 0 -1
    outer loop
      vertex -35 57.5 18
      vertex 31.913 62.119 18
      vertex 33.536 61.036 18
    endloop
  endfacet
  facet normal 0 0 -1
    outer loop
      vertex -35 57.5 18
      vertex 33.536 61.036 18
      vertex 34.619 59.413 18
    endloop
  endfacet
  facet normal 0 0 -1
    outer loop
      vertex -35 57.5 18
      vertex 34.619 59.413 18
      vertex -25 57.5 18
    endloop
  endfacet
  facet normal 0 0 -1
    outer loop
      vertex 30 52.5 18
      vertex 35 57.5 18
      vertex 35 -57.5 18
    endloop
  endfacet
  facet normal 0 0 -1
    outer loop
      vertex 30 -52.5 18
      vertex 34.619 -59.413 18
      vertex 33.536 -61.036 18
    endloop
  endfacet
  facet normal 0 0 -1
    outer loop
      vertex 28.536 -56.036 18
      vertex 33.536 -61.036 18
      vertex 31.913 -62.119 18
    endloop
  endfacet
  facet normal 0 0 -1
    outer loop
      vertex -25 -57.5 18
      vertex 30 -62.5 18
      vertex -30 -62.5 18
    endloop
  endfacet
  facet normal 0 0 -1
    outer loop
      vertex -35 57.5 18
      vertex -30 -62.5 18
      vertex -31.913 -62.119 18
    endloop
  endfacet
  facet normal 0 0 -1
    outer loop
      vertex -35 57.5 18
      vertex -31.913 -62.119 18
      vertex -33.536 -61.036 18
    endloop
  endfacet
  facet normal 0 0 -1
    outer loop
      vertex -35 57.5 18
      vertex -33.536 -61.036 18
      vertex -34.619 -59.413 18
    endloop
  endfacet
  facet normal 0 0 -1
    outer loop
      vertex -35 57.5 18
      vertex -34.619 -59.413 18
      vertex -35 -57.5 18
    endloop
  endfacet
  facet normal 0 0 -1
    outer loop
      vertex 28.536 -56.036 18
      vertex 30 -62.5 18
      vertex 26.913 -57.119 18
    endloop
  endfacet
  facet normal 0 0 -1
    outer loop
      vertex -35 57.5 18
      vertex -30 -52.5 18
      vertex -30 -62.5 18
    endloop
  endfacet
  facet normal 0 0 -1
    outer loop
      vertex -30 -52.5 18
      vertex -29.619 -54.413 18
      vertex -30 -62.5 18
    endloop
  endfacet
  facet normal 0 0 -1
    outer loop
      vertex -29.619 -54.413 18
      vertex -28.536 -56.036 18
      vertex -30 -62.5 18
    endloop
  endfacet
  facet normal 0 0 -1
    outer loop
      vertex -28.536 -56.036 18
      vertex -26.913 -57.119 18
      vertex -30 -62.5 18
    endloop
  endfacet
  facet normal 0 0 -1
    outer loop
      vertex -26.913 -57.119 18
      vertex -25 -57.5 18
      vertex -30 -62.5 18
    endloop
  endfacet
  facet normal 0 0 -1
    outer loop
      vertex 26.913 -57.119 18
      vertex 30 -62.5 18
      vertex 25 -57.5 18
    endloop
  endfacet
  facet normal 0 0 -1
    outer loop
      vertex 25 -57.5 18
      vertex 30 -62.5 18
      vertex -25 -57.5 18
    endloop
  endfacet
  facet normal 0 0 -1
    outer loop
      vertex 29.619 -54.413 18
      vertex 33.536 -61.036 18
      vertex 28.536 -56.036 18
    endloop
  endfacet
  facet normal 0 0 -1
    outer loop
      vertex 29.619 54.413 18
      vertex 35 57.5 18
      vertex 30 52.5 18
    endloop
  endfacet
  facet normal 0 0 -1
    outer loop
      vertex -26.913 57.119 18
      vertex -35 57.5 18
      vertex -25 57.5 18
    endloop
  endfacet
  facet normal 0 0 -1
    outer loop
      vertex 28.536 56.036 18
      vertex 35 57.5 18
      vertex 29.619 54.413 18
    endloop
  endfacet
  facet normal 0 0 -1
    outer loop
      vertex 26.913 57.119 18
      vertex 35 57.5 18
      vertex 28.536 56.036 18
    endloop
  endfacet
  facet normal 0 0 -1
    outer loop
      vertex 25 57.5 18
      vertex 35 57.5 18
      vertex 26.913 57.119 18
    endloop
  endfacet
  facet normal 0 0 -1
    outer loop
      vertex 34.619 59.413 18
      vertex 35 57.5 18
      vertex 25 57.5 18
    endloop
  endfacet
  facet normal 0 0 -1
    outer loop
      vertex 34.619 59.413 18
      vertex 25 57.5 18
      vertex -25 57.5 18
    endloop
  endfacet
  facet normal 0 0 -1
    outer loop
      vertex -28.536 56.036 18
      vertex -35 57.5 18
      vertex -26.913 57.119 18
    endloop
  endfacet
  facet normal 0 0 -1
    outer loop
      vertex -35 57.5 18
      vertex -28.536 56.036 18
      vertex -29.619 54.413 18
    endloop
  endfacet
  facet normal 0 0 -1
    outer loop
      vertex -35 57.5 18
      vertex -29.619 54.413 18
      vertex -30 52.5 18
    endloop
  endfacet
  facet normal 0 0 -1
    outer loop
      vertex -30 -52.5 18
      vertex -35 57.5 18
      vertex -30 52.5 18
    endloop
  endfacet
  facet normal 0 0 -1
    outer loop
      vertex 30 52.5 18
      vertex 35 -57.5 18
      vertex 34.619 -59.413 18
    endloop
  endfacet
  facet normal 0 0 -1
    outer loop
      vertex 30 52.5 18
      vertex 34.619 -59.413 18
      vertex 30 -52.5 18
    endloop
  endfacet
  facet normal 0 0 -1
    outer loop
      vertex 28.536 -56.036 18
      vertex 31.913 -62.119 18
      vertex 30 -62.5 18
    endloop
  endfacet
  facet normal 0 0 -1
    outer loop
      vertex 30 -52.5 18
      vertex 33.536 -61.036 18
      vertex 29.619 -54.413 18
    endloop
  endfacet
endsolid OpenSCAD_Model
