solid OpenSCAD_Model
  facet normal 0 -1 0
    outer loop
      vertex -35 -55 18
      vertex -35 -55 0
      vertex 30 -55 0
    endloop
  endfacet
  facet normal 0 -1 0
    outer loop
      vertex 30 -55 18
      vertex -35 -55 18
      vertex 30 -55 0
    endloop
  endfacet
  facet normal 0 0 -1
    outer loop
      vertex -27.5 42.5 0
      vertex -34.619 51.913 0
      vertex -33.536 53.536 0
    endloop
  endfacet
  facet normal 0 0 -1
    outer loop
      vertex -27.119 44.413 0
      vertex -33.536 53.536 0
      vertex -31.913 54.619 0
    endloop
  endfacet
  facet normal 0 0 -1
    outer loop
      vertex -26.036 46.036 0
      vertex -31.913 54.619 0
      vertex -30 55 0
    endloop
  endfacet
  facet normal 0 0 -1
    outer loop
      vertex 22.5 47.5 0
      vertex -30 55 0
      vertex 35 55 0
    endloop
  endfacet
  facet normal 0 0 -1
    outer loop
      vertex 30 -55 0
      vertex 35 55 0
      vertex 35 -50 0
    endloop
  endfacet
  facet normal 0 0 -1
    outer loop
      vertex 30 -55 0
      vertex 35 -50 0
      vertex 34.619 -51.913 0
    endloop
  endfacet
  facet normal 0 0 -1
    outer loop
      vertex 30 -55 0
      vertex 34.619 -51.913 0
      vertex 33.536 -53.536 0
    endloop
  endfacet
  facet normal 0 0 -1
    outer loop
      vertex 30 -55 0
      vertex 33.536 -53.536 0
      vertex 31.913 -54.619 0
    endloop
  endfacet
  facet normal 0 0 -1
    outer loop
      vertex -27.5 -42.5 0
      vertex -35 50 0
      vertex -34.619 51.913 0
    endloop
  endfacet
  facet normal 0 0 -1
    outer loop
      vertex -35 -55 0
      vertex -35 50 0
      vertex -27.5 -42.5 0
    endloop
  endfacet
  facet normal 0 0 -1
    outer loop
      vertex -35 -55 0
      vertex -27.5 -42.5 0
      vertex -27.119 -44.413 0
    endloop
  endfacet
  facet normal 0 0 -1
    outer loop
      vertex -35 -55 0
      vertex -27.119 -44.413 0
      vertex -26.036 -46.036 0
    endloop
  endfacet
  facet normal 0 0 -1
    outer loop
      vertex -35 -55 0
      vertex -26.036 -46.036 0
      vertex -24.413 -47.119 0
    endloop
  endfacet
  facet normal 0 0 -1
    outer loop
      vertex -27.119 44.413 0
      vertex -31.913 54.619 0
      vertex -26.036 46.036 0
    endloop
  endfacet
  facet normal 0 0 -1
    outer loop
      vertex -35 -55 0
      vertex -24.413 -47.119 0
      vertex -22.5 -47.5 0
    endloop
  endfacet
  facet normal 0 0 -1
    outer loop
      vertex -35 -55 0
      vertex -22.5 -47.5 0
      vertex 30 -55 0
    endloop
  endfacet
  facet normal 0 0 -1
    outer loop
      vertex 22.5 -47.5 0
      vertex 30 -55 0
      vertex -22.5 -47.5 0
    endloop
  endfacet
  facet normal 0 0 -1
    outer loop
      vertex 26.036 -46.036 0
      vertex 30 -55 0
      vertex 24.413 -47.119 0
    endloop
  endfacet
  facet normal 0 0 -1
    outer loop
      vertex 22.5 -47.5 0
      vertex 24.413 -47.119 0
      vertex 30 -55 0
    endloop
  endfacet
  facet normal 0 0 -1
    outer loop
      vertex 27.5 42.5 0
      vertex 35 55 0
      vertex 27.5 -42.5 0
    endloop
  endfacet
  facet normal 0 0 -1
    outer loop
      vertex 30 -55 0
      vertex 26.036 -46.036 0
      vertex 27.119 -44.413 0
    endloop
  endfacet
  facet normal 0 0 -1
    outer loop
      vertex 30 -55 0
      vertex 27.119 -44.413 0
      vertex 27.5 -42.5 0
    endloop
  endfacet
  facet normal 0 0 -1
    outer loop
      vertex 30 -55 0
      vertex 27.5 -42.5 0
      vertex 35 55 0
    endloop
  endfacet
  facet normal 0 0 -1
    outer loop
      vertex -26.036 46.036 0
      vertex -30 55 0
      vertex -24.413 47.119 0
    endloop
  endfacet
  facet normal 0 0 -1
    outer loop
      vertex -22.5 47.5 0
      vertex -30 55 0
      vertex 22.5 47.5 0
    endloop
  endfacet
  facet normal 0 0 -1
    outer loop
      vertex 27.5 42.5 0
      vertex 27.119 44.413 0
      vertex 35 55 0
    endloop
  endfacet
  facet normal 0 0 -1
    outer loop
      vertex 27.119 44.413 0
      vertex 26.036 46.036 0
      vertex 35 55 0
    endloop
  endfacet
  facet normal 0 0 -1
    outer loop
      vertex 26.036 46.036 0
      vertex 24.413 47.119 0
      vertex 35 55 0
    endloop
  endfacet
  facet normal 0 0 -1
    outer loop
      vertex 24.413 47.119 0
      vertex 22.5 47.5 0
      vertex 35 55 0
    endloop
  endfacet
  facet normal 0 0 -1
    outer loop
      vertex -24.413 47.119 0
      vertex -30 55 0
      vertex -22.5 47.5 0
    endloop
  endfacet
  facet normal 0 0 -1
    outer loop
      vertex -27.5 -42.5 0
      vertex -34.619 51.913 0
      vertex -27.5 42.5 0
    endloop
  endfacet
  facet normal 0 0 -1
    outer loop
      vertex -27.5 42.5 0
      vertex -33.536 53.536 0
      vertex -27.119 44.413 0
    endloop
  endfacet
  facet normal -1 0 0
    outer loop
      vertex -35 -38.0398 9.72912
      vertex -35 50 0
      vertex -35 -40 9.5
    endloop
  endfacet
  facet normal -1 0 0
    outer loop
      vertex -35 -48.3709 16.524
      vertex -35 -48.5 18
      vertex -35 -48.4568 18
    endloop
  endfacet
  facet normal -1 0 0
    outer loop
      vertex -35 -48.3709 16.524
      vertex -35 -55 18
      vertex -35 -48.5 18
    endloop
  endfacet
  facet normal -1 0 0
    outer loop
      vertex -35 -55 0
      vertex -35 -55 18
      vertex -35 -48.3709 16.524
    endloop
  endfacet
  facet normal -1 0 0
    outer loop
      vertex -35 -55 0
      vertex -35 -48.3709 16.524
      vertex -35 -47.8048 14.6333
    endloop
  endfacet
  facet normal -1 0 0
    outer loop
      vertex -35 -55 0
      vertex -35 -47.8048 14.6333
      vertex -35 -46.818 12.9242
    endloop
  endfacet
  facet normal -1 0 0
    outer loop
      vertex -35 -55 0
      vertex -35 -46.818 12.9242
      vertex -35 -45.4637 11.4886
    endloop
  endfacet
  facet normal -1 0 0
    outer loop
      vertex -35 -55 0
      vertex -35 -45.4637 11.4886
      vertex -35 -43.8148 10.4041
    endloop
  endfacet
  facet normal -1 0 0
    outer loop
      vertex -35 -55 0
      vertex -35 -43.8148 10.4041
      vertex -35 -41.9602 9.72912
    endloop
  endfacet
  facet normal -1 0 0
    outer loop
      vertex -35 -55 0
      vertex -35 -41.9602 9.72912
      vertex -35 -40 9.5
    endloop
  endfacet
  facet normal -1 0 0
    outer loop
      vertex -35 -55 0
      vertex -35 -40 9.5
      vertex -35 50 0
    endloop
  endfacet
  facet normal -1 0 0
    outer loop
      vertex -35 -36.1852 10.4041
      vertex -35 50 0
      vertex -35 -38.0398 9.72912
    endloop
  endfacet
  facet normal -1 0 0
    outer loop
      vertex -35 -34.5363 11.4886
      vertex -35 50 0
      vertex -35 -36.1852 10.4041
    endloop
  endfacet
  facet normal -1 0 0
    outer loop
      vertex -35 -33.182 12.9242
      vertex -35 50 0
      vertex -35 -34.5363 11.4886
    endloop
  endfacet
  facet normal -1 0 0
    outer loop
      vertex -35 -32.1952 14.6333
      vertex -35 50 0
      vertex -35 -33.182 12.9242
    endloop
  endfacet
  facet normal -1 0 0
    outer loop
      vertex -35 50 0
      vertex -35 -31.6291 16.524
      vertex -35 -31.5432 18
    endloop
  endfacet
  facet normal -1 0 0
    outer loop
      vertex -35 -31.5432 18
      vertex -35 -31.5 18
      vertex -35 50 0
    endloop
  endfacet
  facet normal -1 0 0
    outer loop
      vertex -35 33.5182 17.5143
      vertex -35 -31.5 18
      vertex -35 33.5 18
    endloop
  endfacet
  facet normal -1 0 0
    outer loop
      vertex -35 33.5182 17.5143
      vertex -35 33.5 18
      vertex -35 33.5546 18
    endloop
  endfacet
  facet normal -1 0 0
    outer loop
      vertex -35 33.9493 15.6253
      vertex -35 -31.5 18
      vertex -35 33.5182 17.5143
    endloop
  endfacet
  facet normal -1 0 0
    outer loop
      vertex -35 38.0841 11.7888
      vertex -35 50 0
      vertex -35 36.3384 12.6294
    endloop
  endfacet
  facet normal -1 0 0
    outer loop
      vertex -35 34.9181 13.9473
      vertex -35 -31.5 18
      vertex -35 33.9493 15.6253
    endloop
  endfacet
  facet normal -1 0 0
    outer loop
      vertex -35 36.3384 12.6294
      vertex -35 -31.5 18
      vertex -35 34.9181 13.9473
    endloop
  endfacet
  facet normal -1 0 0
    outer loop
      vertex -35 50 0
      vertex -35 -31.5 18
      vertex -35 36.3384 12.6294
    endloop
  endfacet
  facet normal -1 0 0
    outer loop
      vertex -35 40 11.5
      vertex -35 50 0
      vertex -35 38.0841 11.7888
    endloop
  endfacet
  facet normal -1 0 0
    outer loop
      vertex -35 50 0
      vertex -35 40 11.5
      vertex -35 41.9159 11.7888
    endloop
  endfacet
  facet normal -1 0 0
    outer loop
      vertex -35 41.9159 11.7888
      vertex -35 43.6616 12.6294
      vertex -35 50 0
    endloop
  endfacet
  facet normal -1 0 0
    outer loop
      vertex -35 43.6616 12.6294
      vertex -35 45.0819 13.9473
      vertex -35 50 0
    endloop
  endfacet
  facet normal -1 0 0
    outer loop
      vertex -35 45.0819 13.9473
      vertex -35 46.0507 15.6253
      vertex -35 50 0
    endloop
  endfacet
  facet normal -1 0 0
    outer loop
      vertex -35 46.0507 15.6253
      vertex -35 46.4818 17.5143
      vertex -35 50 0
    endloop
  endfacet
  facet normal -1 0 0
    outer loop
      vertex -35 46.4818 17.5143
      vertex -35 46.4454 18
      vertex -35 50 0
    endloop
  endfacet
  facet normal -1 0 0
    outer loop
      vertex -35 46.4454 18
      vertex -35 46.5 18
      vertex -35 50 0
    endloop
  endfacet
  facet normal -1 0 0
    outer loop
      vertex -35 50 0
      vertex -35 46.5 18
      vertex -35 50 18
    endloop
  endfacet
  facet normal -1 0 0
    outer loop
      vertex -35 -31.6291 16.524
      vertex -35 50 0
      vertex -35 -32.1952 14.6333
    endloop
  endfacet
  facet normal 0 0 1
    outer loop
      vertex -27.5 -52.5 18
      vertex -35 -55 18
      vertex 30 -55 18
    endloop
  endfacet
  facet normal 0 0 1
    outer loop
      vertex -32.119 -49.413 18
      vertex -32.3008 -48.5 18
      vertex -35 -48.5 18
    endloop
  endfacet
  facet normal 0 0 1
    outer loop
      vertex 31.036 -51.036 18
      vertex 29.413 -52.119 18
      vertex 34.619 -51.913 18
    endloop
  endfacet
  facet normal 0 0 1
    outer loop
      vertex 32.5 47.5 18
      vertex 32.5 -47.5 18
      vertex 35 -50 18
    endloop
  endfacet
  facet normal 0 0 1
    outer loop
      vertex -27.5 52.5 18
      vertex 27.5 52.5 18
      vertex 35 55 18
    endloop
  endfacet
  facet normal 0 0 1
    outer loop
      vertex -31.036 51.036 18
      vertex -29.413 52.119 18
      vertex -30 55 18
    endloop
  endfacet
  facet normal 0 0 1
    outer loop
      vertex -32.5 47.5 18
      vertex -32.119 49.413 18
      vertex -31.913 54.619 18
    endloop
  endfacet
  facet normal 0 0 1
    outer loop
      vertex 27.5 -52.5 18
      vertex 31.913 -54.619 18
      vertex 33.536 -53.536 18
    endloop
  endfacet
  facet normal 0 0 1
    outer loop
      vertex -35 50 18
      vertex -35 46.5 18
      vertex -34.619 51.913 18
    endloop
  endfacet
  facet normal 0 0 1
    outer loop
      vertex -32.119 49.413 18
      vertex -31.036 51.036 18
      vertex -31.913 54.619 18
    endloop
  endfacet
  facet normal 0 0 1
    outer loop
      vertex -33.536 53.536 18
      vertex -32.5 47.5 18
      vertex -31.913 54.619 18
    endloop
  endfacet
  facet normal 0 0 1
    outer loop
      vertex -33.536 53.536 18
      vertex -32.5 46.5 18
      vertex -32.5 47.5 18
    endloop
  endfacet
  facet normal 0 0 1
    outer loop
      vertex -31.913 54.619 18
      vertex -31.036 51.036 18
      vertex -30 55 18
    endloop
  endfacet
  facet normal 0 0 1
    outer loop
      vertex 31.036 51.036 18
      vertex 32.119 49.413 18
      vertex 35 55 18
    endloop
  endfacet
  facet normal 0 0 1
    outer loop
      vertex -30 55 18
      vertex -27.5 52.5 18
      vertex 35 55 18
    endloop
  endfacet
  facet normal 0 0 1
    outer loop
      vertex -30 55 18
      vertex -29.413 52.119 18
      vertex -27.5 52.5 18
    endloop
  endfacet
  facet normal 0 0 1
    outer loop
      vertex 27.5 52.5 18
      vertex 29.413 52.119 18
      vertex 35 55 18
    endloop
  endfacet
  facet normal 0 0 1
    outer loop
      vertex 29.413 52.119 18
      vertex 31.036 51.036 18
      vertex 35 55 18
    endloop
  endfacet
  facet normal 0 0 1
    outer loop
      vertex 32.119 -49.413 18
      vertex 31.036 -51.036 18
      vertex 35 -50 18
    endloop
  endfacet
  facet normal 0 0 1
    outer loop
      vertex 35 55 18
      vertex 32.5 47.5 18
      vertex 35 -50 18
    endloop
  endfacet
  facet normal 0 0 1
    outer loop
      vertex 35 55 18
      vertex 32.119 49.413 18
      vertex 32.5 47.5 18
    endloop
  endfacet
  facet normal 0 0 1
    outer loop
      vertex 32.5 -47.5 18
      vertex 32.119 -49.413 18
      vertex 35 -50 18
    endloop
  endfacet
  facet normal 0 0 1
    outer loop
      vertex 35 -50 18
      vertex 31.036 -51.036 18
      vertex 34.619 -51.913 18
    endloop
  endfacet
  facet normal 0 0 1
    outer loop
      vertex 34.619 -51.913 18
      vertex 29.413 -52.119 18
      vertex 33.536 -53.536 18
    endloop
  endfacet
  facet normal 0 0 1
    outer loop
      vertex 29.413 -52.119 18
      vertex 27.5 -52.5 18
      vertex 33.536 -53.536 18
    endloop
  endfacet
  facet normal 0 0 1
    outer loop
      vertex -29.413 -52.119 18
      vertex -35 -55 18
      vertex -27.5 -52.5 18
    endloop
  endfacet
  facet normal 0 0 1
    outer loop
      vertex -35 -48.5 18
      vertex -35 -55 18
      vertex -29.413 -52.119 18
    endloop
  endfacet
  facet normal 0 0 1
    outer loop
      vertex -35 -48.5 18
      vertex -29.413 -52.119 18
      vertex -31.036 -51.036 18
    endloop
  endfacet
  facet normal 0 0 1
    outer loop
      vertex -31.036 -51.036 18
      vertex -32.119 -49.413 18
      vertex -35 -48.5 18
    endloop
  endfacet
  facet normal 0 0 1
    outer loop
      vertex -35 46.5 18
      vertex -33.536 53.536 18
      vertex -34.619 51.913 18
    endloop
  endfacet
  facet normal 0 0 1
    outer loop
      vertex -35 46.5 18
      vertex -32.5 46.5 18
      vertex -33.536 53.536 18
    endloop
  endfacet
  facet normal 0 0 1
    outer loop
      vertex 27.5 -52.5 18
      vertex 30 -55 18
      vertex 31.913 -54.619 18
    endloop
  endfacet
  facet normal 0 0 1
    outer loop
      vertex 27.5 -52.5 18
      vertex -27.5 -52.5 18
      vertex 30 -55 18
    endloop
  endfacet
  facet normal 0.195327 -0.980738 0
    outer loop
      vertex 30 -55 18
      vertex 30 -55 0
      vertex 31.913 -54.619 0
    endloop
  endfacet
  facet normal 0.195327 -0.980738 0
    outer loop
      vertex 31.913 -54.619 18
      vertex 30 -55 18
      vertex 31.913 -54.619 0
    endloop
  endfacet
  facet normal 0.555055 -0.831814 0
    outer loop
      vertex 31.913 -54.619 18
      vertex 31.913 -54.619 0
      vertex 33.536 -53.536 0
    endloop
  endfacet
  facet normal 0.555055 -0.831814 0
    outer loop
      vertex 33.536 -53.536 18
      vertex 31.913 -54.619 18
      vertex 33.536 -53.536 0
    endloop
  endfacet
  facet normal 0.831814 -0.555055 0
    outer loop
      vertex 33.536 -53.536 18
      vertex 33.536 -53.536 0
      vertex 34.619 -51.913 0
    endloop
  endfacet
  facet normal 0.831814 -0.555055 0
    outer loop
      vertex 34.619 -51.913 18
      vertex 33.536 -53.536 18
      vertex 34.619 -51.913 0
    endloop
  endfacet
  facet normal 0.980738 -0.195327 0
    outer loop
      vertex 34.619 -51.913 18
      vertex 34.619 -51.913 0
      vertex 35 -50 0
    endloop
  endfacet
  facet normal 0.980738 -0.195327 0
    outer loop
      vertex 35 -50 18
      vertex 34.619 -51.913 18
      vertex 35 -50 0
    endloop
  endfacet
  facet normal 1 0 0
    outer loop
      vertex 35 -50 18
      vertex 35 -50 0
      vertex 35 55 0
    endloop
  endfacet
  facet normal 1 0 0
    outer loop
      vertex 35 55 18
      vertex 35 -50 18
      vertex 35 55 0
    endloop
  endfacet
  facet normal 0 1 0
    outer loop
      vertex -30 55 0
      vertex -30 55 18
      vertex 35 55 0
    endloop
  endfacet
  facet normal 0 1 0
    outer loop
      vertex 35 55 0
      vertex -30 55 18
      vertex 35 55 18
    endloop
  endfacet
  facet normal -0.195327 0.980738 0
    outer loop
      vertex -31.913 54.619 0
      vertex -31.913 54.619 18
      vertex -30 55 0
    endloop
  endfacet
  facet normal -0.195327 0.980738 0
    outer loop
      vertex -30 55 0
      vertex -31.913 54.619 18
      vertex -30 55 18
    endloop
  endfacet
  facet normal -0.555055 0.831814 0
    outer loop
      vertex -33.536 53.536 0
      vertex -33.536 53.536 18
      vertex -31.913 54.619 0
    endloop
  endfacet
  facet normal -0.555055 0.831814 0
    outer loop
      vertex -31.913 54.619 0
      vertex -33.536 53.536 18
      vertex -31.913 54.619 18
    endloop
  endfacet
  facet normal -0.831814 0.555055 0
    outer loop
      vertex -34.619 51.913 0
      vertex -34.619 51.913 18
      vertex -33.536 53.536 0
    endloop
  endfacet
  facet normal -0.831814 0.555055 0
    outer loop
      vertex -33.536 53.536 0
      vertex -34.619 51.913 18
      vertex -33.536 53.536 18
    endloop
  endfacet
  facet normal -0.980738 0.195327 0
    outer loop
      vertex -35 50 0
      vertex -35 50 18
      vertex -34.619 51.913 0
    endloop
  endfacet
  facet normal -0.980738 0.195327 0
    outer loop
      vertex -34.619 51.913 0
      vertex -35 50 18
      vertex -34.619 51.913 18
    endloop
  endfacet
  facet normal 1 0 0
    outer loop
      vertex -27.5 42.5 0
      vertex -27.5 42.5 1
      vertex -27.5 -42.5 1
    endloop
  endfacet
  facet normal 1 0 0
    outer loop
      vertex -27.5 -42.5 0
      vertex -27.5 42.5 0
      vertex -27.5 -42.5 1
    endloop
  endfacet
  facet normal 0.980738 -0.195327 0
    outer loop
      vertex -27.119 44.413 0
      vertex -27.119 44.413 1
      vertex -27.5 42.5 1
    endloop
  endfacet
  facet normal 0.980738 -0.195327 0
    outer loop
      vertex -27.5 42.5 0
      vertex -27.119 44.413 0
      vertex -27.5 42.5 1
    endloop
  endfacet
  facet normal 0.831814 -0.555055 0
    outer loop
      vertex -26.036 46.036 0
      vertex -26.036 46.036 1
      vertex -27.119 44.413 1
    endloop
  endfacet
  facet normal 0.831814 -0.555055 0
    outer loop
      vertex -27.119 44.413 0
      vertex -26.036 46.036 0
      vertex -27.119 44.413 1
    endloop
  endfacet
  facet normal 0.555055 -0.831814 0
    outer loop
      vertex -24.413 47.119 0
      vertex -24.413 47.119 1
      vertex -26.036 46.036 1
    endloop
  endfacet
  facet normal 0.555055 -0.831814 0
    outer loop
      vertex -26.036 46.036 0
      vertex -24.413 47.119 0
      vertex -26.036 46.036 1
    endloop
  endfacet
  facet normal 0.195327 -0.980738 0
    outer loop
      vertex -22.5 47.5 0
      vertex -22.5 47.5 1
      vertex -24.413 47.119 1
    endloop
  endfacet
  facet normal 0.195327 -0.980738 0
    outer loop
      vertex -24.413 47.119 0
      vertex -22.5 47.5 0
      vertex -24.413 47.119 1
    endloop
  endfacet
  facet normal 0 -1 0
    outer loop
      vertex 22.5 47.5 0
      vertex 22.5 47.5 1
      vertex -22.5 47.5 1
    endloop
  endfacet
  facet normal 0 -1 0
    outer loop
      vertex -22.5 47.5 0
      vertex 22.5 47.5 0
      vertex -22.5 47.5 1
    endloop
  endfacet
  facet normal -0.195327 -0.980738 0
    outer loop
      vertex 24.413 47.119 0
      vertex 24.413 47.119 1
      vertex 22.5 47.5 1
    endloop
  endfacet
  facet normal -0.195327 -0.980738 0
    outer loop
      vertex 22.5 47.5 0
      vertex 24.413 47.119 0
      vertex 22.5 47.5 1
    endloop
  endfacet
  facet normal -0.555055 -0.831814 0
    outer loop
      vertex 26.036 46.036 0
      vertex 26.036 46.036 1
      vertex 24.413 47.119 1
    endloop
  endfacet
  facet normal -0.555055 -0.831814 0
    outer loop
      vertex 24.413 47.119 0
      vertex 26.036 46.036 0
      vertex 24.413 47.119 1
    endloop
  endfacet
  facet normal -0.831814 -0.555055 0
    outer loop
      vertex 27.119 44.413 1
      vertex 26.036 46.036 1
      vertex 27.119 44.413 0
    endloop
  endfacet
  facet normal -0.831814 -0.555055 0
    outer loop
      vertex 27.119 44.413 0
      vertex 26.036 46.036 1
      vertex 26.036 46.036 0
    endloop
  endfacet
  facet normal -0.980738 -0.195327 0
    outer loop
      vertex 27.5 42.5 1
      vertex 27.119 44.413 1
      vertex 27.5 42.5 0
    endloop
  endfacet
  facet normal -0.980738 -0.195327 0
    outer loop
      vertex 27.5 42.5 0
      vertex 27.119 44.413 1
      vertex 27.119 44.413 0
    endloop
  endfacet
  facet normal -1 0 0
    outer loop
      vertex 27.5 42.5 1
      vertex 27.5 42.5 0
      vertex 27.5 -42.5 1
    endloop
  endfacet
  facet normal -1 0 0
    outer loop
      vertex 27.5 -42.5 1
      vertex 27.5 42.5 0
      vertex 27.5 -42.5 0
    endloop
  endfacet
  facet normal -0.980738 0.195327 0
    outer loop
      vertex 27.5 -42.5 1
      vertex 27.5 -42.5 0
      vertex 27.119 -44.413 1
    endloop
  endfacet
  facet normal -0.980738 0.195327 0
    outer loop
      vertex 27.119 -44.413 1
      vertex 27.5 -42.5 0
      vertex 27.119 -44.413 0
    endloop
  endfacet
  facet normal -0.831814 0.555055 0
    outer loop
      vertex 27.119 -44.413 1
      vertex 27.119 -44.413 0
      vertex 26.036 -46.036 1
    endloop
  endfacet
  facet normal -0.831814 0.555055 0
    outer loop
      vertex 26.036 -46.036 1
      vertex 27.119 -44.413 0
      vertex 26.036 -46.036 0
    endloop
  endfacet
  facet normal -0.555055 0.831814 0
    outer loop
      vertex 26.036 -46.036 1
      vertex 26.036 -46.036 0
      vertex 24.413 -47.119 1
    endloop
  endfacet
  facet normal -0.555055 0.831814 0
    outer loop
      vertex 24.413 -47.119 1
      vertex 26.036 -46.036 0
      vertex 24.413 -47.119 0
    endloop
  endfacet
  facet normal -0.195327 0.980738 0
    outer loop
      vertex 24.413 -47.119 1
      vertex 24.413 -47.119 0
      vertex 22.5 -47.5 1
    endloop
  endfacet
  facet normal -0.195327 0.980738 0
    outer loop
      vertex 22.5 -47.5 1
      vertex 24.413 -47.119 0
      vertex 22.5 -47.5 0
    endloop
  endfacet
  facet normal 0 1 0
    outer loop
      vertex 22.5 -47.5 1
      vertex 22.5 -47.5 0
      vertex -22.5 -47.5 1
    endloop
  endfacet
  facet normal 0 1 0
    outer loop
      vertex -22.5 -47.5 1
      vertex 22.5 -47.5 0
      vertex -22.5 -47.5 0
    endloop
  endfacet
  facet normal 0.195327 0.980738 0
    outer loop
      vertex -22.5 -47.5 1
      vertex -22.5 -47.5 0
      vertex -24.413 -47.119 1
    endloop
  endfacet
  facet normal 0.195327 0.980738 0
    outer loop
      vertex -24.413 -47.119 1
      vertex -22.5 -47.5 0
      vertex -24.413 -47.119 0
    endloop
  endfacet
  facet normal 0.555055 0.831814 0
    outer loop
      vertex -24.413 -47.119 1
      vertex -24.413 -47.119 0
      vertex -26.036 -46.036 1
    endloop
  endfacet
  facet normal 0.555055 0.831814 0
    outer loop
      vertex -26.036 -46.036 1
      vertex -24.413 -47.119 0
      vertex -26.036 -46.036 0
    endloop
  endfacet
  facet normal 0.831814 0.555055 0
    outer loop
      vertex -27.119 -44.413 1
      vertex -26.036 -46.036 1
      vertex -26.036 -46.036 0
    endloop
  endfacet
  facet normal 0.831814 0.555055 0
    outer loop
      vertex -27.119 -44.413 0
      vertex -27.119 -44.413 1
      vertex -26.036 -46.036 0
    endloop
  endfacet
  facet normal 0.980738 0.195327 0
    outer loop
      vertex -27.5 -42.5 1
      vertex -27.119 -44.413 1
      vertex -27.119 -44.413 0
    endloop
  endfacet
  facet normal 0.980738 0.195327 0
    outer loop
      vertex -27.5 -42.5 0
      vertex -27.5 -42.5 1
      vertex -27.119 -44.413 0
    endloop
  endfacet
  facet normal 0 -1 0
    outer loop
      vertex -31.5 46.5 18
      vertex -31.5 46.5 28
      vertex -32.5 46.5 28
    endloop
  endfacet
  facet normal 0 -1 0
    outer loop
      vertex -35 46.5 18
      vertex -31.5 46.5 18
      vertex -32.5 46.5 18
    endloop
  endfacet
  facet normal 0 -1 0
    outer loop
      vertex -32.5 46.5 18
      vertex -31.5 46.5 18
      vertex -32.5 46.5 28
    endloop
  endfacet
  facet normal -6.12323e-17 0 1
    outer loop
      vertex -31.5 46.4454 18
      vertex -31.5 46.5 18
      vertex -35 46.5 18
    endloop
  endfacet
  facet normal -6.12323e-17 0 1
    outer loop
      vertex -35 46.4454 18
      vertex -31.5 46.4454 18
      vertex -35 46.5 18
    endloop
  endfacet
  facet normal 4.57592e-18 -0.997204 -0.0747305
    outer loop
      vertex -35 46.4818 17.5143
      vertex -31.5 46.4818 17.5143
      vertex -31.5 46.4454 18
    endloop
  endfacet
  facet normal 4.57592e-18 -0.997204 -0.0747305
    outer loop
      vertex -35 46.4454 18
      vertex -35 46.4818 17.5143
      vertex -31.5 46.4454 18
    endloop
  endfacet
  facet normal -1.36255e-17 -0.974928 0.222521
    outer loop
      vertex -31.5 46.0507 15.6253
      vertex -31.5 46.4818 17.5143
      vertex -35 46.4818 17.5143
    endloop
  endfacet
  facet normal -1.36255e-17 -0.974928 0.222521
    outer loop
      vertex -35 46.0507 15.6253
      vertex -31.5 46.0507 15.6253
      vertex -35 46.4818 17.5143
    endloop
  endfacet
  facet normal -3.06162e-17 -0.866026 0.5
    outer loop
      vertex -31.5 45.0819 13.9473
      vertex -31.5 46.0507 15.6253
      vertex -35 46.0507 15.6253
    endloop
  endfacet
  facet normal -3.06162e-17 -0.866026 0.5
    outer loop
      vertex -35 45.0819 13.9473
      vertex -31.5 45.0819 13.9473
      vertex -35 46.0507 15.6253
    endloop
  endfacet
  facet normal -4.48865e-17 -0.680172 0.733052
    outer loop
      vertex -31.5 43.6616 12.6294
      vertex -31.5 45.0819 13.9473
      vertex -35 45.0819 13.9473
    endloop
  endfacet
  facet normal -4.48865e-17 -0.680172 0.733052
    outer loop
      vertex -35 43.6616 12.6294
      vertex -31.5 43.6616 12.6294
      vertex -35 45.0819 13.9473
    endloop
  endfacet
  facet normal -5.51684e-17 -0.433884 0.900969
    outer loop
      vertex -31.5 41.9159 11.7888
      vertex -31.5 43.6616 12.6294
      vertex -35 43.6616 12.6294
    endloop
  endfacet
  facet normal -5.51684e-17 -0.433884 0.900969
    outer loop
      vertex -35 41.9159 11.7888
      vertex -31.5 41.9159 11.7888
      vertex -35 43.6616 12.6294
    endloop
  endfacet
  facet normal -6.05484e-17 -0.149042 0.988831
    outer loop
      vertex -31.5 40 11.5
      vertex -31.5 41.9159 11.7888
      vertex -35 41.9159 11.7888
    endloop
  endfacet
  facet normal -6.05484e-17 -0.149042 0.988831
    outer loop
      vertex -35 40 11.5
      vertex -31.5 40 11.5
      vertex -35 41.9159 11.7888
    endloop
  endfacet
  facet normal -6.05484e-17 0.149042 0.988831
    outer loop
      vertex -31.5 38.0841 11.7888
      vertex -31.5 40 11.5
      vertex -35 40 11.5
    endloop
  endfacet
  facet normal -6.05484e-17 0.149042 0.988831
    outer loop
      vertex -35 38.0841 11.7888
      vertex -31.5 38.0841 11.7888
      vertex -35 40 11.5
    endloop
  endfacet
  facet normal -5.51684e-17 0.433884 0.900969
    outer loop
      vertex -31.5 36.3384 12.6294
      vertex -31.5 38.0841 11.7888
      vertex -35 38.0841 11.7888
    endloop
  endfacet
  facet normal -5.51684e-17 0.433884 0.900969
    outer loop
      vertex -35 36.3384 12.6294
      vertex -31.5 36.3384 12.6294
      vertex -35 38.0841 11.7888
    endloop
  endfacet
  facet normal -4.48865e-17 0.680172 0.733052
    outer loop
      vertex -31.5 34.9181 13.9473
      vertex -31.5 36.3384 12.6294
      vertex -35 36.3384 12.6294
    endloop
  endfacet
  facet normal -4.48865e-17 0.680172 0.733052
    outer loop
      vertex -35 34.9181 13.9473
      vertex -31.5 34.9181 13.9473
      vertex -35 36.3384 12.6294
    endloop
  endfacet
  facet normal -3.06162e-17 0.866026 0.5
    outer loop
      vertex -31.5 34.9181 13.9473
      vertex -35 34.9181 13.9473
      vertex -31.5 33.9493 15.6253
    endloop
  endfacet
  facet normal -3.06162e-17 0.866026 0.5
    outer loop
      vertex -31.5 33.9493 15.6253
      vertex -35 34.9181 13.9473
      vertex -35 33.9493 15.6253
    endloop
  endfacet
  facet normal -1.36255e-17 0.974928 0.222521
    outer loop
      vertex -31.5 33.9493 15.6253
      vertex -35 33.9493 15.6253
      vertex -31.5 33.5182 17.5143
    endloop
  endfacet
  facet normal -1.36255e-17 0.974928 0.222521
    outer loop
      vertex -31.5 33.5182 17.5143
      vertex -35 33.9493 15.6253
      vertex -35 33.5182 17.5143
    endloop
  endfacet
  facet normal 4.57592e-18 0.997204 -0.0747305
    outer loop
      vertex -31.5 33.5546 18
      vertex -31.5 33.5182 17.5143
      vertex -35 33.5546 18
    endloop
  endfacet
  facet normal 4.57592e-18 0.997204 -0.0747305
    outer loop
      vertex -35 33.5546 18
      vertex -31.5 33.5182 17.5143
      vertex -35 33.5182 17.5143
    endloop
  endfacet
  facet normal -6.12323e-17 0 1
    outer loop
      vertex -31.5 33.5 18
      vertex -31.5 33.5546 18
      vertex -35 33.5546 18
    endloop
  endfacet
  facet normal -6.12323e-17 0 1
    outer loop
      vertex -35 33.5 18
      vertex -31.5 33.5 18
      vertex -35 33.5546 18
    endloop
  endfacet
  facet normal 0 1 0
    outer loop
      vertex -32.5 33.5 18
      vertex -32.5 33.5 28
      vertex -31.5 33.5 28
    endloop
  endfacet
  facet normal 0 1 0
    outer loop
      vertex -32.5 33.5 18
      vertex -31.5 33.5 28
      vertex -31.5 33.5 18
    endloop
  endfacet
  facet normal 0 1 0
    outer loop
      vertex -32.5 33.5 18
      vertex -31.5 33.5 18
      vertex -35 33.5 18
    endloop
  endfacet
  facet normal 0 0 1
    outer loop
      vertex -35 33.5 18
      vertex -35 -31.5 18
      vertex -32.5 -31.5 18
    endloop
  endfacet
  facet normal 0 0 1
    outer loop
      vertex -32.5 33.5 18
      vertex -35 33.5 18
      vertex -32.5 -31.5 18
    endloop
  endfacet
  facet normal 0 -1 0
    outer loop
      vertex -31.5 -31.5 18
      vertex -31.5 -31.5 28
      vertex -32.5 -31.5 28
    endloop
  endfacet
  facet normal 0 -1 0
    outer loop
      vertex -35 -31.5 18
      vertex -31.5 -31.5 18
      vertex -32.5 -31.5 18
    endloop
  endfacet
  facet normal 0 -1 0
    outer loop
      vertex -32.5 -31.5 18
      vertex -31.5 -31.5 18
      vertex -32.5 -31.5 28
    endloop
  endfacet
  facet normal -6.12323e-17 0 1
    outer loop
      vertex -31.5 -31.5432 18
      vertex -31.5 -31.5 18
      vertex -35 -31.5 18
    endloop
  endfacet
  facet normal -6.12323e-17 0 1
    outer loop
      vertex -35 -31.5432 18
      vertex -31.5 -31.5432 18
      vertex -35 -31.5 18
    endloop
  endfacet
  facet normal -3.56033e-18 -0.998308 0.0581446
    outer loop
      vertex -31.5 -31.6291 16.524
      vertex -31.5 -31.5432 18
      vertex -35 -31.5432 18
    endloop
  endfacet
  facet normal -3.56033e-18 -0.998308 0.0581446
    outer loop
      vertex -35 -31.6291 16.524
      vertex -31.5 -31.6291 16.524
      vertex -35 -31.5432 18
    endloop
  endfacet
  facet normal -1.75616e-17 -0.957989 0.286803
    outer loop
      vertex -31.5 -32.1952 14.6333
      vertex -31.5 -31.6291 16.524
      vertex -35 -31.6291 16.524
    endloop
  endfacet
  facet normal -1.75616e-17 -0.957989 0.286803
    outer loop
      vertex -35 -32.1952 14.6333
      vertex -31.5 -32.1952 14.6333
      vertex -35 -31.6291 16.524
    endloop
  endfacet
  facet normal -3.06162e-17 -0.866025 0.5
    outer loop
      vertex -31.5 -33.182 12.9242
      vertex -31.5 -32.1952 14.6333
      vertex -35 -32.1952 14.6333
    endloop
  endfacet
  facet normal -3.06162e-17 -0.866025 0.5
    outer loop
      vertex -35 -33.182 12.9242
      vertex -31.5 -33.182 12.9242
      vertex -35 -32.1952 14.6333
    endloop
  endfacet
  facet normal -4.20202e-17 -0.727374 0.686241
    outer loop
      vertex -31.5 -34.5363 11.4886
      vertex -31.5 -33.182 12.9242
      vertex -35 -33.182 12.9242
    endloop
  endfacet
  facet normal -4.20202e-17 -0.727374 0.686241
    outer loop
      vertex -35 -34.5363 11.4886
      vertex -31.5 -34.5363 11.4886
      vertex -35 -33.182 12.9242
    endloop
  endfacet
  facet normal -5.11589e-17 -0.549509 0.835488
    outer loop
      vertex -31.5 -36.1852 10.4041
      vertex -31.5 -34.5363 11.4886
      vertex -35 -34.5363 11.4886
    endloop
  endfacet
  facet normal -5.11589e-17 -0.549509 0.835488
    outer loop
      vertex -35 -36.1852 10.4041
      vertex -31.5 -36.1852 10.4041
      vertex -35 -34.5363 11.4886
    endloop
  endfacet
  facet normal -5.75396e-17 -0.34202 0.939693
    outer loop
      vertex -31.5 -38.0398 9.72912
      vertex -31.5 -36.1852 10.4041
      vertex -35 -36.1852 10.4041
    endloop
  endfacet
  facet normal -5.75396e-17 -0.34202 0.939693
    outer loop
      vertex -35 -38.0398 9.72912
      vertex -31.5 -38.0398 9.72912
      vertex -35 -36.1852 10.4041
    endloop
  endfacet
  facet normal -6.08183e-17 -0.116093 0.993238
    outer loop
      vertex -31.5 -40 9.5
      vertex -31.5 -38.0398 9.72912
      vertex -35 -38.0398 9.72912
    endloop
  endfacet
  facet normal -6.08183e-17 -0.116093 0.993238
    outer loop
      vertex -35 -40 9.5
      vertex -31.5 -40 9.5
      vertex -35 -38.0398 9.72912
    endloop
  endfacet
  facet normal -6.08183e-17 0.116093 0.993238
    outer loop
      vertex -31.5 -41.9602 9.72912
      vertex -31.5 -40 9.5
      vertex -35 -40 9.5
    endloop
  endfacet
  facet normal -6.08183e-17 0.116093 0.993238
    outer loop
      vertex -35 -41.9602 9.72912
      vertex -31.5 -41.9602 9.72912
      vertex -35 -40 9.5
    endloop
  endfacet
  facet normal -5.75396e-17 0.34202 0.939693
    outer loop
      vertex -31.5 -43.8148 10.4041
      vertex -31.5 -41.9602 9.72912
      vertex -35 -41.9602 9.72912
    endloop
  endfacet
  facet normal -5.75396e-17 0.34202 0.939693
    outer loop
      vertex -35 -43.8148 10.4041
      vertex -31.5 -43.8148 10.4041
      vertex -35 -41.9602 9.72912
    endloop
  endfacet
  facet normal -5.11589e-17 0.549509 0.835488
    outer loop
      vertex -31.5 -45.4637 11.4886
      vertex -31.5 -43.8148 10.4041
      vertex -35 -43.8148 10.4041
    endloop
  endfacet
  facet normal -5.11589e-17 0.549509 0.835488
    outer loop
      vertex -35 -45.4637 11.4886
      vertex -31.5 -45.4637 11.4886
      vertex -35 -43.8148 10.4041
    endloop
  endfacet
  facet normal -4.20202e-17 0.727374 0.686241
    outer loop
      vertex -31.5 -46.5 12.587
      vertex -31.5 -45.4637 11.4886
      vertex -35 -45.4637 11.4886
    endloop
  endfacet
  facet normal -4.20202e-17 0.727374 0.686241
    outer loop
      vertex -31.5 -46.5 12.587
      vertex -35 -45.4637 11.4886
      vertex -31.4367 -46.818 12.9242
    endloop
  endfacet
  facet normal -4.20202e-17 0.727374 0.686241
    outer loop
      vertex -35 -45.4637 11.4886
      vertex -35 -46.818 12.9242
      vertex -31.4367 -46.818 12.9242
    endloop
  endfacet
  facet normal -3.06162e-17 0.866025 0.5
    outer loop
      vertex -31.4367 -46.818 12.9242
      vertex -35 -46.818 12.9242
      vertex -31.2401 -47.8048 14.6333
    endloop
  endfacet
  facet normal -3.06162e-17 0.866025 0.5
    outer loop
      vertex -31.2401 -47.8048 14.6333
      vertex -35 -46.818 12.9242
      vertex -35 -47.8048 14.6333
    endloop
  endfacet
  facet normal -1.75616e-17 0.957989 0.286803
    outer loop
      vertex -31.2401 -47.8048 14.6333
      vertex -35 -47.8048 14.6333
      vertex -31.1274 -48.3709 16.524
    endloop
  endfacet
  facet normal -1.75616e-17 0.957989 0.286803
    outer loop
      vertex -31.1274 -48.3709 16.524
      vertex -35 -47.8048 14.6333
      vertex -35 -48.3709 16.524
    endloop
  endfacet
  facet normal -3.56033e-18 0.998308 0.0581446
    outer loop
      vertex -31.119 -48.413 17.2474
      vertex -31.1274 -48.3709 16.524
      vertex -35 -48.3709 16.524
    endloop
  endfacet
  facet normal -3.56033e-18 0.998308 0.0581446
    outer loop
      vertex -31.119 -48.413 17.2474
      vertex -35 -48.3709 16.524
      vertex -31.0898 -48.4568 18
    endloop
  endfacet
  facet normal -3.56033e-18 0.998308 0.0581446
    outer loop
      vertex -35 -48.3709 16.524
      vertex -35 -48.4568 18
      vertex -31.0898 -48.4568 18
    endloop
  endfacet
  facet normal -6.12323e-17 0 1
    outer loop
      vertex -31.0609 -48.5 18
      vertex -31.0898 -48.4568 18
      vertex -35 -48.4568 18
    endloop
  endfacet
  facet normal -6.12323e-17 0 1
    outer loop
      vertex -35 -48.5 18
      vertex -31.0609 -48.5 18
      vertex -35 -48.4568 18
    endloop
  endfacet
  facet normal 0 1 0
    outer loop
      vertex -32.3008 -48.5 18
      vertex -32.3008 -48.5 28
      vertex -31.0609 -48.5 28
    endloop
  endfacet
  facet normal 0 1 0
    outer loop
      vertex -32.3008 -48.5 18
      vertex -31.0609 -48.5 28
      vertex -31.0609 -48.5 18
    endloop
  endfacet
  facet normal 0 1 0
    outer loop
      vertex -32.3008 -48.5 18
      vertex -31.0609 -48.5 18
      vertex -35 -48.5 18
    endloop
  endfacet
  facet normal -0.980738 -0.195327 0
    outer loop
      vertex -32.3008 -48.5 18
      vertex -32.119 -49.413 18
      vertex -32.3008 -48.5 28
    endloop
  endfacet
  facet normal -0.980738 -0.195327 0
    outer loop
      vertex -32.3008 -48.5 28
      vertex -32.119 -49.413 18
      vertex -32.119 -49.413 28
    endloop
  endfacet
  facet normal -0.831814 -0.555055 0
    outer loop
      vertex -32.119 -49.413 18
      vertex -31.036 -51.036 18
      vertex -32.119 -49.413 28
    endloop
  endfacet
  facet normal -0.831814 -0.555055 0
    outer loop
      vertex -32.119 -49.413 28
      vertex -31.036 -51.036 18
      vertex -31.036 -51.036 28
    endloop
  endfacet
  facet normal -0.555055 -0.831814 0
    outer loop
      vertex -31.036 -51.036 28
      vertex -31.036 -51.036 18
      vertex -29.413 -52.119 18
    endloop
  endfacet
  facet normal -0.555055 -0.831814 0
    outer loop
      vertex -29.413 -52.119 28
      vertex -31.036 -51.036 28
      vertex -29.413 -52.119 18
    endloop
  endfacet
  facet normal -0.195327 -0.980738 0
    outer loop
      vertex -29.413 -52.119 28
      vertex -29.413 -52.119 18
      vertex -27.5 -52.5 18
    endloop
  endfacet
  facet normal -0.195327 -0.980738 0
    outer loop
      vertex -27.5 -52.5 28
      vertex -29.413 -52.119 28
      vertex -27.5 -52.5 18
    endloop
  endfacet
  facet normal 0 -1 0
    outer loop
      vertex -6 -52.5 23
      vertex -27.5 -52.5 18
      vertex 27.5 -52.5 18
    endloop
  endfacet
  facet normal 0 -1 0
    outer loop
      vertex -6 -52.5 23
      vertex -6 -52.5 28
      vertex -27.5 -52.5 28
    endloop
  endfacet
  facet normal 0 -1 0
    outer loop
      vertex 27.5 -52.5 28
      vertex 6 -52.5 28
      vertex 27.5 -52.5 18
    endloop
  endfacet
  facet normal 0 -1 0
    outer loop
      vertex 6 -52.5 28
      vertex 6 -52.5 23
      vertex 27.5 -52.5 18
    endloop
  endfacet
  facet normal 0 -1 0
    outer loop
      vertex -27.5 -52.5 28
      vertex -27.5 -52.5 18
      vertex -6 -52.5 23
    endloop
  endfacet
  facet normal 0 -1 0
    outer loop
      vertex 6 -52.5 23
      vertex -6 -52.5 23
      vertex 27.5 -52.5 18
    endloop
  endfacet
  facet normal 0.195327 -0.980738 0
    outer loop
      vertex 27.5 -52.5 28
      vertex 27.5 -52.5 18
      vertex 29.413 -52.119 18
    endloop
  endfacet
  facet normal 0.195327 -0.980738 0
    outer loop
      vertex 29.413 -52.119 28
      vertex 27.5 -52.5 28
      vertex 29.413 -52.119 18
    endloop
  endfacet
  facet normal 0.555055 -0.831814 0
    outer loop
      vertex 29.413 -52.119 28
      vertex 29.413 -52.119 18
      vertex 31.036 -51.036 18
    endloop
  endfacet
  facet normal 0.555055 -0.831814 0
    outer loop
      vertex 31.036 -51.036 28
      vertex 29.413 -52.119 28
      vertex 31.036 -51.036 18
    endloop
  endfacet
  facet normal 0.831814 -0.555055 0
    outer loop
      vertex 31.036 -51.036 28
      vertex 31.036 -51.036 18
      vertex 32.119 -49.413 18
    endloop
  endfacet
  facet normal 0.831814 -0.555055 0
    outer loop
      vertex 32.119 -49.413 28
      vertex 31.036 -51.036 28
      vertex 32.119 -49.413 18
    endloop
  endfacet
  facet normal 0.980738 -0.195327 0
    outer loop
      vertex 32.119 -49.413 28
      vertex 32.119 -49.413 18
      vertex 32.5 -47.5 18
    endloop
  endfacet
  facet normal 0.980738 -0.195327 0
    outer loop
      vertex 32.5 -47.5 28
      vertex 32.119 -49.413 28
      vertex 32.5 -47.5 18
    endloop
  endfacet
  facet normal 1 0 0
    outer loop
      vertex 32.5 -47.5 28
      vertex 32.5 -47.5 18
      vertex 32.5 47.5 18
    endloop
  endfacet
  facet normal 1 0 0
    outer loop
      vertex 32.5 47.5 28
      vertex 32.5 -47.5 28
      vertex 32.5 47.5 18
    endloop
  endfacet
  facet normal 0.980738 0.195327 0
    outer loop
      vertex 32.5 47.5 18
      vertex 32.119 49.413 18
      vertex 32.119 49.413 28
    endloop
  endfacet
  facet normal 0.980738 0.195327 0
    outer loop
      vertex 32.5 47.5 28
      vertex 32.5 47.5 18
      vertex 32.119 49.413 28
    endloop
  endfacet
  facet normal 0.831814 0.555055 0
    outer loop
      vertex 32.119 49.413 18
      vertex 31.036 51.036 18
      vertex 31.036 51.036 28
    endloop
  endfacet
  facet normal 0.831814 0.555055 0
    outer loop
      vertex 32.119 49.413 28
      vertex 32.119 49.413 18
      vertex 31.036 51.036 28
    endloop
  endfacet
  facet normal 0.555055 0.831814 0
    outer loop
      vertex 29.413 52.119 18
      vertex 29.413 52.119 28
      vertex 31.036 51.036 18
    endloop
  endfacet
  facet normal 0.555055 0.831814 0
    outer loop
      vertex 31.036 51.036 18
      vertex 29.413 52.119 28
      vertex 31.036 51.036 28
    endloop
  endfacet
  facet normal 0.195327 0.980738 0
    outer loop
      vertex 27.5 52.5 18
      vertex 27.5 52.5 28
      vertex 29.413 52.119 18
    endloop
  endfacet
  facet normal 0.195327 0.980738 0
    outer loop
      vertex 29.413 52.119 18
      vertex 27.5 52.5 28
      vertex 29.413 52.119 28
    endloop
  endfacet
  facet normal 0 1 0
    outer loop
      vertex -27.5 52.5 18
      vertex -27.5 52.5 28
      vertex 27.5 52.5 18
    endloop
  endfacet
  facet normal 0 1 0
    outer loop
      vertex -8 52.5 25
      vertex -27.5 52.5 28
      vertex -8 52.5 28
    endloop
  endfacet
  facet normal 0 1 0
    outer loop
      vertex 27.5 52.5 18
      vertex -27.5 52.5 28
      vertex -8 52.5 25
    endloop
  endfacet
  facet normal 0 1 0
    outer loop
      vertex 27.5 52.5 18
      vertex 8 52.5 25
      vertex 8 52.5 28
    endloop
  endfacet
  facet normal 0 1 0
    outer loop
      vertex 27.5 52.5 18
      vertex 8 52.5 28
      vertex 27.5 52.5 28
    endloop
  endfacet
  facet normal 0 1 0
    outer loop
      vertex 8 52.5 25
      vertex 27.5 52.5 18
      vertex -8 52.5 25
    endloop
  endfacet
  facet normal -0.195327 0.980738 0
    outer loop
      vertex -29.413 52.119 18
      vertex -29.413 52.119 28
      vertex -27.5 52.5 18
    endloop
  endfacet
  facet normal -0.195327 0.980738 0
    outer loop
      vertex -27.5 52.5 18
      vertex -29.413 52.119 28
      vertex -27.5 52.5 28
    endloop
  endfacet
  facet normal -0.555055 0.831814 0
    outer loop
      vertex -31.036 51.036 18
      vertex -31.036 51.036 28
      vertex -29.413 52.119 18
    endloop
  endfacet
  facet normal -0.555055 0.831814 0
    outer loop
      vertex -29.413 52.119 18
      vertex -31.036 51.036 28
      vertex -29.413 52.119 28
    endloop
  endfacet
  facet normal -0.831814 0.555055 0
    outer loop
      vertex -32.119 49.413 18
      vertex -32.119 49.413 28
      vertex -31.036 51.036 18
    endloop
  endfacet
  facet normal -0.831814 0.555055 0
    outer loop
      vertex -31.036 51.036 18
      vertex -32.119 49.413 28
      vertex -31.036 51.036 28
    endloop
  endfacet
  facet normal -0.980738 0.195327 0
    outer loop
      vertex -32.5 47.5 18
      vertex -32.5 47.5 28
      vertex -32.119 49.413 18
    endloop
  endfacet
  facet normal -0.980738 0.195327 0
    outer loop
      vertex -32.119 49.413 18
      vertex -32.5 47.5 28
      vertex -32.119 49.413 28
    endloop
  endfacet
  facet normal -1 0 0
    outer loop
      vertex -32.5 46.5 18
      vertex -32.5 46.5 28
      vertex -32.5 47.5 18
    endloop
  endfacet
  facet normal -1 0 0
    outer loop
      vertex -32.5 47.5 18
      vertex -32.5 46.5 28
      vertex -32.5 47.5 28
    endloop
  endfacet
  facet normal 0 0 1
    outer loop
      vertex -31.119 -48.413 1
      vertex -30.036 -50.036 1
      vertex -28.413 -51.119 1
    endloop
  endfacet
  facet normal 0 0 1
    outer loop
      vertex 26.5 -51.5 1
      vertex -31.119 -48.413 1
      vertex -26.5 -51.5 1
    endloop
  endfacet
  facet normal 0 0 1
    outer loop
      vertex -26.5 -51.5 1
      vertex -31.119 -48.413 1
      vertex -28.413 -51.119 1
    endloop
  endfacet
  facet normal 0 0 1
    outer loop
      vertex 28.413 -51.119 1
      vertex -31.119 -48.413 1
      vertex 26.5 -51.5 1
    endloop
  endfacet
  facet normal 0 0 1
    outer loop
      vertex 30.036 -50.036 1
      vertex -31.119 -48.413 1
      vertex 28.413 -51.119 1
    endloop
  endfacet
  facet normal 0 0 1
    outer loop
      vertex 31.119 -48.413 1
      vertex -31.119 -48.413 1
      vertex 30.036 -50.036 1
    endloop
  endfacet
  facet normal 0 0 1
    outer loop
      vertex 22.5 -47.5 1
      vertex -31.119 -48.413 1
      vertex 31.119 -48.413 1
    endloop
  endfacet
  facet normal 0 0 1
    outer loop
      vertex 27.119 44.413 1
      vertex 27.5 42.5 1
      vertex 31.119 48.413 1
    endloop
  endfacet
  facet normal 0 0 1
    outer loop
      vertex -30.036 50.036 1
      vertex -31.119 -48.413 1
      vertex -28.413 51.119 1
    endloop
  endfacet
  facet normal 0 0 1
    outer loop
      vertex -31.119 48.413 1
      vertex -31.119 -48.413 1
      vertex -30.036 50.036 1
    endloop
  endfacet
  facet normal 0 0 1
    outer loop
      vertex -31.5 46.5 1
      vertex -31.119 -48.413 1
      vertex -31.119 48.413 1
    endloop
  endfacet
  facet normal 0 0 1
    outer loop
      vertex -31.5 -46.5 1
      vertex -31.119 -48.413 1
      vertex -31.5 46.5 1
    endloop
  endfacet
  facet normal 0 0 1
    outer loop
      vertex -28.413 51.119 1
      vertex -27.5 42.5 1
      vertex -26.5 51.5 1
    endloop
  endfacet
  facet normal 0 0 1
    outer loop
      vertex -28.413 51.119 1
      vertex -31.119 -48.413 1
      vertex -27.5 42.5 1
    endloop
  endfacet
  facet normal 0 0 1
    outer loop
      vertex -27.5 42.5 1
      vertex -27.119 44.413 1
      vertex -26.5 51.5 1
    endloop
  endfacet
  facet normal 0 0 1
    outer loop
      vertex -22.5 47.5 1
      vertex 22.5 47.5 1
      vertex 26.5 51.5 1
    endloop
  endfacet
  facet normal 0 0 1
    outer loop
      vertex 26.036 46.036 1
      vertex 27.119 44.413 1
      vertex 30.036 50.036 1
    endloop
  endfacet
  facet normal 0 0 1
    outer loop
      vertex -26.5 51.5 1
      vertex -26.036 46.036 1
      vertex -24.413 47.119 1
    endloop
  endfacet
  facet normal 0 0 1
    outer loop
      vertex -26.5 51.5 1
      vertex -22.5 47.5 1
      vertex 26.5 51.5 1
    endloop
  endfacet
  facet normal 0 0 1
    outer loop
      vertex -26.5 51.5 1
      vertex -24.413 47.119 1
      vertex -22.5 47.5 1
    endloop
  endfacet
  facet normal 0 0 1
    outer loop
      vertex 26.5 51.5 1
      vertex 24.413 47.119 1
      vertex 28.413 51.119 1
    endloop
  endfacet
  facet normal 0 0 1
    outer loop
      vertex 27.5 42.5 1
      vertex 27.5 -42.5 1
      vertex 31.5 46.5 1
    endloop
  endfacet
  facet normal 0 0 1
    outer loop
      vertex 28.413 51.119 1
      vertex 26.036 46.036 1
      vertex 30.036 50.036 1
    endloop
  endfacet
  facet normal 0 0 1
    outer loop
      vertex 30.036 50.036 1
      vertex 27.119 44.413 1
      vertex 31.119 48.413 1
    endloop
  endfacet
  facet normal 0 0 1
    outer loop
      vertex 31.119 48.413 1
      vertex 27.5 42.5 1
      vertex 31.5 46.5 1
    endloop
  endfacet
  facet normal 0 0 1
    outer loop
      vertex 31.5 46.5 1
      vertex 27.5 -42.5 1
      vertex 31.5 -46.5 1
    endloop
  endfacet
  facet normal 0 0 1
    outer loop
      vertex 27.5 -42.5 1
      vertex 27.119 -44.413 1
      vertex 31.5 -46.5 1
    endloop
  endfacet
  facet normal 0 0 1
    outer loop
      vertex 27.119 -44.413 1
      vertex 26.036 -46.036 1
      vertex 31.5 -46.5 1
    endloop
  endfacet
  facet normal 0 0 1
    outer loop
      vertex -27.119 -44.413 1
      vertex -27.5 -42.5 1
      vertex -31.119 -48.413 1
    endloop
  endfacet
  facet normal 0 0 1
    outer loop
      vertex 31.5 -46.5 1
      vertex 24.413 -47.119 1
      vertex 31.119 -48.413 1
    endloop
  endfacet
  facet normal 0 0 1
    outer loop
      vertex 24.413 -47.119 1
      vertex 22.5 -47.5 1
      vertex 31.119 -48.413 1
    endloop
  endfacet
  facet normal 0 0 1
    outer loop
      vertex -24.413 -47.119 1
      vertex -31.119 -48.413 1
      vertex -22.5 -47.5 1
    endloop
  endfacet
  facet normal 0 0 1
    outer loop
      vertex 26.036 -46.036 1
      vertex 24.413 -47.119 1
      vertex 31.5 -46.5 1
    endloop
  endfacet
  facet normal 0 0 1
    outer loop
      vertex -26.036 -46.036 1
      vertex -31.119 -48.413 1
      vertex -24.413 -47.119 1
    endloop
  endfacet
  facet normal 0 0 1
    outer loop
      vertex -27.119 -44.413 1
      vertex -31.119 -48.413 1
      vertex -26.036 -46.036 1
    endloop
  endfacet
  facet normal 0 0 1
    outer loop
      vertex 22.5 -47.5 1
      vertex -22.5 -47.5 1
      vertex -31.119 -48.413 1
    endloop
  endfacet
  facet normal 0 0 1
    outer loop
      vertex -27.119 44.413 1
      vertex -26.036 46.036 1
      vertex -26.5 51.5 1
    endloop
  endfacet
  facet normal 0 0 1
    outer loop
      vertex 22.5 47.5 1
      vertex 24.413 47.119 1
      vertex 26.5 51.5 1
    endloop
  endfacet
  facet normal 0 0 1
    outer loop
      vertex 24.413 47.119 1
      vertex 26.036 46.036 1
      vertex 28.413 51.119 1
    endloop
  endfacet
  facet normal 0 0 1
    outer loop
      vertex -27.5 -42.5 1
      vertex -27.5 42.5 1
      vertex -31.119 -48.413 1
    endloop
  endfacet
  facet normal 0.980738 -0.195327 0
    outer loop
      vertex -31.119 48.413 1
      vertex -31.119 48.413 28
      vertex -31.5 46.5 28
    endloop
  endfacet
  facet normal 0.980738 -0.195327 0
    outer loop
      vertex -31.5 46.5 1
      vertex -31.119 48.413 1
      vertex -31.5 46.5 18
    endloop
  endfacet
  facet normal 0.980738 -0.195327 0
    outer loop
      vertex -31.5 46.5 18
      vertex -31.119 48.413 1
      vertex -31.5 46.5 28
    endloop
  endfacet
  facet normal 1 0 0
    outer loop
      vertex -31.5 46.4818 17.5143
      vertex -31.5 46.5 18
      vertex -31.5 46.4454 18
    endloop
  endfacet
  facet normal 1 0 0
    outer loop
      vertex -31.5 46.5 1
      vertex -31.5 46.5 18
      vertex -31.5 46.4818 17.5143
    endloop
  endfacet
  facet normal 1 0 0
    outer loop
      vertex -31.5 45.0819 13.9473
      vertex -31.5 46.5 1
      vertex -31.5 46.0507 15.6253
    endloop
  endfacet
  facet normal 1 0 0
    outer loop
      vertex -31.5 43.6616 12.6294
      vertex -31.5 46.5 1
      vertex -31.5 45.0819 13.9473
    endloop
  endfacet
  facet normal 1 0 0
    outer loop
      vertex -31.5 41.9159 11.7888
      vertex -31.5 46.5 1
      vertex -31.5 43.6616 12.6294
    endloop
  endfacet
  facet normal 1 0 0
    outer loop
      vertex -31.5 40 11.5
      vertex -31.5 46.5 1
      vertex -31.5 41.9159 11.7888
    endloop
  endfacet
  facet normal 1 0 0
    outer loop
      vertex -31.5 38.0841 11.7888
      vertex -31.5 46.5 1
      vertex -31.5 40 11.5
    endloop
  endfacet
  facet normal 1 0 0
    outer loop
      vertex -31.5 36.3384 12.6294
      vertex -31.5 46.5 1
      vertex -31.5 38.0841 11.7888
    endloop
  endfacet
  facet normal 1 0 0
    outer loop
      vertex -31.5 34.9181 13.9473
      vertex -31.5 46.5 1
      vertex -31.5 36.3384 12.6294
    endloop
  endfacet
  facet normal 1 0 0
    outer loop
      vertex -31.5 -31.5 28
      vertex -31.5 46.5 1
      vertex -31.5 34.9181 13.9473
    endloop
  endfacet
  facet normal 1 0 0
    outer loop
      vertex -31.5 -31.5 28
      vertex -31.5 34.9181 13.9473
      vertex -31.5 33.9493 15.6253
    endloop
  endfacet
  facet normal 1 0 0
    outer loop
      vertex -31.5 -31.5 28
      vertex -31.5 33.9493 15.6253
      vertex -31.5 33.5182 17.5143
    endloop
  endfacet
  facet normal 1 0 0
    outer loop
      vertex -31.5 33.5 18
      vertex -31.5 33.5182 17.5143
      vertex -31.5 33.5546 18
    endloop
  endfacet
  facet normal 1 0 0
    outer loop
      vertex -31.5 -31.5 28
      vertex -31.5 33.5182 17.5143
      vertex -31.5 33.5 18
    endloop
  endfacet
  facet normal 1 0 0
    outer loop
      vertex -31.5 -31.5 28
      vertex -31.5 33.5 18
      vertex -31.5 33.5 28
    endloop
  endfacet
  facet normal 1 0 0
    outer loop
      vertex -31.5 -31.5 18
      vertex -31.5 46.5 1
      vertex -31.5 -31.5 28
    endloop
  endfacet
  facet normal 1 0 0
    outer loop
      vertex -31.5 -31.5432 18
      vertex -31.5 46.5 1
      vertex -31.5 -31.5 18
    endloop
  endfacet
  facet normal 1 0 0
    outer loop
      vertex -31.5 -31.6291 16.524
      vertex -31.5 46.5 1
      vertex -31.5 -31.5432 18
    endloop
  endfacet
  facet normal 1 0 0
    outer loop
      vertex -31.5 -32.1952 14.6333
      vertex -31.5 46.5 1
      vertex -31.5 -31.6291 16.524
    endloop
  endfacet
  facet normal 1 0 0
    outer loop
      vertex -31.5 -33.182 12.9242
      vertex -31.5 46.5 1
      vertex -31.5 -32.1952 14.6333
    endloop
  endfacet
  facet normal 1 0 0
    outer loop
      vertex -31.5 -34.5363 11.4886
      vertex -31.5 46.5 1
      vertex -31.5 -33.182 12.9242
    endloop
  endfacet
  facet normal 1 0 0
    outer loop
      vertex -31.5 -36.1852 10.4041
      vertex -31.5 46.5 1
      vertex -31.5 -34.5363 11.4886
    endloop
  endfacet
  facet normal 1 0 0
    outer loop
      vertex -31.5 -38.0398 9.72912
      vertex -31.5 46.5 1
      vertex -31.5 -36.1852 10.4041
    endloop
  endfacet
  facet normal 1 0 0
    outer loop
      vertex -31.5 -40 9.5
      vertex -31.5 46.5 1
      vertex -31.5 -38.0398 9.72912
    endloop
  endfacet
  facet normal 1 0 0
    outer loop
      vertex -31.5 -46.5 1
      vertex -31.5 46.5 1
      vertex -31.5 -40 9.5
    endloop
  endfacet
  facet normal 1 0 0
    outer loop
      vertex -31.5 -46.5 1
      vertex -31.5 -40 9.5
      vertex -31.5 -41.9602 9.72912
    endloop
  endfacet
  facet normal 1 0 0
    outer loop
      vertex -31.5 -46.5 1
      vertex -31.5 -41.9602 9.72912
      vertex -31.5 -43.8148 10.4041
    endloop
  endfacet
  facet normal 1 0 0
    outer loop
      vertex -31.5 -46.5 1
      vertex -31.5 -43.8148 10.4041
      vertex -31.5 -45.4637 11.4886
    endloop
  endfacet
  facet normal 1 0 0
    outer loop
      vertex -31.5 -46.5 1
      vertex -31.5 -45.4637 11.4886
      vertex -31.5 -46.5 12.587
    endloop
  endfacet
  facet normal 1 0 0
    outer loop
      vertex -31.5 46.4818 17.5143
      vertex -31.5 46.0507 15.6253
      vertex -31.5 46.5 1
    endloop
  endfacet
  facet normal 0 0 1
    outer loop
      vertex -32.5 47.5 28
      vertex -32.5 46.5 28
      vertex -31.5 46.5 28
    endloop
  endfacet
  facet normal 0 0 1
    outer loop
      vertex -30.036 50.036 28
      vertex -32.5 47.5 28
      vertex -31.119 48.413 28
    endloop
  endfacet
  facet normal 0 0 1
    outer loop
      vertex -31.119 48.413 28
      vertex -32.5 47.5 28
      vertex -31.5 46.5 28
    endloop
  endfacet
  facet normal 0 0 1
    outer loop
      vertex -29.413 52.119 28
      vertex -32.5 47.5 28
      vertex -30.036 50.036 28
    endloop
  endfacet
  facet normal 0 0 1
    outer loop
      vertex -27.5 52.5 28
      vertex -30.036 50.036 28
      vertex -28.413 51.119 28
    endloop
  endfacet
  facet normal 0 0 1
    outer loop
      vertex -27.5 52.5 28
      vertex -28.413 51.119 28
      vertex -26.5 51.5 28
    endloop
  endfacet
  facet normal 0 0 1
    outer loop
      vertex -8 52.5 28
      vertex -26.5 51.5 28
      vertex -8 51.5 28
    endloop
  endfacet
  facet normal 0 0 1
    outer loop
      vertex -27.5 52.5 28
      vertex -26.5 51.5 28
      vertex -8 52.5 28
    endloop
  endfacet
  facet normal 0 0 1
    outer loop
      vertex -29.413 52.119 28
      vertex -30.036 50.036 28
      vertex -27.5 52.5 28
    endloop
  endfacet
  facet normal 0 0 1
    outer loop
      vertex -31.036 51.036 28
      vertex -32.5 47.5 28
      vertex -29.413 52.119 28
    endloop
  endfacet
  facet normal 0 0 1
    outer loop
      vertex -32.119 49.413 28
      vertex -32.5 47.5 28
      vertex -31.036 51.036 28
    endloop
  endfacet
  facet normal 0 0 1
    outer loop
      vertex -32.5 33.5 28
      vertex -32.5 -31.5 28
      vertex -31.5 -31.5 28
    endloop
  endfacet
  facet normal 0 0 1
    outer loop
      vertex -31.5 33.5 28
      vertex -32.5 33.5 28
      vertex -31.5 -31.5 28
    endloop
  endfacet
  facet normal -1 0 0
    outer loop
      vertex -32.5 -31.5 18
      vertex -32.5 -31.5 28
      vertex -32.5 33.5 18
    endloop
  endfacet
  facet normal -1 0 0
    outer loop
      vertex -32.5 33.5 18
      vertex -32.5 -31.5 28
      vertex -32.5 33.5 28
    endloop
  endfacet
  facet normal 0.980738 0.195327 0
    outer loop
      vertex -31.119 -48.413 1
      vertex -31.4367 -46.818 12.9242
      vertex -31.2401 -47.8048 14.6333
    endloop
  endfacet
  facet normal 0.980738 0.195327 0
    outer loop
      vertex -31.1274 -48.3709 16.524
      vertex -31.119 -48.413 1
      vertex -31.2401 -47.8048 14.6333
    endloop
  endfacet
  facet normal 0.980738 0.195327 0
    outer loop
      vertex -31.5 -46.5 12.587
      vertex -31.4367 -46.818 12.9242
      vertex -31.119 -48.413 1
    endloop
  endfacet
  facet normal 0.980738 0.195327 0
    outer loop
      vertex -31.119 -48.413 17.2474
      vertex -31.119 -48.413 1
      vertex -31.1274 -48.3709 16.524
    endloop
  endfacet
  facet normal 0.980738 0.195327 0
    outer loop
      vertex -31.119 -48.413 1
      vertex -31.5 -46.5 1
      vertex -31.5 -46.5 12.587
    endloop
  endfacet
  facet normal 0.831814 0.555055 0
    outer loop
      vertex -31.119 -48.413 17.2474
      vertex -31.0898 -48.4568 18
      vertex -31.0609 -48.5 18
    endloop
  endfacet
  facet normal 0.831814 0.555055 0
    outer loop
      vertex -30.036 -50.036 28
      vertex -31.119 -48.413 17.2474
      vertex -31.0609 -48.5 18
    endloop
  endfacet
  facet normal 0.831814 0.555055 0
    outer loop
      vertex -31.0609 -48.5 28
      vertex -30.036 -50.036 28
      vertex -31.0609 -48.5 18
    endloop
  endfacet
  facet normal 0.831814 0.555055 0
    outer loop
      vertex -30.036 -50.036 1
      vertex -31.119 -48.413 17.2474
      vertex -30.036 -50.036 28
    endloop
  endfacet
  facet normal 0.831814 0.555055 0
    outer loop
      vertex -31.119 -48.413 1
      vertex -31.119 -48.413 17.2474
      vertex -30.036 -50.036 1
    endloop
  endfacet
  facet normal 0 0 1
    outer loop
      vertex -31.0609 -48.5 28
      vertex -32.3008 -48.5 28
      vertex -32.119 -49.413 28
    endloop
  endfacet
  facet normal 0 0 1
    outer loop
      vertex -29.413 -52.119 28
      vertex -31.0609 -48.5 28
      vertex -31.036 -51.036 28
    endloop
  endfacet
  facet normal 0 0 1
    outer loop
      vertex -31.036 -51.036 28
      vertex -31.0609 -48.5 28
      vertex -32.119 -49.413 28
    endloop
  endfacet
  facet normal 0 0 1
    outer loop
      vertex -30.036 -50.036 28
      vertex -31.0609 -48.5 28
      vertex -29.413 -52.119 28
    endloop
  endfacet
  facet normal 0 0 1
    outer loop
      vertex -28.413 -51.119 28
      vertex -30.036 -50.036 28
      vertex -27.5 -52.5 28
    endloop
  endfacet
  facet normal 0 0 1
    outer loop
      vertex -6 -52.5 28
      vertex -26.5 -51.5 28
      vertex -27.5 -52.5 28
    endloop
  endfacet
  facet normal 0 0 1
    outer loop
      vertex -26.5 -51.5 28
      vertex -28.413 -51.119 28
      vertex -27.5 -52.5 28
    endloop
  endfacet
  facet normal 0 0 1
    outer loop
      vertex -27.5 -52.5 28
      vertex -30.036 -50.036 28
      vertex -29.413 -52.119 28
    endloop
  endfacet
  facet normal 0 0 1
    outer loop
      vertex -6 -51.5 28
      vertex -26.5 -51.5 28
      vertex -6 -52.5 28
    endloop
  endfacet
  facet normal 1 0 0
    outer loop
      vertex -6 -51.5 23
      vertex -6 -51.5 28
      vertex -6 -52.5 28
    endloop
  endfacet
  facet normal 1 0 0
    outer loop
      vertex -6 -52.5 23
      vertex -6 -51.5 23
      vertex -6 -52.5 28
    endloop
  endfacet
  facet normal 0 0 1
    outer loop
      vertex 6 -52.5 23
      vertex 6 -51.5 23
      vertex -6 -51.5 23
    endloop
  endfacet
  facet normal 0 0 1
    outer loop
      vertex -6 -52.5 23
      vertex 6 -52.5 23
      vertex -6 -51.5 23
    endloop
  endfacet
  facet normal -1 0 0
    outer loop
      vertex 6 -51.5 28
      vertex 6 -51.5 23
      vertex 6 -52.5 28
    endloop
  endfacet
  facet normal -1 0 0
    outer loop
      vertex 6 -52.5 28
      vertex 6 -51.5 23
      vertex 6 -52.5 23
    endloop
  endfacet
  facet normal 0 0 1
    outer loop
      vertex 6 -51.5 28
      vertex 6 -52.5 28
      vertex 27.5 -52.5 28
    endloop
  endfacet
  facet normal 0 0 1
    outer loop
      vertex 26.5 -51.5 28
      vertex 6 -51.5 28
      vertex 29.413 -52.119 28
    endloop
  endfacet
  facet normal 0 0 1
    outer loop
      vertex 29.413 -52.119 28
      vertex 6 -51.5 28
      vertex 27.5 -52.5 28
    endloop
  endfacet
  facet normal 0 0 1
    outer loop
      vertex 30.036 -50.036 28
      vertex 28.413 -51.119 28
      vertex 31.036 -51.036 28
    endloop
  endfacet
  facet normal 0 0 1
    outer loop
      vertex 31.119 -48.413 28
      vertex 30.036 -50.036 28
      vertex 32.119 -49.413 28
    endloop
  endfacet
  facet normal 0 0 1
    outer loop
      vertex 31.5 -46.5 28
      vertex 31.119 -48.413 28
      vertex 32.5 -47.5 28
    endloop
  endfacet
  facet normal 0 0 1
    outer loop
      vertex 31.5 46.5 28
      vertex 31.5 -46.5 28
      vertex 32.5 47.5 28
    endloop
  endfacet
  facet normal 0 0 1
    outer loop
      vertex 31.119 48.413 28
      vertex 31.5 46.5 28
      vertex 32.119 49.413 28
    endloop
  endfacet
  facet normal 0 0 1
    outer loop
      vertex 30.036 50.036 28
      vertex 31.119 48.413 28
      vertex 31.036 51.036 28
    endloop
  endfacet
  facet normal 0 0 1
    outer loop
      vertex 28.413 51.119 28
      vertex 30.036 50.036 28
      vertex 29.413 52.119 28
    endloop
  endfacet
  facet normal 0 0 1
    outer loop
      vertex 8 52.5 28
      vertex 8 51.5 28
      vertex 27.5 52.5 28
    endloop
  endfacet
  facet normal 0 0 1
    outer loop
      vertex 8 51.5 28
      vertex 26.5 51.5 28
      vertex 27.5 52.5 28
    endloop
  endfacet
  facet normal 0 0 1
    outer loop
      vertex 27.5 52.5 28
      vertex 28.413 51.119 28
      vertex 29.413 52.119 28
    endloop
  endfacet
  facet normal 0 0 1
    outer loop
      vertex 29.413 52.119 28
      vertex 30.036 50.036 28
      vertex 31.036 51.036 28
    endloop
  endfacet
  facet normal 0 0 1
    outer loop
      vertex 31.036 51.036 28
      vertex 31.119 48.413 28
      vertex 32.119 49.413 28
    endloop
  endfacet
  facet normal 0 0 1
    outer loop
      vertex 32.119 49.413 28
      vertex 31.5 46.5 28
      vertex 32.5 47.5 28
    endloop
  endfacet
  facet normal 0 0 1
    outer loop
      vertex 32.5 47.5 28
      vertex 31.5 -46.5 28
      vertex 32.5 -47.5 28
    endloop
  endfacet
  facet normal 0 0 1
    outer loop
      vertex 32.5 -47.5 28
      vertex 31.119 -48.413 28
      vertex 32.119 -49.413 28
    endloop
  endfacet
  facet normal 0 0 1
    outer loop
      vertex 32.119 -49.413 28
      vertex 30.036 -50.036 28
      vertex 31.036 -51.036 28
    endloop
  endfacet
  facet normal 0 0 1
    outer loop
      vertex 31.036 -51.036 28
      vertex 28.413 -51.119 28
      vertex 29.413 -52.119 28
    endloop
  endfacet
  facet normal 0 0 1
    outer loop
      vertex 28.413 -51.119 28
      vertex 26.5 -51.5 28
      vertex 29.413 -52.119 28
    endloop
  endfacet
  facet normal 0 0 1
    outer loop
      vertex 26.5 51.5 28
      vertex 28.413 51.119 28
      vertex 27.5 52.5 28
    endloop
  endfacet
  facet normal -1 0 0
    outer loop
      vertex 8 52.5 28
      vertex 8 52.5 25
      vertex 8 51.5 28
    endloop
  endfacet
  facet normal -1 0 0
    outer loop
      vertex 8 51.5 28
      vertex 8 52.5 25
      vertex 8 51.5 25
    endloop
  endfacet
  facet normal 0 0 1
    outer loop
      vertex 8 51.5 25
      vertex 8 52.5 25
      vertex -8 52.5 25
    endloop
  endfacet
  facet normal 0 0 1
    outer loop
      vertex -8 51.5 25
      vertex 8 51.5 25
      vertex -8 52.5 25
    endloop
  endfacet
  facet normal 1 0 0
    outer loop
      vertex -8 52.5 25
      vertex -8 52.5 28
      vertex -8 51.5 28
    endloop
  endfacet
  facet normal 1 0 0
    outer loop
      vertex -8 51.5 25
      vertex -8 52.5 25
      vertex -8 51.5 28
    endloop
  endfacet
  facet normal 0.831814 -0.555055 0
    outer loop
      vertex -30.036 50.036 1
      vertex -30.036 50.036 28
      vertex -31.119 48.413 28
    endloop
  endfacet
  facet normal 0.831814 -0.555055 0
    outer loop
      vertex -31.119 48.413 1
      vertex -30.036 50.036 1
      vertex -31.119 48.413 28
    endloop
  endfacet
  facet normal 0.555055 -0.831814 0
    outer loop
      vertex -28.413 51.119 1
      vertex -28.413 51.119 28
      vertex -30.036 50.036 28
    endloop
  endfacet
  facet normal 0.555055 -0.831814 0
    outer loop
      vertex -30.036 50.036 1
      vertex -28.413 51.119 1
      vertex -30.036 50.036 28
    endloop
  endfacet
  facet normal 0.195327 -0.980738 0
    outer loop
      vertex -26.5 51.5 1
      vertex -26.5 51.5 28
      vertex -28.413 51.119 28
    endloop
  endfacet
  facet normal 0.195327 -0.980738 0
    outer loop
      vertex -28.413 51.119 1
      vertex -26.5 51.5 1
      vertex -28.413 51.119 28
    endloop
  endfacet
  facet normal 0 -1 0
    outer loop
      vertex 26.5 51.5 1
      vertex 26.5 51.5 28
      vertex 8 51.5 28
    endloop
  endfacet
  facet normal 0 -1 0
    outer loop
      vertex -8 51.5 25
      vertex 26.5 51.5 1
      vertex 8 51.5 25
    endloop
  endfacet
  facet normal 0 -1 0
    outer loop
      vertex 8 51.5 25
      vertex 26.5 51.5 1
      vertex 8 51.5 28
    endloop
  endfacet
  facet normal 0 -1 0
    outer loop
      vertex -26.5 51.5 28
      vertex 26.5 51.5 1
      vertex -8 51.5 25
    endloop
  endfacet
  facet normal 0 -1 0
    outer loop
      vertex -26.5 51.5 28
      vertex -8 51.5 25
      vertex -8 51.5 28
    endloop
  endfacet
  facet normal 0 -1 0
    outer loop
      vertex -26.5 51.5 1
      vertex 26.5 51.5 1
      vertex -26.5 51.5 28
    endloop
  endfacet
  facet normal -0.195327 -0.980738 0
    outer loop
      vertex 28.413 51.119 1
      vertex 28.413 51.119 28
      vertex 26.5 51.5 28
    endloop
  endfacet
  facet normal -0.195327 -0.980738 0
    outer loop
      vertex 26.5 51.5 1
      vertex 28.413 51.119 1
      vertex 26.5 51.5 28
    endloop
  endfacet
  facet normal -0.555055 -0.831814 0
    outer loop
      vertex 30.036 50.036 1
      vertex 30.036 50.036 28
      vertex 28.413 51.119 28
    endloop
  endfacet
  facet normal -0.555055 -0.831814 0
    outer loop
      vertex 28.413 51.119 1
      vertex 30.036 50.036 1
      vertex 28.413 51.119 28
    endloop
  endfacet
  facet normal -0.831814 -0.555055 0
    outer loop
      vertex 31.119 48.413 28
      vertex 30.036 50.036 28
      vertex 31.119 48.413 1
    endloop
  endfacet
  facet normal -0.831814 -0.555055 0
    outer loop
      vertex 31.119 48.413 1
      vertex 30.036 50.036 28
      vertex 30.036 50.036 1
    endloop
  endfacet
  facet normal -0.980738 -0.195327 0
    outer loop
      vertex 31.5 46.5 28
      vertex 31.119 48.413 28
      vertex 31.5 46.5 1
    endloop
  endfacet
  facet normal -0.980738 -0.195327 0
    outer loop
      vertex 31.5 46.5 1
      vertex 31.119 48.413 28
      vertex 31.119 48.413 1
    endloop
  endfacet
  facet normal -1 0 0
    outer loop
      vertex 31.5 46.5 28
      vertex 31.5 46.5 1
      vertex 31.5 -46.5 28
    endloop
  endfacet
  facet normal -1 0 0
    outer loop
      vertex 31.5 -46.5 28
      vertex 31.5 46.5 1
      vertex 31.5 -46.5 1
    endloop
  endfacet
  facet normal -0.980738 0.195327 0
    outer loop
      vertex 31.5 -46.5 28
      vertex 31.5 -46.5 1
      vertex 31.119 -48.413 28
    endloop
  endfacet
  facet normal -0.980738 0.195327 0
    outer loop
      vertex 31.119 -48.413 28
      vertex 31.5 -46.5 1
      vertex 31.119 -48.413 1
    endloop
  endfacet
  facet normal -0.831814 0.555055 0
    outer loop
      vertex 31.119 -48.413 28
      vertex 31.119 -48.413 1
      vertex 30.036 -50.036 28
    endloop
  endfacet
  facet normal -0.831814 0.555055 0
    outer loop
      vertex 30.036 -50.036 28
      vertex 31.119 -48.413 1
      vertex 30.036 -50.036 1
    endloop
  endfacet
  facet normal -0.555055 0.831814 0
    outer loop
      vertex 30.036 -50.036 28
      vertex 30.036 -50.036 1
      vertex 28.413 -51.119 28
    endloop
  endfacet
  facet normal -0.555055 0.831814 0
    outer loop
      vertex 28.413 -51.119 28
      vertex 30.036 -50.036 1
      vertex 28.413 -51.119 1
    endloop
  endfacet
  facet normal -0.195327 0.980738 0
    outer loop
      vertex 28.413 -51.119 28
      vertex 28.413 -51.119 1
      vertex 26.5 -51.5 28
    endloop
  endfacet
  facet normal -0.195327 0.980738 0
    outer loop
      vertex 26.5 -51.5 28
      vertex 28.413 -51.119 1
      vertex 26.5 -51.5 1
    endloop
  endfacet
  facet normal 0 1 0
    outer loop
      vertex -6 -51.5 28
      vertex -6 -51.5 23
      vertex -26.5 -51.5 28
    endloop
  endfacet
  facet normal 0 1 0
    outer loop
      vertex -26.5 -51.5 28
      vertex -6 -51.5 23
      vertex 26.5 -51.5 1
    endloop
  endfacet
  facet normal 0 1 0
    outer loop
      vertex 26.5 -51.5 28
      vertex 6 -51.5 23
      vertex 6 -51.5 28
    endloop
  endfacet
  facet normal 0 1 0
    outer loop
      vertex 26.5 -51.5 1
      vertex 6 -51.5 23
      vertex 26.5 -51.5 28
    endloop
  endfacet
  facet normal 0 1 0
    outer loop
      vertex -6 -51.5 23
      vertex 6 -51.5 23
      vertex 26.5 -51.5 1
    endloop
  endfacet
  facet normal 0 1 0
    outer loop
      vertex -26.5 -51.5 28
      vertex 26.5 -51.5 1
      vertex -26.5 -51.5 1
    endloop
  endfacet
  facet normal 0.195327 0.980738 0
    outer loop
      vertex -26.5 -51.5 28
      vertex -26.5 -51.5 1
      vertex -28.413 -51.119 28
    endloop
  endfacet
  facet normal 0.195327 0.980738 0
    outer loop
      vertex -28.413 -51.119 28
      vertex -26.5 -51.5 1
      vertex -28.413 -51.119 1
    endloop
  endfacet
  facet normal 0.555055 0.831814 0
    outer loop
      vertex -28.413 -51.119 28
      vertex -28.413 -51.119 1
      vertex -30.036 -50.036 28
    endloop
  endfacet
  facet normal 0.555055 0.831814 0
    outer loop
      vertex -30.036 -50.036 28
      vertex -28.413 -51.119 1
      vertex -30.036 -50.036 1
    endloop
  endfacet
endsolid OpenSCAD_Model
